<?xml version="1.0" encoding="utf-8"?>
<!-- Generator: Adobe Illustrator 16.0.0, SVG Export Plug-In . SVG Version: 6.00 Build 0)  -->
<!DOCTYPE svg PUBLIC "-//W3C//DTD SVG 1.1//EN" "http://www.w3.org/Graphics/SVG/1.1/DTD/svg11.dtd" [
	<!ENTITY ns_extend "http://ns.adobe.com/Extensibility/1.0/">
	<!ENTITY ns_ai "http://ns.adobe.com/AdobeIllustrator/10.0/">
	<!ENTITY ns_graphs "http://ns.adobe.com/Graphs/1.0/">
	<!ENTITY ns_vars "http://ns.adobe.com/Variables/1.0/">
	<!ENTITY ns_imrep "http://ns.adobe.com/ImageReplacement/1.0/">
	<!ENTITY ns_sfw "http://ns.adobe.com/SaveForWeb/1.0/">
	<!ENTITY ns_custom "http://ns.adobe.com/GenericCustomNamespace/1.0/">
	<!ENTITY ns_adobe_xpath "http://ns.adobe.com/XPath/1.0/">
]>
<svg version="1.1" id="Layer_1" xmlns:x="&ns_extend;" xmlns:i="&ns_ai;" xmlns:graph="&ns_graphs;"
	 xmlns="http://www.w3.org/2000/svg" xmlns:xlink="http://www.w3.org/1999/xlink" x="0px" y="0px" width="90px" height="90px"
	 viewBox="0 0 90 90" enable-background="new 0 0 90 90" xml:space="preserve">
<metadata>
	<sfw  xmlns="&ns_sfw;">
		<slices></slices>
		<sliceSourceBounds  height="87.002" width="87" bottomLeftOrigin="true" y="-13.001" x="-14"></sliceSourceBounds>
	</sfw>
</metadata>
<g>
	<path d="M44.548,10.607c-5.641,0-10.23,4.591-10.23,10.231c0,5.644,4.589,10.237,10.23,10.237c5.646,0,10.234-4.594,10.234-10.237
		C54.782,15.198,50.193,10.607,44.548,10.607 M44.548,32.411c-6.376,0-11.566-5.193-11.566-11.572s5.19-11.566,11.566-11.566
		c6.382,0,11.574,5.187,11.574,11.565S50.93,32.411,44.548,32.411 M30.271,54.73c-2.531,0-4.966,0.934-6.859,2.627
		c-2.03,1.828-3.226,4.343-3.367,7.072c-0.141,2.729,0.789,5.35,2.621,7.381c1.937,2.152,4.712,3.385,7.613,3.385
		c2.53,0,4.959-0.93,6.845-2.616c4.18-3.788,4.518-10.279,0.752-14.464C35.939,55.965,33.165,54.73,30.271,54.73 M30.279,76.534
		c-3.28,0-6.418-1.397-8.605-3.828c-2.069-2.297-3.123-5.259-2.961-8.349c0.159-3.086,1.509-5.924,3.807-7.996
		c2.139-1.912,4.891-2.965,7.752-2.965c3.273,0,6.408,1.393,8.598,3.824c4.259,4.732,3.875,12.065-0.854,16.348
		C35.883,75.48,33.137,76.534,30.279,76.534 M58.823,54.732c-1.974,0-3.896,0.572-5.558,1.649
		c-4.729,3.075-6.084,9.425-3.019,14.159c1.899,2.92,5.116,4.664,8.599,4.664c1.977,0,3.899-0.572,5.563-1.654
		c2.291-1.488,3.862-3.779,4.432-6.458c0.567-2.676,0.058-5.409-1.429-7.7C65.521,56.475,62.311,54.732,58.823,54.732
		 M58.844,76.544c-3.936,0-7.566-1.974-9.719-5.276c-3.464-5.353-1.934-12.529,3.414-16.002c1.878-1.223,4.052-1.869,6.284-1.869
		c3.942,0,7.573,1.972,9.711,5.271c1.681,2.589,2.254,5.681,1.61,8.705c-0.641,3.024-2.418,5.618-5.01,7.302
		C63.253,75.895,61.08,76.544,58.844,76.544"/>
	<path d="M68.844,33.878c-2.051,0-3.72,1.669-3.72,3.723c0,2.055,1.669,3.728,3.72,3.728c2.061,0,3.731-1.673,3.731-3.728
		C72.575,35.547,70.904,33.878,68.844,33.878 M68.844,42.663c-2.785,0-5.058-2.271-5.058-5.062c0-2.79,2.272-5.061,5.058-5.061
		c2.795,0,5.065,2.271,5.065,5.061C73.909,40.392,71.639,42.663,68.844,42.663"/>
	<path d="M77.104,43.614c-1.609,2.214-3.978,3.67-6.674,4.096c-0.535,0.084-1.078,0.127-1.617,0.127
		c-5.058,0-9.308-3.634-10.103-8.635c-0.869-5.57,2.95-10.824,8.517-11.711c0.531-0.084,1.076-0.127,1.606-0.127
		c5.062,0,9.304,3.631,10.094,8.638C79.357,38.696,78.709,41.399,77.104,43.614 M80.249,35.79
		c-0.894-5.655-5.696-9.761-11.417-9.761c-0.602,0-1.212,0.046-1.816,0.143c-6.291,1.001-10.609,6.942-9.625,13.238
		c0.896,5.657,5.705,9.764,11.422,9.764c0.606,0,1.22-0.049,1.823-0.146c3.05-0.479,5.729-2.123,7.548-4.627
		C80,41.895,80.732,38.84,80.249,35.79"/>
	<path d="M45,20.393c-13.567,0-24.608,11.038-24.608,24.606c0,13.569,11.041,24.61,24.608,24.61
		c13.568,0,24.609-11.041,24.609-24.61C69.609,31.431,58.566,20.393,45,20.393 M45,70.882c-14.272,0-25.881-11.608-25.881-25.883
		c0-14.272,11.609-25.883,25.881-25.883c14.271,0,25.884,11.61,25.884,25.883C70.883,59.271,59.271,70.882,45,70.882"/>
	<path d="M45.119,49.941c-2.727,0-4.948-2.219-4.948-4.945c0-2.723,2.221-4.936,4.948-4.936c2.727,0,4.943,2.213,4.943,4.936
		C50.062,47.725,47.846,49.941,45.119,49.941 M45.119,38.768c-3.442,0-6.239,2.795-6.239,6.229c0,3.44,2.797,6.233,6.239,6.233
		c3.438,0,6.234-2.793,6.234-6.233C51.354,41.562,48.557,38.768,45.119,38.768"/>
	<path d="M29.761,42.067c-1.638,3.692-5.309,6.076-9.361,6.076c-1.438,0-2.84-0.299-4.161-0.885
		c-5.146-2.303-7.473-8.361-5.18-13.51c1.639-3.69,5.308-6.075,9.351-6.075c1.436,0,2.837,0.3,4.162,0.89
		C29.719,30.854,32.049,36.91,29.761,42.067 M25.113,27.341c-1.495-0.665-3.08-1.002-4.704-1.002c-4.572,0-8.722,2.695-10.571,6.868
		c-2.593,5.82,0.035,12.671,5.855,15.271c1.5,0.664,3.08,1.002,4.706,1.002c4.582,0,8.731-2.696,10.583-6.873
		C33.568,36.781,30.935,29.933,25.113,27.341"/>
	<path d="M44.999,87.164c-23.246,0-42.163-18.913-42.163-42.157c0-23.255,18.917-42.172,42.163-42.172
		c23.25,0,42.165,18.917,42.165,42.172C87.164,68.251,68.249,87.164,44.999,87.164 M44.999,1.499
		C21.012,1.499,1.5,21.016,1.5,45.007c0,23.983,19.512,43.494,43.499,43.494c23.985,0,43.501-19.511,43.501-43.494
		C88.5,21.016,68.984,1.499,44.999,1.499"/>
</g>
</svg>
