<?xml version="1.0" encoding="utf-8"?>
<!-- Generator: Adobe Illustrator 16.0.0, SVG Export Plug-In . SVG Version: 6.00 Build 0)  -->
<!DOCTYPE svg PUBLIC "-//W3C//DTD SVG 1.1//EN" "http://www.w3.org/Graphics/SVG/1.1/DTD/svg11.dtd" [
	<!ENTITY ns_extend "http://ns.adobe.com/Extensibility/1.0/">
	<!ENTITY ns_ai "http://ns.adobe.com/AdobeIllustrator/10.0/">
	<!ENTITY ns_graphs "http://ns.adobe.com/Graphs/1.0/">
	<!ENTITY ns_vars "http://ns.adobe.com/Variables/1.0/">
	<!ENTITY ns_imrep "http://ns.adobe.com/ImageReplacement/1.0/">
	<!ENTITY ns_sfw "http://ns.adobe.com/SaveForWeb/1.0/">
	<!ENTITY ns_custom "http://ns.adobe.com/GenericCustomNamespace/1.0/">
	<!ENTITY ns_adobe_xpath "http://ns.adobe.com/XPath/1.0/">
]>
<svg version="1.1" id="Layer_1" xmlns:x="&ns_extend;" xmlns:i="&ns_ai;" xmlns:graph="&ns_graphs;"
	 xmlns="http://www.w3.org/2000/svg" xmlns:xlink="http://www.w3.org/1999/xlink" x="0px" y="0px" width="14px" height="635.52px"
	 viewBox="0 0 14 635.52" enable-background="new 0 0 14 635.52" xml:space="preserve">
<metadata>
	<sfw  xmlns="&ns_sfw;">
		<slices></slices>
		<sliceSourceBounds  width="13" height="639" bottomLeftOrigin="true" y="-177" x="-27"></sliceSourceBounds>
	</sfw>
</metadata>
<g>
	<g>
		<rect x="3.5" y="466.52" fill="none" stroke="#FFFFFF" stroke-miterlimit="10" width="6" height="6"/>
		<rect x="3.5" y="480.52" fill="none" stroke="#FFFFFF" stroke-miterlimit="10" width="6" height="6"/>
		<rect x="3.5" y="494.52" fill="none" stroke="#FFFFFF" stroke-miterlimit="10" width="6" height="6"/>
		<rect x="3.5" y="508.52" fill="none" stroke="#FFFFFF" stroke-miterlimit="10" width="6" height="6"/>
		<rect x="3.5" y="522.52" fill="none" stroke="#FFFFFF" stroke-miterlimit="10" width="6" height="6"/>
		<rect x="3.5" y="536.52" fill="none" stroke="#FFFFFF" stroke-miterlimit="10" width="6" height="6"/>
		<rect x="3.5" y="550.52" fill="none" stroke="#FFFFFF" stroke-miterlimit="10" width="6" height="6"/>
		<rect x="3.5" y="564.52" fill="none" stroke="#FFFFFF" stroke-miterlimit="10" width="6" height="6"/>
		<rect x="3.5" y="578.52" fill="none" stroke="#FFFFFF" stroke-miterlimit="10" width="6" height="6"/>
		<rect x="3.5" y="592.52" fill="none" stroke="#FFFFFF" stroke-miterlimit="10" width="6" height="6"/>
		<rect x="3.5" y="606.52" fill="none" stroke="#FFFFFF" stroke-miterlimit="10" width="6" height="6"/>
		<rect x="3.5" y="620.52" fill="none" stroke="#FFFFFF" stroke-miterlimit="10" width="6" height="6"/>
		<line fill="none" stroke="#FFFFFF" stroke-miterlimit="10" x1="0.5" y1="459.02" x2="0.5" y2="636.02"/>
		<line fill="none" stroke="#FFFFFF" stroke-miterlimit="10" x1="12.5" y1="459.02" x2="12.5" y2="636.02"/>
	</g>
	<g>
		<rect x="3.5" y="312.52" fill="none" stroke="#FFFFFF" stroke-miterlimit="10" width="6" height="6"/>
		<rect x="3.5" y="326.52" fill="none" stroke="#FFFFFF" stroke-miterlimit="10" width="6" height="6"/>
		<rect x="3.5" y="340.52" fill="none" stroke="#FFFFFF" stroke-miterlimit="10" width="6" height="6"/>
		<rect x="3.5" y="354.52" fill="none" stroke="#FFFFFF" stroke-miterlimit="10" width="6" height="6"/>
		<rect x="3.5" y="368.52" fill="none" stroke="#FFFFFF" stroke-miterlimit="10" width="6" height="6"/>
		<rect x="3.5" y="382.52" fill="none" stroke="#FFFFFF" stroke-miterlimit="10" width="6" height="6"/>
		<rect x="3.5" y="396.52" fill="none" stroke="#FFFFFF" stroke-miterlimit="10" width="6" height="6"/>
		<rect x="3.5" y="410.52" fill="none" stroke="#FFFFFF" stroke-miterlimit="10" width="6" height="6"/>
		<rect x="3.5" y="424.52" fill="none" stroke="#FFFFFF" stroke-miterlimit="10" width="6" height="6"/>
		<rect x="3.5" y="438.52" fill="none" stroke="#FFFFFF" stroke-miterlimit="10" width="6" height="6"/>
		<rect x="3.5" y="452.52" fill="none" stroke="#FFFFFF" stroke-miterlimit="10" width="6" height="6"/>
		<line fill="none" stroke="#FFFFFF" stroke-miterlimit="10" x1="0.5" y1="305.02" x2="0.5" y2="482.02"/>
		<line fill="none" stroke="#FFFFFF" stroke-miterlimit="10" x1="12.5" y1="305.02" x2="12.5" y2="482.02"/>
	</g>
	<g>
		<rect x="3.5" y="158.52" fill="none" stroke="#FFFFFF" stroke-miterlimit="10" width="6" height="6"/>
		<rect x="3.5" y="172.52" fill="none" stroke="#FFFFFF" stroke-miterlimit="10" width="6" height="6"/>
		<rect x="3.5" y="186.52" fill="none" stroke="#FFFFFF" stroke-miterlimit="10" width="6" height="6"/>
		<rect x="3.5" y="200.52" fill="none" stroke="#FFFFFF" stroke-miterlimit="10" width="6" height="6"/>
		<rect x="3.5" y="214.52" fill="none" stroke="#FFFFFF" stroke-miterlimit="10" width="6" height="6"/>
		<rect x="3.5" y="228.52" fill="none" stroke="#FFFFFF" stroke-miterlimit="10" width="6" height="6"/>
		<rect x="3.5" y="242.52" fill="none" stroke="#FFFFFF" stroke-miterlimit="10" width="6" height="6"/>
		<rect x="3.5" y="256.52" fill="none" stroke="#FFFFFF" stroke-miterlimit="10" width="6" height="6"/>
		<rect x="3.5" y="270.52" fill="none" stroke="#FFFFFF" stroke-miterlimit="10" width="6" height="6"/>
		<rect x="3.5" y="284.52" fill="none" stroke="#FFFFFF" stroke-miterlimit="10" width="6" height="6"/>
		<rect x="3.5" y="298.52" fill="none" stroke="#FFFFFF" stroke-miterlimit="10" width="6" height="6"/>
		<line fill="none" stroke="#FFFFFF" stroke-miterlimit="10" x1="0.5" y1="151.02" x2="0.5" y2="328.02"/>
		<line fill="none" stroke="#FFFFFF" stroke-miterlimit="10" x1="12.5" y1="151.02" x2="12.5" y2="328.02"/>
	</g>
	<g>
		<rect x="3.5" y="4.52" fill="none" stroke="#FFFFFF" stroke-miterlimit="10" width="6" height="6"/>
		<rect x="3.5" y="18.52" fill="none" stroke="#FFFFFF" stroke-miterlimit="10" width="6" height="6"/>
		<rect x="3.5" y="32.52" fill="none" stroke="#FFFFFF" stroke-miterlimit="10" width="6" height="6"/>
		<rect x="3.5" y="46.52" fill="none" stroke="#FFFFFF" stroke-miterlimit="10" width="6" height="6"/>
		<rect x="3.5" y="60.52" fill="none" stroke="#FFFFFF" stroke-miterlimit="10" width="6" height="6"/>
		<rect x="3.5" y="74.52" fill="none" stroke="#FFFFFF" stroke-miterlimit="10" width="6" height="6"/>
		<rect x="3.5" y="88.52" fill="none" stroke="#FFFFFF" stroke-miterlimit="10" width="6" height="6"/>
		<rect x="3.5" y="102.52" fill="none" stroke="#FFFFFF" stroke-miterlimit="10" width="6" height="6"/>
		<rect x="3.5" y="116.52" fill="none" stroke="#FFFFFF" stroke-miterlimit="10" width="6" height="6"/>
		<rect x="3.5" y="130.52" fill="none" stroke="#FFFFFF" stroke-miterlimit="10" width="6" height="6"/>
		<rect x="3.5" y="144.52" fill="none" stroke="#FFFFFF" stroke-miterlimit="10" width="6" height="6"/>
		<line fill="none" stroke="#FFFFFF" stroke-miterlimit="10" x1="0.5" y1="-2.98" x2="0.5" y2="174.02"/>
		<line fill="none" stroke="#FFFFFF" stroke-miterlimit="10" x1="12.5" y1="-2.98" x2="12.5" y2="174.02"/>
	</g>
</g>
</svg>
