<?xml version="1.0" encoding="utf-8"?>
<!-- Generator: Adobe Illustrator 16.0.0, SVG Export Plug-In . SVG Version: 6.00 Build 0)  -->
<!DOCTYPE svg PUBLIC "-//W3C//DTD SVG 1.1//EN" "http://www.w3.org/Graphics/SVG/1.1/DTD/svg11.dtd" [
	<!ENTITY ns_extend "http://ns.adobe.com/Extensibility/1.0/">
	<!ENTITY ns_ai "http://ns.adobe.com/AdobeIllustrator/10.0/">
	<!ENTITY ns_graphs "http://ns.adobe.com/Graphs/1.0/">
	<!ENTITY ns_vars "http://ns.adobe.com/Variables/1.0/">
	<!ENTITY ns_imrep "http://ns.adobe.com/ImageReplacement/1.0/">
	<!ENTITY ns_sfw "http://ns.adobe.com/SaveForWeb/1.0/">
	<!ENTITY ns_custom "http://ns.adobe.com/GenericCustomNamespace/1.0/">
	<!ENTITY ns_adobe_xpath "http://ns.adobe.com/XPath/1.0/">
]>
<svg version="1.1" id="Layer_1" xmlns:x="&ns_extend;" xmlns:i="&ns_ai;" xmlns:graph="&ns_graphs;"
	 xmlns="http://www.w3.org/2000/svg" xmlns:xlink="http://www.w3.org/1999/xlink" x="0px" y="0px" width="621.441px" height="17px"
	 viewBox="0 0 621.441 17" enable-background="new 0 0 621.441 17" xml:space="preserve">
<metadata>
	<sfw  xmlns="&ns_sfw;">
		<slices></slices>
		<sliceSourceBounds  height="14.073" width="620.088" bottomLeftOrigin="true" y="23.018" x="-280.78"></sliceSourceBounds>
	</sfw>
</metadata>
<polygon points="2.043,3.24 620.529,3.24 620.529,1.909 0.713,1.909 0.713,3.284 2.043,3.284 "/>
<polygon points="620.529,14.65 2.043,14.65 2.043,14.578 0.713,14.578 0.713,15.982 620.529,15.982 "/>
<g>
	<g>
		<rect x="0.441" y="1.909" width="1" height="14.073"/>
	</g>
	<g>
		<rect x="16.441" y="2.024" width="1" height="13"/>
	</g>
	<g>
		<rect x="31.441" y="2.024" width="1" height="13"/>
	</g>
	<g>
		<rect x="45.441" y="2.024" width="1" height="13"/>
	</g>
	<g>
		<rect x="61.441" y="2.024" width="1" height="13"/>
	</g>
	<g>
		<rect x="76.441" y="2.024" width="1" height="13"/>
	</g>
	<g>
		<rect x="90.441" y="2.024" width="1" height="13"/>
	</g>
	<g>
		<rect x="121.441" y="2.024" width="1" height="13"/>
	</g>
	<g>
		<rect x="105.711" y="2.024" width="1" height="13"/>
	</g>
	<g>
		<rect x="136.441" y="2.024" width="1" height="13"/>
	</g>
	<g>
		<rect x="150.441" y="2.024" width="1" height="13"/>
	</g>
	<g>
		<rect x="167.441" y="2.024" width="1" height="13"/>
	</g>
	<g>
		<rect x="182.441" y="2.024" width="1" height="13"/>
	</g>
	<g>
		<rect x="197.441" y="2.024" width="1" height="13"/>
	</g>
	<g>
		<rect x="212.441" y="2.024" width="1" height="13"/>
	</g>
	<g>
		<rect x="227.441" y="2.024" width="1" height="13"/>
	</g>
	<g>
		<rect x="242.441" y="2.024" width="1" height="13"/>
	</g>
	<g>
		<rect x="272.441" y="2.024" width="1" height="13"/>
	</g>
	<g>
		<rect x="257.275" y="2.024" width="1" height="13"/>
	</g>
	<g>
		<rect x="287.441" y="2.024" width="1" height="13"/>
	</g>
	<g>
		<rect x="302.441" y="2.024" width="1" height="13"/>
	</g>
	<g>
		<rect x="317.441" y="2.024" width="1" height="13"/>
	</g>
	<g>
		<rect x="332.441" y="2.024" width="1" height="13"/>
	</g>
	<g>
		<rect x="347.441" y="2.024" width="1" height="13"/>
	</g>
	<g>
		<rect x="362.251" y="2.024" width="1" height="13"/>
	</g>
	<g>
		<rect x="377.441" y="2.024" width="1" height="13"/>
	</g>
	<g>
		<rect x="392.441" y="2.024" width="1" height="13"/>
	</g>
	<g>
		<rect x="407.441" y="2.024" width="1" height="13"/>
	</g>
	<g>
		<rect x="422.441" y="2.024" width="1" height="13"/>
	</g>
	<g>
		<rect x="437.441" y="2.024" width="1" height="13"/>
	</g>
	<g>
		<rect x="452.441" y="2.024" width="1" height="13"/>
	</g>
	<g>
		<rect x="469.441" y="2.024" width="1" height="13"/>
	</g>
	<g>
		<rect x="483.441" y="2.024" width="1" height="13"/>
	</g>
	<g>
		<rect x="498.441" y="2.024" width="1" height="13"/>
	</g>
	<g>
		<rect x="529.441" y="2.024" width="1" height="13"/>
	</g>
	<g>
		<rect x="513.611" y="2.024" width="1" height="13"/>
	</g>
	<g>
		<rect x="543.441" y="2.024" width="1" height="13"/>
	</g>
	<g>
		<rect x="558.441" y="2.024" width="1" height="13"/>
	</g>
	<g>
		<rect x="574.441" y="2.024" width="1" height="13"/>
	</g>
	<g>
		<rect x="588.441" y="2.024" width="1" height="13"/>
	</g>
	<g>
		<rect x="603.441" y="2.024" width="1" height="13"/>
	</g>
	<g>
		<rect x="619.441" y="2.024" width="1.088" height="13"/>
	</g>
</g>
<g>
	<rect x="18.328" y="2.083" fill="#FFFFFF" width="1.774" height="0.85"/>
	<rect x="25.593" y="2.083" fill="#FFFFFF" width="1.775" height="0.849"/>
	<rect x="32.858" y="2.083" fill="#FFFFFF" width="1.775" height="0.85"/>
	<rect x="40.123" y="2.083" fill="#FFFFFF" width="1.775" height="0.85"/>
	<rect x="47.388" y="2.083" fill="#FFFFFF" width="1.774" height="0.85"/>
	<rect x="54.653" y="2.083" fill="#FFFFFF" width="1.774" height="0.85"/>
	<rect x="61.918" y="2.083" fill="#FFFFFF" width="1.774" height="0.849"/>
	<rect x="69.182" y="2.083" fill="#FFFFFF" width="1.774" height="0.849"/>
	<rect x="76.447" y="2.083" fill="#FFFFFF" width="1.774" height="0.85"/>
	<rect x="83.712" y="2.083" fill="#FFFFFF" width="1.774" height="0.85"/>
	<rect x="90.977" y="2.083" fill="#FFFFFF" width="1.774" height="0.85"/>
	<rect x="98.242" y="2.083" fill="#FFFFFF" width="1.774" height="0.85"/>
	<rect x="105.506" y="2.083" fill="#FFFFFF" width="1.775" height="0.85"/>
	<rect x="112.771" y="2.083" fill="#FFFFFF" width="1.774" height="0.85"/>
	<rect x="120.036" y="2.083" fill="#FFFFFF" width="1.775" height="0.85"/>
	<rect x="127.301" y="2.083" fill="#FFFFFF" width="1.775" height="0.85"/>
	<rect x="134.566" y="2.083" fill="#FFFFFF" width="1.774" height="0.85"/>
	<rect x="141.831" y="2.083" fill="#FFFFFF" width="1.774" height="0.85"/>
	<rect x="149.095" y="2.083" fill="#FFFFFF" width="1.775" height="0.85"/>
	<rect x="156.36" y="2.083" fill="#FFFFFF" width="1.775" height="0.85"/>
	<rect x="163.625" y="2.083" fill="#FFFFFF" width="1.775" height="0.85"/>
	<rect x="170.89" y="2.083" fill="#FFFFFF" width="1.774" height="0.85"/>
	<rect x="178.155" y="2.083" fill="#FFFFFF" width="1.774" height="0.85"/>
	<rect x="185.419" y="2.083" fill="#FFFFFF" width="1.775" height="0.85"/>
	<rect x="192.684" y="2.083" fill="#FFFFFF" width="1.775" height="0.85"/>
	<rect x="199.949" y="2.083" fill="#FFFFFF" width="1.775" height="0.85"/>
	<rect x="207.214" y="2.083" fill="#FFFFFF" width="1.774" height="0.85"/>
	<rect x="214.479" y="2.083" fill="#FFFFFF" width="1.774" height="0.85"/>
	<rect x="221.744" y="2.083" fill="#FFFFFF" width="1.774" height="0.85"/>
	<rect x="229.009" y="2.083" fill="#FFFFFF" width="1.775" height="0.85"/>
	<rect x="236.273" y="2.083" fill="#FFFFFF" width="1.775" height="0.85"/>
	<rect x="243.539" y="2.083" fill="#FFFFFF" width="1.774" height="0.85"/>
	<rect x="250.803" y="2.083" fill="#FFFFFF" width="1.774" height="0.85"/>
	<rect x="258.068" y="2.083" fill="#FFFFFF" width="1.774" height="0.85"/>
	<rect x="265.333" y="2.083" fill="#FFFFFF" width="1.775" height="0.85"/>
	<rect x="272.598" y="2.083" fill="#FFFFFF" width="1.775" height="0.85"/>
	<rect x="279.862" y="2.083" fill="#FFFFFF" width="1.775" height="0.85"/>
	<rect x="287.127" y="2.083" fill="#FFFFFF" width="1.774" height="0.85"/>
	<rect x="294.392" y="2.083" fill="#FFFFFF" width="1.774" height="0.85"/>
	<rect x="301.657" y="2.083" fill="#FFFFFF" width="1.774" height="0.85"/>
	<rect x="308.922" y="2.083" fill="#FFFFFF" width="1.775" height="0.85"/>
	<rect x="316.188" y="2.083" fill="#FFFFFF" width="1.773" height="0.85"/>
	<rect x="323.451" y="2.083" fill="#FFFFFF" width="1.774" height="0.85"/>
	<rect x="330.716" y="2.083" fill="#FFFFFF" width="1.775" height="0.85"/>
	<rect x="337.981" y="2.083" fill="#FFFFFF" width="1.774" height="0.85"/>
	<rect x="345.246" y="2.083" fill="#FFFFFF" width="1.775" height="0.85"/>
	<rect x="352.51" y="2.083" fill="#FFFFFF" width="1.775" height="0.85"/>
	<rect x="359.776" y="2.083" fill="#FFFFFF" width="1.773" height="0.85"/>
	<rect x="367.041" y="2.083" fill="#FFFFFF" width="1.775" height="0.85"/>
	<rect x="374.305" y="2.083" fill="#FFFFFF" width="1.774" height="0.85"/>
	<rect x="381.57" y="2.083" fill="#FFFFFF" width="1.774" height="0.85"/>
	<rect x="388.834" y="2.083" fill="#FFFFFF" width="1.775" height="0.85"/>
	<rect x="396.099" y="2.083" fill="#FFFFFF" width="1.775" height="0.85"/>
	<rect x="403.365" y="2.083" fill="#FFFFFF" width="1.774" height="0.85"/>
	<rect x="410.629" y="2.083" fill="#FFFFFF" width="1.774" height="0.85"/>
	<rect x="417.894" y="2.083" fill="#FFFFFF" width="1.775" height="0.85"/>
	<rect x="425.16" y="2.083" fill="#FFFFFF" width="1.773" height="0.85"/>
	<rect x="432.423" y="2.083" fill="#FFFFFF" width="1.775" height="0.85"/>
	<rect x="439.689" y="2.083" fill="#FFFFFF" width="1.774" height="0.85"/>
	<rect x="446.954" y="2.083" fill="#FFFFFF" width="1.773" height="0.85"/>
	<rect x="454.218" y="2.083" fill="#FFFFFF" width="1.775" height="0.85"/>
	<rect x="461.483" y="2.083" fill="#FFFFFF" width="1.774" height="0.85"/>
	<rect x="468.749" y="2.083" fill="#FFFFFF" width="1.774" height="0.85"/>
	<rect x="476.013" y="2.083" fill="#FFFFFF" width="1.774" height="0.85"/>
	<rect x="483.278" y="2.083" fill="#FFFFFF" width="1.773" height="0.85"/>
	<rect x="490.542" y="2.083" fill="#FFFFFF" width="1.775" height="0.85"/>
	<rect x="497.807" y="2.083" fill="#FFFFFF" width="1.775" height="0.85"/>
	<rect x="505.072" y="2.083" fill="#FFFFFF" width="1.774" height="0.85"/>
	<rect x="512.337" y="2.083" fill="#FFFFFF" width="1.774" height="0.85"/>
	<rect x="519.602" y="2.083" fill="#FFFFFF" width="1.774" height="0.85"/>
	<rect x="526.867" y="2.083" fill="#FFFFFF" width="1.774" height="0.85"/>
	<rect x="534.131" y="2.083" fill="#FFFFFF" width="1.775" height="0.85"/>
	<rect x="541.396" y="2.083" fill="#FFFFFF" width="1.774" height="0.85"/>
	<rect x="548.661" y="2.083" fill="#FFFFFF" width="1.774" height="0.85"/>
	<rect x="555.926" y="2.083" fill="#FFFFFF" width="1.774" height="0.85"/>
	<rect x="563.191" y="2.083" fill="#FFFFFF" width="1.774" height="0.85"/>
	<rect x="570.456" y="2.083" fill="#FFFFFF" width="1.775" height="0.85"/>
	<rect x="577.72" y="2.083" fill="#FFFFFF" width="1.775" height="0.85"/>
	<rect x="584.985" y="2.083" fill="#FFFFFF" width="1.774" height="0.85"/>
	<rect x="592.25" y="2.083" fill="#FFFFFF" width="1.775" height="0.85"/>
	<rect x="599.514" y="2.083" fill="#FFFFFF" width="1.776" height="0.85"/>
	<rect x="606.78" y="2.083" fill="#FFFFFF" width="1.774" height="0.85"/>
</g>
<g>
	<rect x="18.328" y="14.786" fill="#FFFFFF" width="1.774" height="0.85"/>
	<rect x="25.593" y="14.786" fill="#FFFFFF" width="1.775" height="0.85"/>
	<rect x="32.858" y="14.786" fill="#FFFFFF" width="1.775" height="0.85"/>
	<rect x="40.123" y="14.786" fill="#FFFFFF" width="1.775" height="0.85"/>
	<rect x="47.388" y="14.786" fill="#FFFFFF" width="1.774" height="0.85"/>
	<rect x="54.653" y="14.786" fill="#FFFFFF" width="1.774" height="0.85"/>
	<rect x="61.918" y="14.786" fill="#FFFFFF" width="1.774" height="0.85"/>
	<rect x="69.182" y="14.786" fill="#FFFFFF" width="1.774" height="0.85"/>
	<rect x="76.447" y="14.786" fill="#FFFFFF" width="1.774" height="0.85"/>
	<rect x="83.712" y="14.786" fill="#FFFFFF" width="1.774" height="0.85"/>
	<rect x="90.977" y="14.786" fill="#FFFFFF" width="1.774" height="0.85"/>
	<rect x="98.242" y="14.786" fill="#FFFFFF" width="1.774" height="0.85"/>
	<rect x="105.506" y="14.786" fill="#FFFFFF" width="1.775" height="0.85"/>
	<rect x="112.771" y="14.786" fill="#FFFFFF" width="1.774" height="0.85"/>
	<rect x="120.036" y="14.786" fill="#FFFFFF" width="1.775" height="0.85"/>
	<rect x="127.301" y="14.786" fill="#FFFFFF" width="1.775" height="0.85"/>
	<rect x="134.566" y="14.786" fill="#FFFFFF" width="1.774" height="0.85"/>
	<rect x="141.831" y="14.786" fill="#FFFFFF" width="1.774" height="0.85"/>
	<rect x="149.095" y="14.786" fill="#FFFFFF" width="1.775" height="0.85"/>
	<rect x="156.36" y="14.786" fill="#FFFFFF" width="1.775" height="0.85"/>
	<rect x="163.625" y="14.786" fill="#FFFFFF" width="1.775" height="0.85"/>
	<rect x="170.89" y="14.786" fill="#FFFFFF" width="1.774" height="0.85"/>
	<rect x="178.155" y="14.786" fill="#FFFFFF" width="1.774" height="0.85"/>
	<rect x="185.419" y="14.786" fill="#FFFFFF" width="1.775" height="0.85"/>
	<rect x="192.684" y="14.786" fill="#FFFFFF" width="1.775" height="0.85"/>
	<rect x="199.949" y="14.786" fill="#FFFFFF" width="1.775" height="0.85"/>
	<rect x="207.214" y="14.786" fill="#FFFFFF" width="1.774" height="0.85"/>
	<rect x="214.479" y="14.786" fill="#FFFFFF" width="1.774" height="0.85"/>
	<rect x="221.744" y="14.786" fill="#FFFFFF" width="1.774" height="0.85"/>
	<rect x="229.009" y="14.786" fill="#FFFFFF" width="1.775" height="0.85"/>
	<rect x="236.273" y="14.786" fill="#FFFFFF" width="1.775" height="0.85"/>
	<rect x="243.539" y="14.786" fill="#FFFFFF" width="1.774" height="0.85"/>
	<rect x="250.803" y="14.786" fill="#FFFFFF" width="1.774" height="0.85"/>
	<rect x="258.068" y="14.786" fill="#FFFFFF" width="1.774" height="0.85"/>
	<rect x="265.333" y="14.786" fill="#FFFFFF" width="1.775" height="0.85"/>
	<rect x="272.598" y="14.786" fill="#FFFFFF" width="1.775" height="0.85"/>
	<rect x="279.862" y="14.786" fill="#FFFFFF" width="1.775" height="0.85"/>
	<rect x="287.127" y="14.786" fill="#FFFFFF" width="1.774" height="0.85"/>
	<rect x="294.392" y="14.786" fill="#FFFFFF" width="1.774" height="0.85"/>
	<rect x="301.657" y="14.786" fill="#FFFFFF" width="1.774" height="0.85"/>
	<rect x="308.922" y="14.786" fill="#FFFFFF" width="1.775" height="0.85"/>
	<rect x="316.188" y="14.786" fill="#FFFFFF" width="1.773" height="0.85"/>
	<rect x="323.451" y="14.786" fill="#FFFFFF" width="1.774" height="0.85"/>
	<rect x="330.716" y="14.786" fill="#FFFFFF" width="1.775" height="0.85"/>
	<rect x="337.981" y="14.786" fill="#FFFFFF" width="1.774" height="0.85"/>
	<rect x="345.246" y="14.786" fill="#FFFFFF" width="1.775" height="0.85"/>
	<rect x="352.51" y="14.786" fill="#FFFFFF" width="1.775" height="0.85"/>
	<rect x="359.776" y="14.786" fill="#FFFFFF" width="1.773" height="0.85"/>
	<rect x="367.041" y="14.786" fill="#FFFFFF" width="1.775" height="0.85"/>
	<rect x="374.305" y="14.786" fill="#FFFFFF" width="1.774" height="0.85"/>
	<rect x="381.57" y="14.786" fill="#FFFFFF" width="1.774" height="0.85"/>
	<rect x="388.834" y="14.786" fill="#FFFFFF" width="1.775" height="0.85"/>
	<rect x="396.099" y="14.786" fill="#FFFFFF" width="1.775" height="0.85"/>
	<rect x="403.365" y="14.786" fill="#FFFFFF" width="1.774" height="0.85"/>
	<rect x="410.629" y="14.786" fill="#FFFFFF" width="1.774" height="0.85"/>
	<rect x="417.894" y="14.786" fill="#FFFFFF" width="1.775" height="0.85"/>
	<rect x="425.16" y="14.786" fill="#FFFFFF" width="1.773" height="0.85"/>
	<rect x="432.423" y="14.786" fill="#FFFFFF" width="1.775" height="0.85"/>
	<rect x="439.689" y="14.786" fill="#FFFFFF" width="1.774" height="0.85"/>
	<rect x="446.954" y="14.786" fill="#FFFFFF" width="1.773" height="0.85"/>
	<rect x="454.218" y="14.786" fill="#FFFFFF" width="1.775" height="0.85"/>
	<rect x="461.483" y="14.786" fill="#FFFFFF" width="1.774" height="0.85"/>
	<rect x="468.749" y="14.786" fill="#FFFFFF" width="1.774" height="0.85"/>
	<rect x="476.013" y="14.786" fill="#FFFFFF" width="1.774" height="0.85"/>
	<rect x="483.278" y="14.786" fill="#FFFFFF" width="1.773" height="0.85"/>
	<rect x="490.542" y="14.786" fill="#FFFFFF" width="1.775" height="0.85"/>
	<rect x="497.807" y="14.786" fill="#FFFFFF" width="1.775" height="0.85"/>
	<rect x="505.072" y="14.786" fill="#FFFFFF" width="1.774" height="0.85"/>
	<rect x="512.337" y="14.786" fill="#FFFFFF" width="1.774" height="0.85"/>
	<rect x="519.602" y="14.786" fill="#FFFFFF" width="1.774" height="0.85"/>
	<rect x="526.867" y="14.786" fill="#FFFFFF" width="1.774" height="0.85"/>
	<rect x="534.131" y="14.786" fill="#FFFFFF" width="1.775" height="0.85"/>
	<rect x="541.396" y="14.786" fill="#FFFFFF" width="1.774" height="0.85"/>
	<rect x="548.661" y="14.786" fill="#FFFFFF" width="1.774" height="0.85"/>
	<rect x="555.926" y="14.786" fill="#FFFFFF" width="1.774" height="0.85"/>
	<rect x="563.191" y="14.786" fill="#FFFFFF" width="1.774" height="0.85"/>
	<rect x="570.456" y="14.786" fill="#FFFFFF" width="1.775" height="0.85"/>
	<rect x="577.72" y="14.786" fill="#FFFFFF" width="1.775" height="0.85"/>
	<rect x="584.985" y="14.786" fill="#FFFFFF" width="1.774" height="0.85"/>
	<rect x="592.25" y="14.786" fill="#FFFFFF" width="1.775" height="0.85"/>
	<rect x="599.514" y="14.786" fill="#FFFFFF" width="1.776" height="0.85"/>
	<rect x="606.78" y="14.786" fill="#FFFFFF" width="1.774" height="0.85"/>
</g>
</svg>
