<?xml version="1.0" standalone="no"?>
<!DOCTYPE svg PUBLIC "-//W3C//DTD SVG 1.1//EN" "http://www.w3.org/Graphics/SVG/1.1/DTD/svg11.dtd" >
<svg>
<metadata>
Created by FontForge 20090622 at Tue Jan 19 18:41:44 2016
 By deploy user
Copyright &#194;&#169; 2004-2009, Joshua Darden &#38; Phil's Fonts, Inc. All rights reserved. Published by Garagefonts USA 301-879-9222 www.garagefonts.com
</metadata>
<defs>
<font id="FreightSansProSemibold-Regular" horiz-adv-x="500" >
  <font-face 
    font-family="FreightSans Pro Semibold"
    font-weight="600"
    font-stretch="normal"
    units-per-em="1000"
    panose-1="2 0 6 3 4 0 0 2 0 4"
    ascent="800"
    descent="-200"
    x-height="461"
    cap-height="625"
    bbox="-211 -277 1278 1005"
    underline-thickness="20"
    underline-position="-113"
    unicode-range="U+0020-U+FB04"
  />
<missing-glyph 
 />
    <glyph glyph-name="ff" unicode="ff" horiz-adv-x="680" 
d="M202 361v-361h-118v360l-80 6l4 75l75 22l1 39q4 184 167 184q56 0 109 -23l-2 -11q-3 -10 -6.5 -25t-7.5 -30t-6 -25l-3 -10q-42 19 -75 19q-32 0 -46.5 -19.5t-14.5 -62.5v-41h221l1 54q2 96 44 140t122 44q56 0 109 -23l-2 -11q-3 -10 -6.5 -25l-7 -30t-6.5 -25
l-2 -10q-44 19 -76 19t-46.5 -19.5t-14.5 -62.5v-51h138l-3 -97h-131v-361h-118v361h-219z" />
    <glyph glyph-name="fi" unicode="fi" horiz-adv-x="574" 
d="M528 609q0 -32 -19 -51t-54 -19t-53.5 19t-18.5 51q0 33 18.5 52t53.5 19t54 -19t19 -52zM351 676q0 -1 -2.5 -11.5t-5.5 -25.5t-6.5 -30t-6.5 -25l-2 -10q-40 17 -68 17q-32 0 -46.5 -19.5t-14.5 -62.5v-51h134l-3 -97h-128v-361h-118v360l-80 6l4 75l75 22l1 49
q2 96 44.5 140t122.5 44q47 0 100 -20zM514 0h-118v458l118 17v-475z" />
    <glyph glyph-name="fl" unicode="fl" horiz-adv-x="587" 
d="M360 673l-2 -11q-3 -10 -6.5 -25t-7.5 -30t-6 -25l-3 -10q-42 19 -75 19q-32 0 -46.5 -19.5t-14.5 -62.5v-51h137l-3 -97h-131v-361h-118v360l-80 6l4 75l75 22l1 49q4 184 167 184q56 0 109 -23zM524 0h-118v668l118 16v-684z" />
    <glyph glyph-name="ffi" unicode="ffi" horiz-adv-x="910" 
d="M864 609q0 -32 -19 -51t-54 -19q-34 0 -53 19t-19 51q0 33 19 52t53 19q35 0 54 -19t19 -52zM202 361v-361h-118v360l-80 6l4 75l75 22l1 39q4 184 167 184q56 0 109 -23l-2 -11q-3 -10 -6.5 -25t-7.5 -30t-6 -25l-3 -10q-42 19 -75 19q-32 0 -46.5 -19.5t-14.5 -62.5
v-41h221l1 54q2 96 44 140t122 44q47 0 100 -20q0 -1 -2.5 -11.5t-5.5 -25.5t-6.5 -30t-6.5 -25l-2 -10q-40 17 -68 17q-32 0 -46.5 -19.5t-14.5 -62.5v-51h134l-3 -97h-127v-361h-118v361h-219zM850 0h-118v458l118 17v-475z" />
    <glyph glyph-name="ffl" unicode="ffl" horiz-adv-x="923" 
d="M202 361v-361h-118v360l-80 6l4 75l75 22l1 39q4 184 167 184q56 0 109 -23l-2 -11q-3 -10 -6.5 -25t-7.5 -30t-6 -25l-3 -10q-42 19 -75 19q-32 0 -46.5 -19.5t-14.5 -62.5v-41h221l1 54q2 96 44 140t122 44q56 0 109 -23l-2 -11q-3 -10 -6.5 -25l-7 -30t-6.5 -25
l-2 -10q-44 19 -76 19t-46.5 -19.5t-14.5 -62.5v-51h138l-3 -97h-131v-361h-118v361h-219zM860 0h-118v668l118 16v-684z" />
    <glyph glyph-name=".notdef" 
 />
    <glyph glyph-name=".null" horiz-adv-x="0" 
 />
    <glyph glyph-name="nonmarkingreturn" horiz-adv-x="333" 
 />
    <glyph glyph-name="space" unicode=" " horiz-adv-x="228" 
 />
    <glyph glyph-name="exclam" unicode="!" horiz-adv-x="290" 
d="M105 205l-30 447h141l-29 -447h-82zM224 60q0 -33 -22 -54t-56 -21q-36 0 -58.5 21t-22.5 54t22.5 53t58.5 20q35 0 56.5 -20t21.5 -53z" />
    <glyph glyph-name="quotedbl" unicode="&#x22;" horiz-adv-x="370" 
d="M246 398h-67l115 247l104 -36zM66 398h-67l115 247l105 -36z" />
    <glyph glyph-name="numbersign" unicode="#" horiz-adv-x="591" 
d="M153 358h-116v85h139l53 199h87l-54 -199h151l54 199h87l-54 -199h77v-85h-100l-36 -134h116v-85h-138l-57 -213h-87l57 213h-151l-57 -213h-87l57 213h-77v85h99zM392 361h-152l-38 -140h151z" />
    <glyph glyph-name="dollar" unicode="$" horiz-adv-x="534" 
d="M283 640l13 90h59l-14 -96q73 -13 138 -49l-30 -103q-57 33 -123 47l-6 -40l-12 -81l-6 -40q40 -11 70 -24t59.5 -34.5t45 -54t15.5 -75.5q0 -87 -64.5 -141t-173.5 -54h-16l-16 -108h-58q1 7 3 19t5.5 37t5.5 41l2 17q-89 13 -151 52l29 105q70 -42 138 -54l25 176
q-39 12 -66.5 24t-56.5 33t-44 53.5t-15 74.5q0 84 60.5 134.5t163.5 50.5h20zM246 381l23 158h-2q-110 0 -110 -77q0 -30 21.5 -48t67.5 -33zM277 257l-25 -171h3q55 0 87.5 23t32.5 61q0 33 -22.5 52t-75.5 35z" />
    <glyph glyph-name="percent" unicode="%" horiz-adv-x="786" 
d="M358 478q0 -74 -46.5 -121.5t-125.5 -47.5q-78 0 -124 47.5t-46 121.5q0 75 46.5 123t124.5 48q79 0 125 -48t46 -123zM692 639l-508 -654h-89l508 654h89zM770 146q0 -75 -46.5 -123t-124.5 -48q-79 0 -124.5 48t-45.5 123q0 74 46 121.5t125 47.5q78 0 124 -47.5
t46 -121.5zM279 478q0 47 -25 76t-67 29q-43 0 -68 -29t-25 -76q0 -45 25 -74t68 -29q42 0 67 29t25 74zM691 146q0 45 -25 74t-67 29t-67 -29t-25 -74q0 -47 25 -76t68 -29q42 0 66.5 29t24.5 76z" />
    <glyph glyph-name="ampersand" unicode="&#x26;" horiz-adv-x="640" 
d="M432 113q-96 -128 -215 -128q-88 0 -141.5 49t-53.5 125q0 61 42 105.5t104 61.5q-98 54 -98 145q0 66 53.5 117t142.5 51q83 0 134 -43.5t51 -108.5q0 -49 -34 -86.5t-86 -56.5q46 -22 108 -88l78 128h129l-148 -191l151 -185l-123 -21zM271 374q73 37 73 100
q0 35 -23 57t-60 22t-59.5 -22t-22.5 -53q0 -36 23 -60t69 -44zM384 173q-84 94 -157 120q-92 -46 -92 -116q0 -43 28 -70.5t75 -27.5q78 0 146 94z" />
    <glyph glyph-name="quotesingle" unicode="'" horiz-adv-x="190" 
d="M66 398h-67l115 247l105 -36z" />
    <glyph glyph-name="parenleft" unicode="(" horiz-adv-x="394" 
d="M350 -261q-52 27 -101 71t-92 104.5t-69.5 142t-26.5 170.5t26.5 171t69.5 142.5t92 104.5t100 70l58 -78q-96 -56 -166.5 -164.5t-70.5 -245.5q0 -136 70.5 -245t166.5 -165z" />
    <glyph glyph-name="parenright" unicode=")" horiz-adv-x="394" 
d="M45 -261l-58 78q96 56 166.5 165t70.5 245q0 137 -70 245.5t-167 164.5l59 78q51 -26 99.5 -70t92 -104.5t69.5 -142.5t26 -171t-26.5 -170.5t-69.5 -142t-91.5 -104.5t-100.5 -71z" />
    <glyph glyph-name="asterisk" unicode="*" horiz-adv-x="369" 
d="M175 430l-100 -118l-65 86l145 59v7l-143 60l63 87l100 -121l6 2l15 155l101 -33l-85 -133l4 -5l149 36v-106l-149 37l-4 -5l82 -134l-101 -31l-12 156z" />
    <glyph glyph-name="plus" unicode="+" horiz-adv-x="505" 
d="M469 190h-167v-170h-96v170h-169l3 94h166v169h96v-169h164z" />
    <glyph glyph-name="comma" unicode="," horiz-adv-x="249" 
d="M32 71q4 33 28 54t60 21q42 0 72 -32t30 -78q0 -104 -158 -199l-52 47q101 71 101 116q0 20 -17.5 35.5t-63.5 35.5z" />
    <glyph glyph-name="hyphen" unicode="-" horiz-adv-x="341" 
d="M312 192h-282v101h282v-101z" />
    <glyph glyph-name="period" unicode="." horiz-adv-x="249" 
d="M204 63q0 -33 -22 -55.5t-56 -22.5q-35 0 -57.5 22.5t-22.5 55.5t22.5 55t57.5 22q34 0 56 -22t22 -55z" />
    <glyph glyph-name="slash" unicode="/" horiz-adv-x="252" 
d="M285 702l-243 -901h-93l243 901h93z" />
    <glyph glyph-name="zero" unicode="0" horiz-adv-x="575" 
d="M535 238q0 -113 -68.5 -183t-180.5 -70q-111 0 -178 69.5t-67 182.5t68 183t178 70q111 0 179.5 -69.5t68.5 -182.5zM419 237q0 70 -36.5 113t-95.5 43t-95 -43t-36 -113t36 -112.5t95 -42.5t95.5 42.5t36.5 112.5z" />
    <glyph glyph-name="one" unicode="1" horiz-adv-x="365" 
d="M157 0v360l-116 -32l-3 101l236 62v-491h-117z" />
    <glyph glyph-name="two" unicode="2" horiz-adv-x="478" 
d="M447 0h-403v89l47 32.5l45 30.5l39.5 27.5t36.5 26.5t29 24t25 24t17.5 22t12 22.5t3.5 21.5q0 31 -23 49.5t-63 18.5q-64 0 -143 -55l-32 92q87 65 198 65q86 0 137 -41.5t51 -109.5q0 -66 -50.5 -117t-163.5 -121h236z" />
    <glyph glyph-name="three" unicode="3" horiz-adv-x="459" 
d="M293 172q70 -11 108.5 -55.5t38.5 -102.5q0 -92 -69.5 -146.5t-173.5 -54.5q-105 0 -183 42l17 101q70 -45 160 -45q58 -1 92.5 25t34.5 75q0 88 -125 91q-42 2 -86 -6v91q86 18 135.5 45.5t49.5 76.5q0 38 -26.5 59t-75.5 21q-67 0 -143 -56l-32 91q89 66 198 66
q93 0 149.5 -44.5t56.5 -116.5q0 -53 -35.5 -94.5t-90.5 -62.5z" />
    <glyph glyph-name="four" unicode="4" horiz-adv-x="548" 
d="M537 7h-98v-186h-112v186h-292l-13 71l297 408h120v-380h95zM331 105v249l-177 -249h177z" />
    <glyph glyph-name="five" unicode="5" horiz-adv-x="460" 
d="M161 222q5 0 15 1.5t21 2t23 0.5q102 0 161 -53t59 -138q0 -98 -67 -160t-172 -62q-103 0 -181 40l15 105q86 -44 164 -44q56 0 90.5 30.5t34.5 82.5q0 46 -35 76.5t-100 30.5q-68 0 -124 -18l-22 22l42 338h339l3 -103h-246z" />
    <glyph glyph-name="six" unicode="6" horiz-adv-x="543" 
d="M40 259q0 142 97.5 252.5t270.5 142.5l31 -102q-109 -23 -182 -76t-96 -133l3 -2q64 62 158 62q80 0 133 -53.5t53 -142.5q0 -96 -63 -159t-169 -63q-110 0 -173 77.5t-63 196.5zM164 221q0 -58 31.5 -99t84.5 -41q49 0 78.5 32t29.5 85q0 50 -29.5 80.5t-76.5 30.5
q-65 0 -114 -43q-4 -17 -4 -45z" />
    <glyph glyph-name="seven" unicode="7" horiz-adv-x="478" 
d="M336 370h-318l3 106h437v-87l-275 -568h-117z" />
    <glyph glyph-name="eight" unicode="8" horiz-adv-x="521" 
d="M364 318q119 -55 119 -150q0 -80 -58.5 -131.5t-165.5 -51.5q-103 0 -162 47.5t-59 123.5q0 54 36 94.5t87 53.5q-114 53 -114 146q0 81 58 131.5t162 50.5q98 0 152 -47.5t54 -123.5q0 -50 -31 -88.5t-78 -54.5zM290 350q33 16 52.5 42.5t19.5 56.5q0 43 -28 68t-71 25
q-47 0 -74.5 -24t-27.5 -61q0 -36 32.5 -59.5t96.5 -47.5zM234 272q-39 -16 -61 -43.5t-22 -60.5q0 -41 31.5 -67t82.5 -26t78.5 22t27.5 62q0 39 -34.5 63.5t-102.5 49.5z" />
    <glyph glyph-name="nine" unicode="9" horiz-adv-x="543" 
d="M503 216q0 -142 -97.5 -252t-270.5 -142l-31 101q109 23 181.5 76t93.5 133l-3 2q-61 -61 -153 -61q-81 0 -134.5 52.5t-53.5 140.5q0 97 63 160.5t169 63.5q110 0 173 -77t63 -197zM379 254q0 58 -31.5 99t-84.5 41q-49 0 -78.5 -32t-29.5 -85q0 -50 29.5 -80.5
t76.5 -30.5q66 0 114 44q4 16 4 44z" />
    <glyph glyph-name="colon" unicode=":" horiz-adv-x="249" 
d="M204 358q0 -33 -22 -55.5t-56 -22.5q-35 0 -57.5 22.5t-22.5 55.5t22.5 55t57.5 22q34 0 56 -22t22 -55zM204 63q0 -33 -22 -55.5t-56 -22.5q-35 0 -57.5 22.5t-22.5 55.5t22.5 55t57.5 22q34 0 56 -22t22 -55z" />
    <glyph glyph-name="semicolon" unicode=";" horiz-adv-x="249" 
d="M204 358q0 -33 -22 -55.5t-56 -22.5q-35 0 -57.5 22.5t-22.5 55.5t22.5 55t57.5 22q34 0 56 -22t22 -55zM32 71q4 33 28 54t60 21q42 0 72 -32t30 -78q0 -104 -158 -199l-52 47q101 71 101 116q0 20 -17.5 35.5t-63.5 35.5z" />
    <glyph glyph-name="less" unicode="&#x3c;" horiz-adv-x="488" 
d="M441 111v-101l-402 186v79l401 186v-101l-271 -120v-10z" />
    <glyph glyph-name="equal" unicode="=" horiz-adv-x="485" 
d="M444 288h-401l-5 93h411zM449 88h-411l5 93h401z" />
    <glyph glyph-name="greater" unicode="&#x3e;" horiz-adv-x="488" 
d="M440 196l-401 -186v101l271 119v10l-271 120v101l401 -186v-79z" />
    <glyph glyph-name="question" unicode="?" horiz-adv-x="387" 
d="M351 464q0 -57 -29.5 -87.5t-81.5 -48.5q-27 -9 -38 -13.5t-23 -14.5t-13 -22q0 -5 2 -10t6 -10.5l7 -10t10 -11.5l10 -10l10.5 -10.5t9.5 -8.5q-64 -14 -68 -14q-35 17 -58 48t-23 65q0 41 26 64.5t74 38.5q41 13 59.5 25t18.5 34q0 30 -30.5 49t-85.5 19q-39 0 -87 -13
l3 103q43 13 93 13q91 0 149.5 -50.5t58.5 -124.5zM244 60q0 -33 -22 -54t-57 -21t-57.5 21t-22.5 54t22.5 53t57.5 20t57 -20t22 -53z" />
    <glyph glyph-name="at" unicode="@" horiz-adv-x="843" 
d="M572 203q-20 -102 59 -102q56 0 96 55.5t40 150.5q0 131 -98.5 214.5t-230.5 83.5q-146 0 -249 -107.5t-103 -254.5q0 -141 91 -237.5t231 -96.5q58 0 125 20l12 -38q-72 -23 -139 -23q-158 0 -261.5 108t-103.5 266q0 166 115.5 284.5t281.5 118.5q155 0 264.5 -93.5
t109.5 -244.5q0 -124 -61 -195.5t-146 -71.5q-95 0 -124 79q-51 -60 -120 -60q-61 0 -101.5 46t-40.5 118q0 97 61 163t151 66q41 0 89 -22l101 22zM470 165l37 181q-34 32 -75 32q-51 0 -83.5 -44.5t-32.5 -101.5q0 -44 23.5 -71t58.5 -27q36 0 72 31z" />
    <glyph glyph-name="A" unicode="A" horiz-adv-x="609" 
d="M380 625l225 -625h-123l-52 148h-252l-51 -148h-123l228 625h148zM399 249l-94 271l-95 -271h189z" />
    <glyph glyph-name="B" unicode="B" horiz-adv-x="593" 
d="M426 324q62 -14 97 -52t35 -93q0 -179 -243 -179h-243v625h239q227 0 227 -165q0 -99 -112 -136zM416 444q0 40 -28 61.5t-81 21.5h-115v-170h105q58 0 88.5 23t30.5 64zM435 184q0 84 -131 84h-112v-170h121q122 0 122 86z" />
    <glyph glyph-name="C" unicode="C" horiz-adv-x="607" 
d="M570 591l-38 -106q-76 50 -164 50q-92 0 -147.5 -59.5t-55.5 -160.5q0 -104 55.5 -164.5t149.5 -60.5q90 0 171 56l23 -112q-82 -49 -199 -49q-146 0 -234.5 87t-88.5 239q0 149 89.5 239t236.5 90q114 0 202 -49z" />
    <glyph glyph-name="D" unicode="D" horiz-adv-x="662" 
d="M621 317q0 -147 -90.5 -232t-254.5 -85h-204v625h212q158 0 247.5 -83.5t89.5 -224.5zM499 311q0 105 -57 158t-165 53h-83v-419h89q101 0 158.5 53t57.5 155z" />
    <glyph glyph-name="E" unicode="E" horiz-adv-x="544" 
d="M498 0h-426v625h426v-103h-306v-157h251v-103h-251v-159h306v-103z" />
    <glyph glyph-name="F" unicode="F" horiz-adv-x="518" 
d="M72 0v625h416v-106h-295v-165h240v-105h-240v-249h-121z" />
    <glyph glyph-name="G" unicode="G" horiz-adv-x="657" 
d="M601 44q-104 -59 -234 -59q-146 0 -235.5 88t-89.5 238t89.5 239.5t236.5 89.5q58 0 119 -14.5t102 -39.5l-39 -106q-89 55 -180 55q-93 0 -149 -59.5t-56 -160.5q0 -105 54.5 -166t150.5 -61q63 0 118 25v120h-164v103h277v-292z" />
    <glyph glyph-name="H" unicode="H" horiz-adv-x="685" 
d="M612 0h-121v262h-297v-262h-122v625h122v-257h297v257h121v-625z" />
    <glyph glyph-name="I" unicode="I" horiz-adv-x="269" 
d="M195 0h-121v625h121v-625z" />
    <glyph glyph-name="J" unicode="J" horiz-adv-x="445" 
d="M375 205q0 -105 -51 -162.5t-155 -57.5q-91 0 -157 41l22 105q66 -41 123 -41q51 0 74 29.5t23 93.5v412h121v-420z" />
    <glyph glyph-name="K" unicode="K" horiz-adv-x="587" 
d="M194 338h1l236 287h145l-268 -307l272 -318h-149l-236 286h-1v-286h-122v625h122v-287z" />
    <glyph glyph-name="L" unicode="L" horiz-adv-x="507" 
d="M476 0h-404v625h122v-518h282v-107z" />
    <glyph glyph-name="M" unicode="M" horiz-adv-x="811" 
d="M637 0l-5 501l-163 -492h-128l-164 492l-6 -501h-115l21 625h169l161 -492l161 492h167l20 -625h-118z" />
    <glyph glyph-name="N" unicode="N" horiz-adv-x="689" 
d="M501 170v455h116v-631h-130l-299 460v-454h-116v625h133z" />
    <glyph glyph-name="O" unicode="O" horiz-adv-x="726" 
d="M684 315q0 -144 -91 -237t-230 -93q-142 0 -231.5 87.5t-89.5 238.5q0 144 91.5 236.5t230.5 92.5q141 0 230.5 -87t89.5 -238zM562 311q0 103 -55 165t-146 62q-89 0 -142.5 -61.5t-53.5 -161.5q0 -103 54.5 -165.5t145.5 -62.5q89 0 143 62t54 162z" />
    <glyph glyph-name="P" unicode="P" horiz-adv-x="566" 
d="M532 416q0 -107 -70 -163.5t-197 -57.5l-71 -1v-194h-122v625h202q126 0 192 -57t66 -152zM410 412q0 111 -144 111h-74v-228l78 2q140 3 140 115z" />
    <glyph glyph-name="Q" unicode="Q" horiz-adv-x="726" 
d="M521 29l185 -86l-50 -102l-273 145q-3 0 -10 -0.5t-10 -0.5q-142 0 -231.5 87.5t-89.5 238.5q0 144 91.5 236.5t230.5 92.5q141 0 230.5 -87t89.5 -238q0 -95 -43.5 -170.5t-119.5 -115.5zM562 311q0 103 -55 165t-146 62q-89 0 -142.5 -61.5t-53.5 -161.5
q0 -103 54.5 -166.5t145.5 -63.5q89 0 143 62t54 164z" />
    <glyph glyph-name="R" unicode="R" horiz-adv-x="581" 
d="M194 223v-223h-122v625v0v0v0h1v0h1v0h1h1v0h1h1h1h1h1h1h1h1h1h1h1h1h1h1h1h1h1h1h1h1h1h1h1h1h1h1h1h1h1h1h1h1h1h1h1h2h1h1h1h1h1h1h1h1h2h1h1h1h1h1h2h1h1h1h2h1h1h1h2h1h1h2h1h1h2h1h1h2h1h1h2h1h1h2h1h2h1h1h2h1h2h1h2h1h2h1h2h1h2h1h2h1h2h1h2h1h2h2h1h2h1h2h2h1
h2h1h2h2h1h2h2h1h2h2h1h2h2h1h2h2h1h2h2h2h1h2h2h2h1h2h2h2h2h1h2h2h2h2h2h1h2h2h2h2h2h2h2h1h9q116 0 179 -51t63 -139q0 -66 -35 -112t-100 -68l164 -255h-139l-139 229zM193 319l91 2q58 3 91 29.5t33 76.5q0 96 -136 96h-79v-204z" />
    <glyph glyph-name="S" unicode="S" horiz-adv-x="536" 
d="M260 88q51 0 83.5 23t32.5 60q0 36 -31.5 55.5t-107.5 40.5q-41 11 -69.5 23t-60 33.5t-48 54.5t-16.5 77q0 84 60.5 134.5t163.5 50.5q118 0 215 -55l-30 -103q-90 54 -184 54q-53 0 -79 -20t-26 -54q0 -35 34 -54.5t108 -39.5q41 -11 70.5 -24t59.5 -34.5t45.5 -54
t15.5 -75.5q0 -87 -64.5 -141t-173.5 -54q-130 0 -225 58l28 105q99 -60 199 -60z" />
    <glyph glyph-name="T" unicode="T" horiz-adv-x="581" 
d="M560 518h-209v-518h-121v518h-209v107h539v-107z" />
    <glyph glyph-name="U" unicode="U" horiz-adv-x="659" 
d="M590 248q0 -127 -68 -195t-193 -68q-122 0 -191 65.5t-69 186.5v388h122v-372q0 -161 142 -161q136 0 136 156v0v0v0v0v0v1v0v0v1v0v1v0v1v0v1v1v0v1v1v0v1v1v1v1v1v1v1v1v1v1v1v1v1v1v1v1v1v1v1v1v1v1v1v1v1v1v1v1v1v1v1v1v1v1v1v1v1v1v1v1v1v1v1v1v1v1v1v1v1v1v1v1v1v1
v1v1v1v1v1v1v1v1v1v1v1v2v1v1v1v1v1v1v1v1v2v1v1v1v1v1v2v1v1v1v1v1v2v1v1v1v1v2v1v1v1v2v1v1v1v2v1v1v2v1v1v1v2v1v1v2v1v1v2v1v1v2v1v1v2v1v1v2v1v1v2v1v2v1v1v2v1v2v1v1v2v1v2v1v2v1v2v1v1v2v1v2v1v2v1v2v1v2v1v2v1v2v1v2v1v2v1v2v1v2v1v2v2v1v2v1v2v1v2v1v2v2v1v2v1v2v2
v1v2v1v2v2v1v2v2v1v2v1v2v2v1v2v2v1v2v2v1v2v2v1v2v2v2v1v2v2v1v2v2v2v1v2v2v1v2v2v2v1v2v2v2v1v2v2v2v2v1v2v2v2v2v1v2v2v2v2v1v2v2v2v2v2v1v2v2v2v2v2v1v2v2v2v2v2v2v9h121v-377z" />
    <glyph glyph-name="V" unicode="V" horiz-adv-x="599" 
d="M596 625l-224 -625h-148l-222 625h126l171 -502l171 502h126z" />
    <glyph glyph-name="W" unicode="W" horiz-adv-x="927" 
d="M464 483l-141 -483h-124l-172 625h130l109 -476l130 476h140l132 -476l108 476h124l-172 -625h-126z" />
    <glyph glyph-name="X" unicode="X" horiz-adv-x="609" 
d="M302 235l-153 -235h-138l220 314l-213 311h142l144 -224l149 224h138l-215 -306l222 -319h-143z" />
    <glyph glyph-name="Y" unicode="Y" horiz-adv-x="576" 
d="M566 625l-217 -383v-242h-121v243l-218 382h132l148 -270l145 270h131z" />
    <glyph glyph-name="Z" unicode="Z" horiz-adv-x="551" 
d="M512 0h-485v84l333 435h-327v106h480v-86l-332 -433h331v-106z" />
    <glyph glyph-name="bracketleft" unicode="[" horiz-adv-x="390" 
d="M383 -214h-308v897h308v-89h-203v-718h203v-90z" />
    <glyph glyph-name="backslash" unicode="\" horiz-adv-x="255" 
d="M-30 702h93l243 -901h-93z" />
    <glyph glyph-name="bracketright" unicode="]" horiz-adv-x="391" 
d="M9 -214v90h203v718h-203v89h307v-897h-307z" />
    <glyph glyph-name="asciicircum" unicode="^" horiz-adv-x="396" 
d="M374 523h-83l-90 118h-2l-89 -118h-84l117 187h114z" />
    <glyph glyph-name="underscore" unicode="_" horiz-adv-x="502" 
d="M512 -88h-522v88h522v-88z" />
    <glyph glyph-name="grave" unicode="`" horiz-adv-x="395" 
d="M286 523h-79l-157 183h133z" />
    <glyph glyph-name="a" unicode="a" horiz-adv-x="481" 
d="M309 53h-4q-56 -68 -130 -68q-62 0 -102.5 37.5t-40.5 92.5q0 155 273 164v11q0 47 -21.5 67.5t-70.5 20.5q-67 0 -153 -49l-24 93q87 54 193 54q105 0 150.5 -46.5t43.5 -143.5v-165q0 -26 7 -33t34 -9l-9 -89q-118 -13 -146 63zM305 111v106q-86 -11 -121.5 -30
t-35.5 -56q0 -27 19 -43.5t50 -16.5q51 0 88 40z" />
    <glyph glyph-name="b" unicode="b" horiz-adv-x="545" 
d="M512 235q0 -109 -67 -179t-166 -70q-55 0 -103 16l-113 -17v683l118 16v-267q61 59 129 59q91 0 146.5 -67t55.5 -174zM392 230q0 68 -31 107.5t-85 39.5q-52 0 -95 -38v0v0v0v0v-1v0v-1v0v-1v-1v0v-1v-1v-1v-1v-1v-1v-1v-1v-1v-1v-1v-1v-1v-1v-1v-1v-1v-1v-1v-1v-1v-1
v-1v-1v-1v-1v-1v-1v-1v-1v-1v-1v-1v-1v-1v-1v-1v-1v-1v-1v-1v-1v-1v-1v-2v-1v-1v-1v-1v-1v-1v-2v-1v-1v-1v-1v-2v-1v-1v-1v-2v-1v-1v-1v-2v-1v-1v-2v-1v-1v-2v-1v-1v-2v-1v-1v-2v-1v-1v-2v-1v-2v-1v-1v-2v-1v-2v-1v-2v-1v-2v-1v-1v-2v-1v-2v-1v-2v-1v-2v-2v-1v-2v-1v-2v-1
v-2v-1v-2v-2v-1v-2v-1v-2v-2v-1v-2v-1v-2v-2v-1v-2v-2v-1v-2v-2v-1v-2v-2v-1v-2v-2v-2v-1v-2v-2v-1v-2v-2v-2v-1v-2v-2v-2v-2v-1v-2v-2v-2v-2v-1v-2v-2v-2v-2v-1v-2v-2v-2v-2v-8q34 -26 87 -26q58 0 91 42t33 108z" />
    <glyph glyph-name="c" unicode="c" horiz-adv-x="470" 
d="M435 23q-63 -38 -160 -38q-112 0 -175.5 65t-63.5 179q0 112 67 179.5t176 67.5q93 0 159 -39l-25 -95q-59 37 -125 37q-63 0 -97 -39.5t-34 -107.5q0 -70 36 -109.5t95 -39.5q72 0 128 36z" />
    <glyph glyph-name="d" unicode="d" horiz-adv-x="548" 
d="M367 461v207l118 16v-684h-118v45q-62 -60 -130 -60q-91 0 -146 67t-55 175q0 109 67 179t166 70q50 0 98 -15zM367 355q-37 27 -87 27q-58 0 -91 -42t-33 -108q0 -67 31.5 -107t84.5 -40q54 0 95 38v0v0v0v0v1v0v0v1v0v1v0v1v1v0v1v1v1v1v1v1v1v1v1v1v1v1v1v1v1v1v1v1v1
v1v1v1v1v1v1v1v1v1v1v1v1v1v1v2v1v1v1v1v1v1v1v1v1v1v1v2v1v1v1v1v1v2v1v1v1v1v2v1v1v1v2v1v1v2v1v1v1v2v1v1v2v1v1v2v1v2v1v1v2v1v2v1v1v2v1v2v1v2v1v2v1v2v1v2v1v2v1v2v1v2v1v2v1v2v1v2v2v1v2v1v2v1v2v2v1v2v2v1v2v2v1v2v2v1v2v2v1v2v2v1v2v2v2v1v2v2v2v1v2v2v2v1v2v2v2v2
v1v2v2v2v2v1v2v2v2v2v2v9z" />
    <glyph glyph-name="e" unicode="e" horiz-adv-x="499" 
d="M152 208v-3q4 -57 40.5 -91.5t97.5 -34.5q76 0 144 42l15 -98q-70 -38 -167 -38q-111 0 -178.5 65.5t-67.5 175.5q0 112 67 181t171 69q90 0 140 -50.5t50 -136.5q0 -44 -10 -77zM155 277l198 1v8q0 101 -88 101q-46 0 -75.5 -32t-34.5 -78z" />
    <glyph glyph-name="f" unicode="f" horiz-adv-x="343" 
d="M360 673l-2 -11q-3 -10 -6.5 -25t-7.5 -30t-6 -25l-3 -10q-42 19 -75 19q-32 0 -46.5 -19.5t-14.5 -62.5v-51h137l-3 -97h-131v-361h-118v360l-80 6l4 75l75 22l1 49q4 184 167 184q56 0 109 -23z" />
    <glyph glyph-name="g" unicode="g" horiz-adv-x="502" 
d="M107 -19q-31 11 -50.5 32t-19.5 48q0 31 23.5 57.5t61.5 39.5q-39 20 -61.5 57.5t-22.5 84.5q0 74 55 125t148 51q64 0 130 -29l124 11l5 -103l-88 15q21 -23 21 -72q0 -71 -54.5 -119.5t-138.5 -48.5q-30 0 -63 8q-36 -14 -36 -40q0 -19 20.5 -27.5t74.5 -8.5v0h1h1h1h1
h1h1h2h1h1h1h1h2h1h2h1h2h1h2h2h1h2h2h2h2h2h2h2h8q207 0 207 -127q0 -80 -78.5 -132t-190.5 -52q-95 0 -157 34t-62 94q0 38 27 66t77 36zM152 299q0 -42 24 -67t66 -25q39 0 61 26t22 70q0 43 -22.5 68t-65.5 25q-39 0 -62 -26.5t-23 -70.5zM168 -35q-58 -21 -58 -62
q0 -32 36.5 -52.5t94.5 -20.5q62 0 102.5 21.5t40.5 56.5q0 31 -30 42t-98 11q-50 0 -88 4z" />
    <glyph glyph-name="h" unicode="h" horiz-adv-x="541" 
d="M481 0h-118v281q0 49 -19 70t-58 21q-60 0 -105 -43v-329h-118v668l118 16v-281q67 73 156 73q67 0 105.5 -42.5t38.5 -116.5v-317z" />
    <glyph glyph-name="i" unicode="i" horiz-adv-x="244" 
d="M195 616q0 -33 -19 -52t-54 -19q-34 0 -53 19t-19 52q0 32 19 51.5t53 19.5q35 0 54 -19.5t19 -51.5zM181 0h-118v458l118 17v-475z" />
    <glyph glyph-name="j" unicode="j" horiz-adv-x="242" 
d="M195 616q0 -33 -19 -52t-54 -19q-34 0 -53 19t-19 52q0 32 19 51.5t53 19.5q35 0 54 -19.5t19 -51.5zM54 -245l-72 80q44 21 62.5 56t18.5 107v0v0v0v0v0v0v0v0v0v1v0v0v1v0v1v0v1v0v1v0v1v0v1v0v1v1v1v1v0v1v1v1v1v1v1v1v1v1v1v1v1v1v1v1v1v1v1v1v1v1v1v1v1v1v1v1v1v1v1
v1v1v1v1v1v1v1v1v1v1v1v1v1v1v1v1v1v1v1v1v1v1v1v1v1v1v1v1v1v1v1v1v1v1v1v1v1v1v1v1v1v1v1v1v1v1v1v1v2v1v1v1v1v1v1v1v1v2v1v1v1v1v1v1v2v1v1v1v1v1v2v1v1v1v1v2v1v1v1v2v1v1v1v1v2v1v1v1v2v1v1v2v1v1v1v2v1v1v2v1v1v1v2v1v1v2v1v1v2v1v1v2v1v1v2v1v2v1v1v2v1v1v2v1v2v1v1
v2v1v2v1v1v2v1v2v1v2v1v1v2v1v2v1v2v1v2v1v2v1v2v1v2v1v1v2v1v2v1v2v2v1v2v1v2v1v2v1v2v1v2v1v2v1v2v2v1v2v1v2v1v2v2v1v2v1v2v2v1v2v1v2v2v1v2v1v2v2v1v2v2v1v2v1v2v2v1v2v2v1v2v2v1v2v2v1v2v2v1v2v2v2v1v2v2v1v2v2v1v2v2v2v1v2v2v2v1v2v2v2v1v2v2v2v1v2v2v2v1v2v2v2v2v1v2
v2v2v2v1v2v2v2v2v1v2v2v2v2v2v1v2v2v2v2v2v2v1v2v2v2v2v2v2v2v1v2v2v9l118 17v0v0v0v0v-1v0v0v0v-1v0v0v-1v0v-1v0v-1v0v-1v0v-1v0v-1v-1v0v-1v-1v-1v-1v-1v-1v-1v-1v-1v-1v-1v-1v-1v-1v-1v-1v-1v-1v-1v-1v-1v-1v-1v-1v-1v-1v-1v-1v-1v-1v-1v-1v-1v-1v-1v-1v-1v-1v-1v-1v-1
v-1v-1v-1v-1v-1v-1v-1v-1v-1v-1v-1v-1v-1v-1v-1v-1v-1v-1v-1v-1v-1v-1v-1v-1v-1v-1v-1v-1v-1v-1v-1v-1v-1v-1v-1v-1v-1v-1v-1v-1v-2v-1v-1v-1v-1v-1v-1v-1v-1v-2v-1v-1v-1v-1v-1v-1v-2v-1v-1v-1v-1v-2v-1v-1v-1v-1v-2v-1v-1v-1v-1v-2v-1v-1v-1v-2v-1v-1v-1v-2v-1v-1v-1v-2
v-1v-1v-2v-1v-1v-1v-2v-1v-1v-2v-1v-1v-2v-1v-1v-2v-1v-1v-2v-1v-1v-2v-1v-1v-2v-1v-2v-1v-1v-2v-1v-2v-1v-1v-2v-1v-2v-1v-1v-2v-1v-2v-1v-2v-1v-2v-1v-1v-2v-1v-2v-1v-2v-1v-2v-1v-2v-1v-2v-1v-2v-1v-2v-1v-2v-1v-2v-1v-2v-1v-2v-1v-2v-2v-1v-2v-1v-2v-1v-2v-1v-2v-2v-1
v-2v-1v-2v-2v-1v-2v-1v-2v-2v-1v-2v-1v-2v-2v-1v-2v-2v-1v-2v-1v-2v-2v-1v-2v-2v-1v-2v-2v-1v-2v-2v-1v-2v-2v-2v-1v-2v-2v-1v-2v-2v-1v-2v-2v-2v-1v-2v-2v-2v-1v-2v-2v-2v-1v-2v-2v-2v-1v-2v-2v-2v-2v-1v-2v-2v-2v-2v-1v-2v-2v-2v-2v-1v-2v-2v-2v-2v-2v-2v-1v-2v-2v-2v-2
v-2v-2v-1v-2v-2v-2v-2v-2v-2v-2v-2v-2v-2v-2v-1v-2v-2v-2v-2v-2v-2v-2v-2v-2v-2v-2v-2v-2v-2v-2v-3v-2v-8q0 -101 -29 -156.5t-98 -84.5z" />
    <glyph glyph-name="k" unicode="k" horiz-adv-x="494" 
d="M183 222h-2v-222h-118v668l118 16v-428h2l165 205h141l-191 -219l192 -242h-141z" />
    <glyph glyph-name="l" unicode="l" horiz-adv-x="244" 
d="M181 0h-118v668l118 16v-684z" />
    <glyph glyph-name="m" unicode="m" horiz-adv-x="819" 
d="M760 0h-118v280q0 49 -19 70.5t-57 21.5q-49 0 -96 -41v-28v-303h-118v280q0 50 -18.5 71t-56.5 21q-56 0 -96 -38v-334h-118v459l118 16v-65q66 66 147 66q91 0 126 -79q73 79 164 79q66 0 104 -42.5t38 -117.5v-316z" />
    <glyph glyph-name="n" unicode="n" horiz-adv-x="541" 
d="M481 0h-118v281q0 50 -19.5 70.5t-60.5 20.5q-57 0 -102 -43v-329h-118v459l118 16v-73q67 74 152 74q70 0 109 -42.5t39 -116.5v-317z" />
    <glyph glyph-name="o" unicode="o" horiz-adv-x="544" 
d="M508 231q0 -111 -68 -178.5t-171 -67.5t-168 66t-65 179q0 112 67.5 179.5t171.5 67.5q103 0 168 -66.5t65 -179.5zM391 230q0 68 -32 110t-88 42q-57 0 -88 -41.5t-31 -109.5q0 -67 32 -108.5t89 -41.5q56 0 87 40.5t31 108.5z" />
    <glyph glyph-name="p" unicode="p" horiz-adv-x="548" 
d="M181 417q61 59 129 59q91 0 146.5 -67t55.5 -174q0 -109 -67 -179t-166 -70q-56 0 -98 13v-219h-118v679l118 16v-58zM181 339v0v0v0v0v-1v0v-1v0v-1v-1v0v-1v-1v-1v-1v-1v-1v-1v-1v-1v-1v-1v-1v-1v-1v-1v-1v-1v-1v-1v-1v-1v-1v-1v-1v-1v-1v-1v-1v-1v-1v-1v-1v-1v-1v-1
v-1v-1v-1v-1v-1v-1v-1v-1v-1v-2v-1v-1v-1v-1v-1v-1v-2v-1v-1v-1v-1v-2v-1v-1v-1v-2v-1v-1v-1v-2v-1v-1v-2v-1v-1v-2v-1v-1v-2v-1v-1v-2v-1v-1v-2v-1v-2v-1v-1v-2v-1v-2v-1v-2v-1v-2v-1v-1v-2v-1v-2v-1v-2v-1v-2v-2v-1v-2v-1v-2v-1v-2v-1v-2v-2v-1v-2v-1v-2v-2v-1v-2v-1v-2
v-2v-1v-2v-2v-1v-2v-2v-1v-2v-2v-1v-2v-2v-2v-1v-2v-2v-1v-2v-2v-2v-1v-2v-2v-2v-2v-1v-2v-2v-2v-2v-1v-2v-2v-2v-2v-1v-2v-2v-2v-2v-8q34 -26 87 -26q58 0 91 42t33 108q0 68 -31 107.5t-85 39.5q-52 0 -95 -38z" />
    <glyph glyph-name="q" unicode="q" horiz-adv-x="548" 
d="M485 -220h-118v265q-62 -60 -130 -60q-91 0 -146 67t-55 175q0 109 67 179t166 70q60 0 114 -20l102 19v-695zM367 355q-38 28 -87 28q-58 0 -91 -42.5t-33 -108.5q0 -68 31.5 -108.5t84.5 -40.5q52 0 95 40v0v0v0v0v1v0v0v1v0v1v0v1v1v0v1v1v1v1v1v1v1v1v1v1v1v1v1v1v1
v1v1v1v1v1v1v1v1v1v1v1v1v1v1v1v1v1v1v2v1v1v1v1v1v1v1v1v1v1v1v2v1v1v1v1v1v2v1v1v1v1v2v1v1v1v2v1v1v2v1v1v1v2v1v1v2v1v1v2v1v2v1v1v2v1v2v1v1v2v1v2v1v2v1v2v1v2v1v2v1v2v1v2v1v2v1v2v1v2v1v2v2v1v2v1v2v1v2v2v1v2v2v1v2v2v1v2v2v1v2v2v1v2v2v1v2v2v2v1v2v2v2v1v2v2v2v1
v2v2v2v2v1v2v2v2v2v1v2v2v2v2v2v9z" />
    <glyph glyph-name="r" unicode="r" horiz-adv-x="391" 
d="M181 285v-285h-118v458l118 17v-75q45 76 120 76q47 0 82 -21l-26 -106q-33 18 -66 18q-65 0 -110 -82z" />
    <glyph glyph-name="s" unicode="s" horiz-adv-x="431" 
d="M398 134q0 -66 -52.5 -108t-139.5 -42q-103 0 -179 43l26 92q76 -43 156 -43q35 0 55.5 13.5t20.5 37.5q0 25 -23 38t-70 24q-74 17 -115 49.5t-41 93.5q0 65 50.5 104.5t133.5 39.5q96 0 168 -37l-26 -92q-74 38 -145 38q-69 0 -69 -46q0 -24 22.5 -36t70.5 -24
q75 -18 116 -50.5t41 -94.5z" />
    <glyph glyph-name="t" unicode="t" horiz-adv-x="358" 
d="M333 3q-53 -18 -107 -18q-79 0 -117.5 37.5t-35.5 118.5l7 217l-72 8l3 75l72 23l2 102h114l-2 -108h130l-3 -97h-134l-6 -213q-1 -63 61 -63q30 0 72 14z" />
    <glyph glyph-name="u" unicode="u" horiz-adv-x="537" 
d="M59 461h118v-281q0 -49 19.5 -69.5t58.5 -20.5q59 0 101 40v331h118v-458l-118 -16v68q-65 -70 -152 -70q-68 0 -106.5 42.5t-38.5 116.5v317z" />
    <glyph glyph-name="v" unicode="v" horiz-adv-x="478" 
d="M479 461l-178 -462h-126l-176 462h126l116 -337l111 337h127z" />
    <glyph glyph-name="w" unicode="w" horiz-adv-x="728" 
d="M264 -2h-115l-137 463h123l80 -324l92 323h118l99 -321l69 322h125l-135 -463h-116l-103 324z" />
    <glyph glyph-name="x" unicode="x" horiz-adv-x="455" 
d="M457 0h-128l-101 164l-100 -164h-130l159 236l-153 225h128l95 -149l92 149h129l-149 -223z" />
    <glyph glyph-name="y" unicode="y" horiz-adv-x="474" 
d="M476 461l-176 -452l-27 -72q-34 -92 -75.5 -128t-107.5 -36q-58 0 -117 27l35 97q46 -22 73 -22q26 0 42.5 16t34.5 62l20 53l-180 455h127l115 -330l110 330h126z" />
    <glyph glyph-name="z" unicode="z" horiz-adv-x="434" 
d="M412 0h-392v81l241 280h-232v100h383v-79l-242 -281h242v-101z" />
    <glyph glyph-name="braceleft" unicode="{" horiz-adv-x="369" 
d="M353 -221q-129 5 -192 34t-63 101q0 43 19.5 106t19.5 89q0 38 -28.5 55.5t-93.5 22.5l-3 52l3 52q66 5 94 22t28 56q0 26 -19.5 89.5t-19.5 106.5q0 72 63.5 101t191.5 34v-75q-79 -6 -112 -22t-33 -48q0 -23 18.5 -82t18.5 -102q0 -54 -37.5 -88.5t-102.5 -38.5v-10
q65 -4 102.5 -38.5t37.5 -88.5q0 -43 -18.5 -100.5t-18.5 -80.5q0 -33 33 -50t112 -22v-75z" />
    <glyph glyph-name="bar" unicode="|" horiz-adv-x="247" 
d="M73 -199v901h101v-901h-101z" />
    <glyph glyph-name="braceright" unicode="}" horiz-adv-x="369" 
d="M357 239l-3 -52q-66 -5 -94.5 -22.5t-28.5 -55.5q0 -26 20.5 -89t20.5 -106q0 -72 -63 -101t-193 -34v75q79 5 112 22t33 50q0 23 -18 80.5t-18 100.5q0 54 37 88.5t103 38.5v10q-66 4 -103 38.5t-37 88.5q0 43 18 102t18 82q0 32 -33 48t-112 22v75q129 -5 192.5 -34
t63.5 -101q0 -43 -20.5 -107t-20.5 -89q0 -39 28.5 -56t94.5 -22z" />
    <glyph glyph-name="asciitilde" unicode="~" horiz-adv-x="396" 
d="M381 321q-8 -75 -32.5 -107t-70.5 -32q-35 0 -87 31.5t-66 31.5q-26 0 -34 -57v0h-1h-1h-1h-1h-1h-1h-1h-1h-1h-1h-1h-1h-1h-2h-1h-1h-1h-1h-2h-1h-1h-2h-1h-2h-1h-2h-1h-2h-1h-2h-1h-2h-2h-1h-2h-2h-2h-2h-1h-2h-2h-2h-2h-2h-2h-10q8 76 33 108t71 32q35 0 87 -32
t65 -32q27 0 34 57v0h1h1h1h1h1h1h1h1h1h1h1h1h1h1h2h1h1h1h1h2h1h1h2h1h2h1h2h1h2h1h2h2h1h2h2h1h2h2h2h1h2h2h2h2h2h2h9z" />
    <glyph glyph-name="nbspace" unicode="&#xa0;" horiz-adv-x="156" 
 />
    <glyph glyph-name="exclamdown" unicode="&#xa1;" horiz-adv-x="290" 
d="M67 564q0 32 22 53.5t55 21.5t55.5 -21.5t22.5 -53.5t-22.5 -52.5t-55.5 -20.5t-55 20.5t-22 52.5zM183 419l30 -447h-137l29 447h78z" />
    <glyph glyph-name="cent" unicode="&#xa2;" horiz-adv-x="463" 
d="M350 469q50 -9 88 -32l-25 -95q-37 23 -78 32l-11 -73l-22 -146l-11 -73q71 2 125 37l19 -96q-63 -38 -159 -38l-17 -115h-59l18 120q-85 17 -133.5 79.5t-48.5 159.5q0 112 66.5 179.5t175.5 67.5h15l14 94h58zM278 380q-60 -3 -92 -42.5t-32 -105.5q0 -110 80 -141z
" />
    <glyph glyph-name="sterling" unicode="&#xa3;" horiz-adv-x="539" 
d="M118 336q-4 62 -4 89q0 103 59 159t156 56q93 0 164 -46q-25 -94 -25 -96q-63 44 -133 44q-53 0 -79.5 -32t-26.5 -85q0 -21 4 -89h183l-4 -62h-174q2 -50 2 -74q0 -38 -7 -66q60 -49 124 -49q74 0 91 101l86 -16q-6 -90 -53 -137.5t-114 -47.5q-84 0 -168 78
q-46 -57 -152 -80l-26 92q61 16 85 40t24 72q0 35 -5 87h-92l-4 62h89z" />
    <glyph glyph-name="currency" unicode="&#xa4;" horiz-adv-x="465" 
d="M436 501l-61 -61q20 -38 20 -81q0 -44 -20 -82l66 -66l-60 -60l-65 65q-36 -21 -83 -21q-53 0 -84 19l-59 -59l-59 59l59 59q-20 33 -20 86q0 51 20 84l-62 61l60 60l62 -62q36 21 83 21t86 -21l58 58zM318 359q0 37 -23 62.5t-62 25.5t-62.5 -25.5t-23.5 -62.5
t23.5 -62.5t62.5 -25.5q38 0 61.5 25.5t23.5 62.5z" />
    <glyph glyph-name="yen" unicode="&#xa5;" horiz-adv-x="578" 
d="M231 253h-174l-4 62h155l-197 310h132l146 -255l146 255h129l-195 -310h154l-3 -62h-175v-72h175l3 -62h-176v-119h-118v119h-176l4 62h174v72z" />
    <glyph glyph-name="brokenbar" unicode="&#xa6;" horiz-adv-x="247" 
d="M73 307v335h101v-335h-101zM73 -139v335h101v-335h-101z" />
    <glyph glyph-name="section" unicode="&#xa7;" horiz-adv-x="499" 
d="M482 297q0 -42 -24.5 -73t-68.5 -48q51 -36 51 -91q0 -66 -52.5 -108.5t-139.5 -42.5q-105 0 -179 42l26 93q73 -43 155 -43q35 0 56 13.5t21 37.5q0 13 -9 23.5t-30 19t-36.5 13l-48.5 13.5l-52 14.5t-47 17.5t-43 25t-26.5 34.5t-11.5 47.5q0 42 28 73.5t73 47.5
q-51 35 -51 92q0 65 50.5 105t133.5 40q96 0 168 -37l-26 -92q-72 37 -145 37q-69 0 -69 -45q0 -6 2 -11t6.5 -9.5t9 -8.5t13 -7.5t15 -6.5t18 -6.5l18.5 -5.5l21 -6l21 -6q37 -11 62 -20.5t53.5 -26t43 -40.5t14.5 -55zM383 272q0 21 -21.5 37t-48.5 24.5l-71 22.5t-70 25
q-50 -34 -50 -70q0 -26 31 -43t93.5 -35t91.5 -31q45 28 45 70z" />
    <glyph glyph-name="dieresis" unicode="&#xa8;" horiz-adv-x="396" 
d="M379 598q0 -32 -19.5 -51.5t-50.5 -19.5t-50.5 19.5t-19.5 51.5q0 31 19.5 50t50.5 19t50.5 -19t19.5 -50zM160 598q0 -32 -19.5 -51.5t-50.5 -19.5t-50.5 20t-19.5 51t19.5 50t50.5 19t50.5 -19t19.5 -50z" />
    <glyph glyph-name="copyright" unicode="&#xa9;" horiz-adv-x="763" 
d="M381 -37q-144 0 -246 102t-102 246q0 145 102 247.5t246 102.5q145 0 247 -102.5t102 -247.5q0 -144 -102 -246t-247 -102zM698 311q0 132 -93 226t-224 94q-130 0 -223 -94.5t-93 -225.5t93 -225t223 -94q131 0 224 94t93 225zM523 476l-29 -77q-41 26 -92 26
q-48 0 -76 -30t-28 -82q0 -53 28 -84t77 -31q51 0 96 30l20 -82q-47 -26 -120 -26q-88 0 -140.5 50t-52.5 140q0 89 53 141t143 52q69 0 121 -27z" />
    <glyph glyph-name="ordfeminine" unicode="&#xaa;" horiz-adv-x="374" 
d="M366 267l-97 -21q-23 27 -33 57h-2q-48 -56 -108 -56q-47 0 -76.5 29t-29.5 74q0 58 50.5 94t160.5 40v18q0 59 -63 59q-59 0 -116 -44l-30 72q71 52 158 52q145 0 145 -136v-134q0 -52 41 -104zM231 345v86q-122 -7 -122 -65q0 -23 14.5 -35.5t37.5 -12.5q43 0 70 27z
" />
    <glyph glyph-name="guillemotleft" unicode="&#xab;" horiz-adv-x="593" 
d="M569 97l-16 -79l-259 161v109l259 161l16 -79l-167 -135v-2zM285 105l-17 -76l-250 153v104l250 153l17 -76l-161 -128v-2z" />
    <glyph glyph-name="logicalnot" unicode="&#xac;" horiz-adv-x="505" 
d="M466 341v-230h-93v136h-333l3 94h423z" />
    <glyph glyph-name="uni00AD" unicode="&#xad;" horiz-adv-x="341" 
d="M312 192h-282v101h282v-101z" />
    <glyph glyph-name="registered" unicode="&#xae;" horiz-adv-x="763" 
d="M381 -37q-144 0 -246 102t-102 246q0 145 102 247.5t246 102.5q145 0 247 -102.5t102 -247.5q0 -144 -102 -246t-247 -102zM698 311q0 132 -93 226t-224 94q-130 0 -223 -94.5t-93 -225.5t93 -225t223 -94q131 0 224 94t93 225zM329 254v-121h-91v365h154q71 0 110 -31
t39 -86q0 -78 -70 -105l87 -143h-100l-71 124zM328 316l50 1q71 1 71 58q0 54 -72 54h-49v-113z" />
    <glyph glyph-name="macron" unicode="&#xaf;" horiz-adv-x="396" 
d="M359 544h-319l8 69h303z" />
    <glyph glyph-name="degree" unicode="&#xb0;" horiz-adv-x="378" 
d="M353 475q0 -69 -45 -116.5t-120 -47.5q-73 0 -118.5 48t-45.5 116q0 69 45.5 117t118.5 48q75 0 120 -47.5t45 -117.5zM300 475q0 49 -30.5 81.5t-81.5 32.5q-50 0 -80 -32.5t-30 -81.5q0 -47 30 -79.5t80 -32.5q51 0 81.5 32.5t30.5 79.5z" />
    <glyph glyph-name="plusminus" unicode="&#xb1;" horiz-adv-x="505" 
d="M469 253h-167v-134h-96v134h-169l3 94h166v134h96v-134h164zM469 0h-432l3 94h426z" />
    <glyph glyph-name="twosuperior" unicode="&#xb2;" horiz-adv-x="330" 
d="M296 273h-273l-2 64q120 102 138 121q38 40 38 73q0 23 -15.5 37t-42.5 14q-47 0 -88 -38q-1 0 -9 16l-15.5 32t-6.5 16q56 47 135 47q63 0 99 -33t36 -84q0 -43 -34.5 -81t-129.5 -112q-1 0 41 0h85h42z" />
    <glyph glyph-name="threesuperior" unicode="&#xb3;" horiz-adv-x="330" 
d="M185 469q56 1 86.5 -24.5t30.5 -64.5q0 -54 -44.5 -85t-115.5 -31q-65 0 -120 25l14 67q56 -23 102 -23q34 0 55.5 12t21.5 36q0 21 -19.5 34.5t-58.5 13.5q-21 -1 -61 -6v61q63 11 92 25t29 38q0 38 -54 38q-50 0 -92 -32l-28 65q55 37 129 37q62 0 98 -24.5t36 -69.5
q0 -68 -101 -92z" />
    <glyph glyph-name="acute" unicode="&#xb4;" horiz-adv-x="395" 
d="M349 706l-157 -183h-78l102 183h133z" />
    <glyph glyph-name="mu" unicode="&#xb5;" horiz-adv-x="541" 
d="M181 461v-277q0 -51 25 -72.5t60 -21.5t64.5 22.5t29.5 76.5v272h118v-461h-118v48q-12 -27 -38 -43.5t-55 -16.5q-58 0 -86 48v-269h-118v694h118z" />
    <glyph glyph-name="mu" unicode="&#x3bc;" horiz-adv-x="541" 
d="M181 461v-277q0 -51 25 -72.5t60 -21.5t64.5 22.5t29.5 76.5v272h118v-461h-118v48q-12 -27 -38 -43.5t-55 -16.5q-58 0 -86 48v-269h-118v694h118z" />
    <glyph glyph-name="paragraph" unicode="&#xb6;" horiz-adv-x="544" 
d="M360 230q-26 -4 -68 -4q-124 0 -187.5 53t-63.5 145q0 96 69 148.5t191 52.5h-1v0v0v0v0v0h1v0h1v0h1h1h1h1h1h1h1h1h1h1h1h1h1h1h1h1h1h1h1h1h1h1h1h1h2h1h1h1h1h1h1h1h1h1h2h1h1h1h1h1h2h1h1h1h2h1h1h2h1h1h2h1h1h2h1h2h1h1h2h1h2h1h2h1h1h2h1h2h1h2h2h1h2h1h2h1h2h2h1
h2h1h2h2h1h2h2h1h2h2h1h2h2h1h2h2h2h1h2h2h2h1h2h2h2h2h1h2h2h2h9v-692h-101v297z" />
    <glyph glyph-name="periodcentered" unicode="&#xb7;" horiz-adv-x="247" 
d="M204 242q0 -33 -22 -55.5t-56 -22.5q-35 0 -57.5 22.5t-22.5 55.5t22.5 55t57.5 22q34 0 56 -22t22 -55z" />
    <glyph glyph-name="cedilla" unicode="&#xb8;" horiz-adv-x="396" 
d="M194 -59q57 -2 91 -26t34 -65q0 -100 -181 -122l-7 61q111 7 111 54q0 53 -118 38l-9 47l117 111h67q-93 -89 -105 -98z" />
    <glyph glyph-name="onesuperior" unicode="&#xb9;" horiz-adv-x="330" 
d="M143 273v288l-94 -19l-3 74l193 37v-380h-96z" />
    <glyph glyph-name="ordmasculine" unicode="&#xba;" horiz-adv-x="437" 
d="M407 443q0 -89 -53.5 -142.5t-136.5 -53.5t-135.5 53.5t-52.5 142.5t54 143t138 54q83 0 134.5 -53.5t51.5 -143.5zM313 442q0 55 -25.5 89.5t-69.5 34.5q-45 0 -69.5 -33.5t-24.5 -88.5t25 -89t70 -34t69.5 33t24.5 88z" />
    <glyph glyph-name="guillemotright" unicode="&#xbb;" horiz-adv-x="598" 
d="M580 182l-249 -153l-18 76l161 128v2l-161 128l18 76l249 -153v-104zM305 179l-260 -161l-16 79l167 136v2l-167 135l16 79l260 -161v-109z" />
    <glyph glyph-name="onequarter" unicode="&#xbc;" horiz-adv-x="715" 
d="M707 -54h-52v-89h-82v89h-172l-5 59l150 229h109v-223h50zM575 10v157l-101 -157h101zM695 625l-545 -741h-89l545 741h89zM143 273v288l-94 -19l-3 74l193 37v-380h-96z" />
    <glyph glyph-name="onehalf" unicode="&#xbd;" horiz-adv-x="715" 
d="M680 625l-545 -741h-89l545 741h89zM143 273v288l-94 -19l-3 74l193 37v-380h-96zM681 -143h-273l-2 64q120 102 138 121q38 40 38 73q0 23 -15.5 37t-42.5 14q-47 0 -88 -38q-1 0 -9 16l-15.5 32t-6.5 16q56 47 135 47q63 0 99 -33t36 -84q0 -43 -34.5 -81t-129.5 -112
q-1 0 41 0h84h43z" />
    <glyph glyph-name="threequarters" unicode="&#xbe;" horiz-adv-x="715" 
d="M707 -54h-52v-89h-82v89h-172l-5 59l150 229h109v-223h50zM575 10v157l-101 -157h101zM695 625l-545 -741h-89l545 741h89zM185 469q56 1 86.5 -24.5t30.5 -64.5q0 -54 -44.5 -85t-115.5 -31q-65 0 -120 25l14 67q56 -23 102 -23q34 0 55.5 12t21.5 36q0 21 -19.5 34.5
t-58.5 13.5q-21 -1 -61 -6v61q63 11 92 25t29 38q0 38 -54 38q-50 0 -92 -32l-28 65q55 37 129 37q62 0 98 -24.5t36 -69.5q0 -68 -101 -92z" />
    <glyph glyph-name="questiondown" unicode="&#xbf;" horiz-adv-x="387" 
d="M142 564q0 34 22 54.5t57 20.5t57.5 -20.5t22.5 -54.5q0 -33 -22.5 -53t-57.5 -20t-57 20t-22 53zM35 161q0 57 30 87t82 48q27 10 38 14.5t22.5 14.5t12.5 22q0 20 -54 71q63 13 68 13q35 -16 58 -47t23 -65q0 -42 -26 -65.5t-74 -38.5q-42 -13 -60 -24.5t-18 -34.5
q0 -30 31 -49t85 -19q44 0 86 14l-3 -103q-38 -14 -93 -14q-90 0 -149 51t-59 125z" />
    <glyph glyph-name="Agrave" unicode="&#xc0;" horiz-adv-x="609" 
d="M380 625l225 -625h-123l-52 148h-252l-51 -148h-123l228 625h148zM399 249l-94 271l-95 -271h189zM346 677h-79l-157 183h133z" />
    <glyph glyph-name="Aacute" unicode="&#xc1;" horiz-adv-x="609" 
d="M380 625l225 -625h-123l-52 148h-252l-51 -148h-123l228 625h148zM399 249l-94 271l-95 -271h189zM496 860l-157 -183h-78l102 183h133z" />
    <glyph glyph-name="Acircumflex" unicode="&#xc2;" horiz-adv-x="609" 
d="M380 625l225 -625h-123l-52 148h-252l-51 -148h-123l228 625h148zM399 249l-94 271l-95 -271h189zM480 677h-83l-90 118h-2l-89 -118h-84l117 187h114z" />
    <glyph glyph-name="Atilde" unicode="&#xc3;" horiz-adv-x="609" 
d="M380 625l225 -625h-123l-52 148h-252l-51 -148h-123l228 625h148zM399 249l-94 271l-95 -271h189zM487 820q-8 -75 -32.5 -107t-70.5 -32q-35 0 -87 31.5t-66 31.5q-26 0 -34 -57v0h-1h-1h-1h-1h-1h-1h-1h-1h-1h-1h-1h-1h-1h-2h-1h-1h-1h-1h-2h-1h-1h-2h-1h-2h-1h-2h-1
h-2h-1h-2h-1h-2h-2h-1h-2h-2h-2h-2h-1h-2h-2h-2h-2h-2h-2h-10q8 76 33 108t71 32q35 0 87 -32t65 -32q27 0 34 57v0h1h1h1h1h1h1h1h1h1h1h1h1h1h1h2h1h1h1h1h2h1h1h2h1h2h1h2h1h2h1h2h2h1h2h2h1h2h2h2h1h2h2h2h2h2h2h9z" />
    <glyph glyph-name="Adieresis" unicode="&#xc4;" horiz-adv-x="609" 
d="M380 625l225 -625h-123l-52 148h-252l-51 -148h-123l228 625h148zM399 249l-94 271l-95 -271h189zM482 752q0 -32 -19.5 -51.5t-50.5 -19.5t-50.5 19.5t-19.5 51.5q0 31 19.5 50t50.5 19t50.5 -19t19.5 -50zM263 752q0 -32 -19.5 -51.5t-50.5 -19.5t-50.5 20t-19.5 51
t19.5 50t50.5 19t50.5 -19t19.5 -50z" />
    <glyph glyph-name="Aring" unicode="&#xc5;" horiz-adv-x="609" 
d="M222 599q-49 31 -49 87q0 49 36.5 81.5t95.5 32.5q60 0 95.5 -32.5t36.5 -81.5q2 -55 -48 -87l216 -599h-123l-52 148h-252l-51 -148h-123zM383 687q0 29 -21.5 48.5t-56.5 19.5q-34 0 -55 -19.5t-21 -48.5t21 -48.5t55 -19.5q35 0 56.5 19.5t21.5 48.5zM399 249l-94 271
l-95 -271h189z" />
    <glyph glyph-name="AE" unicode="&#xc6;" horiz-adv-x="865" 
d="M201 148l-77 -148h-132l331 625h502v-103h-307v-157h255v-103h-255v-159h307v-103h-427v148h-197zM251 251h147v284z" />
    <glyph glyph-name="Ccedilla" unicode="&#xc7;" horiz-adv-x="607" 
d="M318 -12q-127 14 -201.5 99t-74.5 224q0 149 89.5 239t236.5 90q114 0 202 -49l-38 -106q-76 50 -164 50q-92 0 -147.5 -59.5t-55.5 -160.5q0 -104 55.5 -164.5t149.5 -60.5q90 0 171 56l23 -112q-72 -44 -182 -49l-20.5 -19t-18.5 -17t-9 -8q57 -2 91 -26t34 -65
q0 -100 -181 -122l-7 61q111 7 111 54q0 53 -118 38l-9 47z" />
    <glyph glyph-name="Egrave" unicode="&#xc8;" horiz-adv-x="544" 
d="M498 0h-426v625h426v-103h-306v-157h251v-103h-251v-159h306v-103zM337 677h-79l-157 183h133z" />
    <glyph glyph-name="Eacute" unicode="&#xc9;" horiz-adv-x="544" 
d="M498 0h-426v625h426v-103h-306v-157h251v-103h-251v-159h306v-103zM468 860l-157 -183h-78l102 183h133z" />
    <glyph glyph-name="Ecircumflex" unicode="&#xca;" horiz-adv-x="544" 
d="M498 0h-426v625h426v-103h-306v-157h251v-103h-251v-159h306v-103zM459 677h-83l-90 118h-2l-89 -118h-84l117 187h114z" />
    <glyph glyph-name="Edieresis" unicode="&#xcb;" horiz-adv-x="544" 
d="M498 0h-426v625h426v-103h-306v-157h251v-103h-251v-159h306v-103zM464 752q0 -32 -19.5 -51.5t-50.5 -19.5t-50.5 19.5t-19.5 51.5q0 31 19.5 50t50.5 19t50.5 -19t19.5 -50zM245 752q0 -32 -19.5 -51.5t-50.5 -19.5t-50.5 20t-19.5 51t19.5 50t50.5 19t50.5 -19
t19.5 -50z" />
    <glyph glyph-name="Igrave" unicode="&#xcc;" horiz-adv-x="269" 
d="M195 0h-121v625h121v-625zM182 677h-79l-157 183h133z" />
    <glyph glyph-name="Iacute" unicode="&#xcd;" horiz-adv-x="269" 
d="M195 0h-121v625h121v-625zM324 860l-157 -183h-78l102 183h133z" />
    <glyph glyph-name="Icircumflex" unicode="&#xce;" horiz-adv-x="269" 
d="M195 0h-121v625h121v-625zM310 677h-83l-90 118h-2l-89 -118h-84l117 187h114z" />
    <glyph glyph-name="Idieresis" unicode="&#xcf;" horiz-adv-x="269" 
d="M195 0h-121v625h121v-625zM315 752q0 -32 -19.5 -51.5t-50.5 -19.5t-50.5 19.5t-19.5 51.5q0 31 19.5 50t50.5 19t50.5 -19t19.5 -50zM96 752q0 -32 -19.5 -51.5t-50.5 -19.5t-50.5 20t-19.5 51t19.5 50t50.5 19t50.5 -19t19.5 -50z" />
    <glyph glyph-name="Eth" unicode="&#xd0;" horiz-adv-x="687" 
d="M99 267h-83v98h83v260h211q159 0 248.5 -83.5t89.5 -224.5q0 -147 -90.5 -232t-254.5 -85h-204v267zM221 365h142v-98h-142v-164h82q102 0 162.5 53.5t60.5 154.5q0 104 -60 157.5t-169 53.5h-76v-157z" />
    <glyph glyph-name="Ntilde" unicode="&#xd1;" horiz-adv-x="689" 
d="M501 170v455h116v-631h-130l-299 460v-454h-116v625h133zM527 820q-8 -75 -32.5 -107t-70.5 -32q-35 0 -87 31.5t-66 31.5q-26 0 -34 -57v0h-1h-1h-1h-1h-1h-1h-1h-1h-1h-1h-1h-1h-1h-2h-1h-1h-1h-1h-2h-1h-1h-2h-1h-2h-1h-2h-1h-2h-1h-2h-1h-2h-2h-1h-2h-2h-2h-2h-1h-2
h-2h-2h-2h-2h-2h-10q8 76 33 108t71 32q35 0 87 -32t65 -32q27 0 34 57v0h1h1h1h1h1h1h1h1h1h1h1h1h1h1h2h1h1h1h1h2h1h1h2h1h2h1h2h1h2h1h2h2h1h2h2h1h2h2h2h1h2h2h2h2h2h2h9z" />
    <glyph glyph-name="Ograve" unicode="&#xd2;" horiz-adv-x="726" 
d="M684 315q0 -144 -91 -237t-230 -93q-142 0 -231.5 87.5t-89.5 238.5q0 144 91.5 236.5t230.5 92.5q141 0 230.5 -87t89.5 -238zM562 311q0 103 -55 165t-146 62q-89 0 -142.5 -61.5t-53.5 -161.5q0 -103 54.5 -165.5t145.5 -62.5q89 0 143 62t54 162zM411 680h-79
l-157 183h133z" />
    <glyph glyph-name="Oacute" unicode="&#xd3;" horiz-adv-x="726" 
d="M684 315q0 -144 -91 -237t-230 -93q-142 0 -231.5 87.5t-89.5 238.5q0 144 91.5 236.5t230.5 92.5q141 0 230.5 -87t89.5 -238zM562 311q0 103 -55 165t-146 62q-89 0 -142.5 -61.5t-53.5 -161.5q0 -103 54.5 -165.5t145.5 -62.5q89 0 143 62t54 162zM554 863l-157 -183
h-78l102 183h133z" />
    <glyph glyph-name="Ocircumflex" unicode="&#xd4;" horiz-adv-x="726" 
d="M684 315q0 -144 -91 -237t-230 -93q-142 0 -231.5 87.5t-89.5 238.5q0 144 91.5 236.5t230.5 92.5q141 0 230.5 -87t89.5 -238zM562 311q0 103 -55 165t-146 62q-89 0 -142.5 -61.5t-53.5 -161.5q0 -103 54.5 -165.5t145.5 -62.5q89 0 143 62t54 162zM539 677h-83
l-90 118h-2l-89 -118h-84l117 187h114z" />
    <glyph glyph-name="Otilde" unicode="&#xd5;" horiz-adv-x="726" 
d="M684 315q0 -144 -91 -237t-230 -93q-142 0 -231.5 87.5t-89.5 238.5q0 144 91.5 236.5t230.5 92.5q141 0 230.5 -87t89.5 -238zM562 311q0 103 -55 165t-146 62q-89 0 -142.5 -61.5t-53.5 -161.5q0 -103 54.5 -165.5t145.5 -62.5q89 0 143 62t54 162zM546 820
q-8 -75 -32.5 -107t-70.5 -32q-35 0 -87 31.5t-66 31.5q-26 0 -34 -57v0h-1h-1h-1h-1h-1h-1h-1h-1h-1h-1h-1h-1h-1h-2h-1h-1h-1h-1h-2h-1h-1h-2h-1h-2h-1h-2h-1h-2h-1h-2h-1h-2h-2h-1h-2h-2h-2h-2h-1h-2h-2h-2h-2h-2h-2h-10q8 76 33 108t71 32q34 0 86 -32t66 -32
q27 0 34 57v0h1h1h1h1h1h1h1h1h1h1h1h1h1h1h2h1h1h1h1h2h1h1h2h1h2h1h2h1h2h1h2h2h1h2h2h1h2h2h2h1h2h2h2h2h2h2h9z" />
    <glyph glyph-name="Odieresis" unicode="&#xd6;" horiz-adv-x="726" 
d="M684 315q0 -144 -91 -237t-230 -93q-142 0 -231.5 87.5t-89.5 238.5q0 144 91.5 236.5t230.5 92.5q141 0 230.5 -87t89.5 -238zM562 311q0 103 -55 165t-146 62q-89 0 -142.5 -61.5t-53.5 -161.5q0 -103 54.5 -165.5t145.5 -62.5q89 0 143 62t54 162zM544 752
q0 -32 -19.5 -51.5t-50.5 -19.5t-50.5 19.5t-19.5 51.5q0 31 19.5 50t50.5 19t50.5 -19t19.5 -50zM325 752q0 -32 -19.5 -51.5t-50.5 -19.5t-50.5 20t-19.5 51t19.5 50t50.5 19t50.5 -19t19.5 -50z" />
    <glyph glyph-name="multiply" unicode="&#xd7;" horiz-adv-x="505" 
d="M471 84l-64 -65l-153 154l-152 -154l-65 65l155 152l-155 153l65 64l152 -155l153 155l64 -64l-154 -153z" />
    <glyph glyph-name="Oslash" unicode="&#xd8;" horiz-adv-x="726" 
d="M686 315q0 -144 -91 -237t-230 -93q-77 0 -142 28l-45 -80h-68l62 108q-61 41 -94.5 110.5t-33.5 159.5q0 144 91.5 236.5t230.5 92.5q71 0 138 -27l46 79h68l-61 -106q129 -88 129 -271zM451 520q-39 18 -88 18q-89 0 -142.5 -61.5t-53.5 -161.5q0 -113 65 -175z
M497 488l-220 -381q39 -20 90 -20q89 0 142.5 62t53.5 162q0 114 -66 177z" />
    <glyph glyph-name="Ugrave" unicode="&#xd9;" horiz-adv-x="659" 
d="M590 248q0 -127 -68 -195t-193 -68q-122 0 -191 65.5t-69 186.5v388h122v-372q0 -161 142 -161q136 0 136 156v0v0v0v0v0v1v0v0v1v0v1v0v1v0v1v1v0v1v1v0v1v1v1v1v1v1v1v1v1v1v1v1v1v1v1v1v1v1v1v1v1v1v1v1v1v1v1v1v1v1v1v1v1v1v1v1v1v1v1v1v1v1v1v1v1v1v1v1v1v1v1v1v1v1
v1v1v1v1v1v1v1v1v1v1v1v2v1v1v1v1v1v1v1v1v2v1v1v1v1v1v2v1v1v1v1v1v2v1v1v1v1v2v1v1v1v2v1v1v1v2v1v1v2v1v1v1v2v1v1v2v1v1v2v1v1v2v1v1v2v1v1v2v1v1v2v1v2v1v1v2v1v2v1v1v2v1v2v1v2v1v2v1v1v2v1v2v1v2v1v2v1v2v1v2v1v2v1v2v1v2v1v2v1v2v1v2v2v1v2v1v2v1v2v1v2v2v1v2v1v2v2
v1v2v1v2v2v1v2v2v1v2v1v2v2v1v2v2v1v2v2v1v2v2v1v2v2v2v1v2v2v1v2v2v2v1v2v2v1v2v2v2v1v2v2v2v1v2v2v2v2v1v2v2v2v2v1v2v2v2v2v1v2v2v2v2v2v1v2v2v2v2v2v1v2v2v2v2v2v2v9h121v-377zM386 677h-79l-157 183h133z" />
    <glyph glyph-name="Uacute" unicode="&#xda;" horiz-adv-x="659" 
d="M590 248q0 -127 -68 -195t-193 -68q-122 0 -191 65.5t-69 186.5v388h122v-372q0 -161 142 -161q136 0 136 156v0v0v0v0v0v1v0v0v1v0v1v0v1v0v1v1v0v1v1v0v1v1v1v1v1v1v1v1v1v1v1v1v1v1v1v1v1v1v1v1v1v1v1v1v1v1v1v1v1v1v1v1v1v1v1v1v1v1v1v1v1v1v1v1v1v1v1v1v1v1v1v1v1v1
v1v1v1v1v1v1v1v1v1v1v1v2v1v1v1v1v1v1v1v1v2v1v1v1v1v1v2v1v1v1v1v1v2v1v1v1v1v2v1v1v1v2v1v1v1v2v1v1v2v1v1v1v2v1v1v2v1v1v2v1v1v2v1v1v2v1v1v2v1v1v2v1v2v1v1v2v1v2v1v1v2v1v2v1v2v1v2v1v1v2v1v2v1v2v1v2v1v2v1v2v1v2v1v2v1v2v1v2v1v2v1v2v2v1v2v1v2v1v2v1v2v2v1v2v1v2v2
v1v2v1v2v2v1v2v2v1v2v1v2v2v1v2v2v1v2v2v1v2v2v1v2v2v2v1v2v2v1v2v2v2v1v2v2v1v2v2v2v1v2v2v2v1v2v2v2v2v1v2v2v2v2v1v2v2v2v2v1v2v2v2v2v2v1v2v2v2v2v2v1v2v2v2v2v2v2v9h121v-377zM511 860l-157 -183h-78l102 183h133z" />
    <glyph glyph-name="Ucircumflex" unicode="&#xdb;" horiz-adv-x="659" 
d="M590 248q0 -127 -68 -195t-193 -68q-122 0 -191 65.5t-69 186.5v388h122v-372q0 -161 142 -161q136 0 136 156v0v0v0v0v0v1v0v0v1v0v1v0v1v0v1v1v0v1v1v0v1v1v1v1v1v1v1v1v1v1v1v1v1v1v1v1v1v1v1v1v1v1v1v1v1v1v1v1v1v1v1v1v1v1v1v1v1v1v1v1v1v1v1v1v1v1v1v1v1v1v1v1v1v1
v1v1v1v1v1v1v1v1v1v1v1v2v1v1v1v1v1v1v1v1v2v1v1v1v1v1v2v1v1v1v1v1v2v1v1v1v1v2v1v1v1v2v1v1v1v2v1v1v2v1v1v1v2v1v1v2v1v1v2v1v1v2v1v1v2v1v1v2v1v1v2v1v2v1v1v2v1v2v1v1v2v1v2v1v2v1v2v1v1v2v1v2v1v2v1v2v1v2v1v2v1v2v1v2v1v2v1v2v1v2v1v2v2v1v2v1v2v1v2v1v2v2v1v2v1v2v2
v1v2v1v2v2v1v2v2v1v2v1v2v2v1v2v2v1v2v2v1v2v2v1v2v2v2v1v2v2v1v2v2v2v1v2v2v1v2v2v2v1v2v2v2v1v2v2v2v2v1v2v2v2v2v1v2v2v2v2v1v2v2v2v2v2v1v2v2v2v2v2v1v2v2v2v2v2v2v9h121v-377zM505 677h-83l-90 118h-2l-89 -118h-84l117 187h114z" />
    <glyph glyph-name="Udieresis" unicode="&#xdc;" horiz-adv-x="659" 
d="M590 248q0 -127 -68 -195t-193 -68q-122 0 -191 65.5t-69 186.5v388h122v-372q0 -161 142 -161q136 0 136 156v0v0v0v0v0v1v0v0v1v0v1v0v1v0v1v1v0v1v1v0v1v1v1v1v1v1v1v1v1v1v1v1v1v1v1v1v1v1v1v1v1v1v1v1v1v1v1v1v1v1v1v1v1v1v1v1v1v1v1v1v1v1v1v1v1v1v1v1v1v1v1v1v1v1
v1v1v1v1v1v1v1v1v1v1v1v2v1v1v1v1v1v1v1v1v2v1v1v1v1v1v2v1v1v1v1v1v2v1v1v1v1v2v1v1v1v2v1v1v1v2v1v1v2v1v1v1v2v1v1v2v1v1v2v1v1v2v1v1v2v1v1v2v1v1v2v1v2v1v1v2v1v2v1v1v2v1v2v1v2v1v2v1v1v2v1v2v1v2v1v2v1v2v1v2v1v2v1v2v1v2v1v2v1v2v1v2v2v1v2v1v2v1v2v1v2v2v1v2v1v2v2
v1v2v1v2v2v1v2v2v1v2v1v2v2v1v2v2v1v2v2v1v2v2v1v2v2v2v1v2v2v1v2v2v2v1v2v2v1v2v2v2v1v2v2v2v1v2v2v2v2v1v2v2v2v2v1v2v2v2v2v1v2v2v2v2v2v1v2v2v2v2v2v1v2v2v2v2v2v2v9h121v-377zM510 752q0 -32 -19.5 -51.5t-50.5 -19.5t-50.5 19.5t-19.5 51.5q0 31 19.5 50t50.5 19
t50.5 -19t19.5 -50zM291 752q0 -32 -19.5 -51.5t-50.5 -19.5t-50.5 20t-19.5 51t19.5 50t50.5 19t50.5 -19t19.5 -50z" />
    <glyph glyph-name="Yacute" unicode="&#xdd;" horiz-adv-x="576" 
d="M566 625l-217 -383v-242h-121v243l-218 382h132l148 -270l145 270h131zM477 860l-157 -183h-78l102 183h133z" />
    <glyph glyph-name="Thorn" unicode="&#xde;" horiz-adv-x="562" 
d="M532 321q0 -107 -70 -163.5t-197 -57.5l-71 -1v-99h-122v625h122v-95h80q126 0 192 -57t66 -152zM410 317q0 111 -144 111h-74v-227l77 1q69 1 105 31t36 84z" />
    <glyph glyph-name="germandbls" unicode="&#xdf;" horiz-adv-x="613" 
d="M84 0v360l-80 6l5 75l74 22l1 45q2 98 60.5 143t150.5 45q90 0 144 -45t54 -119q0 -29 -13.5 -54.5t-30 -39.5t-30 -30t-13.5 -29q0 -21 19 -39t46 -33t54 -33.5t46 -51t19 -75.5q0 -75 -48 -119t-133 -44q-79 0 -152 39l21 97q64 -41 116 -41q74 0 74 60q0 27 -17.5 47
t-43 34l-50.5 29t-42.5 41t-17.5 62q0 27 12 51t26 38.5t26 36t12 44.5q0 35 -23 58.5t-58 23.5q-43 0 -67 -24.5t-24 -70.5v-509h-117z" />
    <glyph glyph-name="agrave" unicode="&#xe0;" horiz-adv-x="481" 
d="M309 53h-4q-56 -68 -130 -68q-62 0 -102.5 37.5t-40.5 92.5q0 155 273 164v11q0 47 -21.5 67.5t-70.5 20.5q-67 0 -153 -49l-24 93q87 54 193 54q105 0 150.5 -46.5t43.5 -143.5v-165q0 -26 7 -33t34 -9l-9 -89q-118 -13 -146 63zM305 111v106q-86 -11 -121.5 -30
t-35.5 -56q0 -27 19 -43.5t50 -16.5q51 0 88 40zM275 523h-79l-157 183h133z" />
    <glyph glyph-name="aacute" unicode="&#xe1;" horiz-adv-x="481" 
d="M309 53h-4q-56 -68 -130 -68q-62 0 -102.5 37.5t-40.5 92.5q0 155 273 164v11q0 47 -21.5 67.5t-70.5 20.5q-67 0 -153 -49l-24 93q87 54 193 54q105 0 150.5 -46.5t43.5 -143.5v-165q0 -26 7 -33t34 -9l-9 -89q-118 -13 -146 63zM305 111v106q-86 -11 -121.5 -30
t-35.5 -56q0 -27 19 -43.5t50 -16.5q51 0 88 40zM407 706l-157 -183h-78l102 183h133z" />
    <glyph glyph-name="acircumflex" unicode="&#xe2;" horiz-adv-x="481" 
d="M309 53h-4q-56 -68 -130 -68q-62 0 -102.5 37.5t-40.5 92.5q0 155 273 164v11q0 47 -21.5 67.5t-70.5 20.5q-67 0 -153 -49l-24 93q87 54 193 54q105 0 150.5 -46.5t43.5 -143.5v-165q0 -26 7 -33t34 -9l-9 -89q-118 -13 -146 63zM305 111v106q-86 -11 -121.5 -30
t-35.5 -56q0 -27 19 -43.5t50 -16.5q51 0 88 40zM402 523h-83l-90 118h-2l-89 -118h-84l117 187h114z" />
    <glyph glyph-name="atilde" unicode="&#xe3;" horiz-adv-x="481" 
d="M309 53h-4q-56 -68 -130 -68q-62 0 -102.5 37.5t-40.5 92.5q0 155 273 164v11q0 47 -21.5 67.5t-70.5 20.5q-67 0 -153 -49l-24 93q87 54 193 54q105 0 150.5 -46.5t43.5 -143.5v-165q0 -26 7 -33t34 -9l-9 -89q-118 -13 -146 63zM305 111v106q-86 -11 -121.5 -30
t-35.5 -56q0 -27 19 -43.5t50 -16.5q51 0 88 40zM412 666q-8 -75 -32.5 -107t-70.5 -32q-35 0 -87 31.5t-66 31.5q-26 0 -34 -57v0h-1h-1h-1h-1h-1h-1h-1h-1h-1h-1h-1h-1h-1h-2h-1h-1h-1h-1h-2h-1h-1h-2h-1h-2h-1h-2h-1h-2h-1h-2h-1h-2h-2h-1h-2h-2h-2h-2h-1h-2h-2h-2h-2h-2
h-2h-10q8 76 33 108t71 32q35 0 86.5 -32t65.5 -32q27 0 34 57v0h1h1h1h1h1h1h1h1h1h1h1h1h1h1h2h1h1h1h1h2h1h1h2h1h2h1h2h1h2h1h2h2h1h2h2h1h2h2h2h1h2h2h2h2h2h2h9z" />
    <glyph glyph-name="adieresis" unicode="&#xe4;" horiz-adv-x="481" 
d="M309 53h-4q-56 -68 -130 -68q-62 0 -102.5 37.5t-40.5 92.5q0 155 273 164v11q0 47 -21.5 67.5t-70.5 20.5q-67 0 -153 -49l-24 93q87 54 193 54q105 0 150.5 -46.5t43.5 -143.5v-165q0 -26 7 -33t34 -9l-9 -89q-118 -13 -146 63zM305 111v106q-86 -11 -121.5 -30
t-35.5 -56q0 -27 19 -43.5t50 -16.5q51 0 88 40zM410 595q0 -32 -19.5 -51.5t-50.5 -19.5t-50.5 19.5t-19.5 51.5q0 31 19.5 50t50.5 19t50.5 -19t19.5 -50zM191 595q0 -32 -19.5 -51.5t-50.5 -19.5t-50.5 20t-19.5 51t19.5 50t50.5 19t50.5 -19t19.5 -50z" />
    <glyph glyph-name="aring" unicode="&#xe5;" horiz-adv-x="481" 
d="M358 635q0 -48 -36.5 -80.5t-96.5 -32.5t-96.5 32.5t-36.5 80.5q0 49 36.5 82t96.5 33t96 -33t37 -82zM309 53h-4q-56 -68 -130 -68q-62 0 -102.5 37.5t-40.5 92.5q0 155 273 164v11q0 47 -21.5 67.5t-70.5 20.5q-67 0 -153 -49l-24 93q87 54 193 54q105 0 150.5 -46.5
t43.5 -143.5v-165q0 -26 7 -33t34 -9l-9 -89q-118 -13 -146 63zM302 636q0 29 -21 48.5t-56 19.5q-34 0 -55 -19.5t-21 -48.5t21 -48.5t55 -19.5q35 0 56 19.5t21 48.5zM305 111v106q-86 -11 -121.5 -30t-35.5 -56q0 -27 19 -43.5t50 -16.5q51 0 88 40z" />
    <glyph glyph-name="ae" unicode="&#xe6;" horiz-adv-x="770" 
d="M350 80q-70 -95 -175 -95q-62 0 -102.5 37.5t-40.5 92.5q0 156 281 164v9q0 49 -24.5 69.5t-75.5 20.5q-67 0 -153 -49l-24 93q87 54 194 54q116 0 160 -63q60 63 157 63q89 0 137.5 -51t48.5 -136q0 -44 -10 -77l-301 -4v-3q3 -57 39.5 -91.5t97.5 -34.5q78 0 144 42
l15 -98q-70 -38 -167 -38q-134 0 -201 95zM424 277l198 1v8q0 101 -87 101q-46 0 -76 -32t-35 -78zM313 217q-88 -7 -126.5 -28t-38.5 -58q0 -27 19.5 -43.5t52.5 -16.5q28 0 58 15.5t49 39.5q-11 31 -14 91z" />
    <glyph glyph-name="ccedilla" unicode="&#xe7;" horiz-adv-x="471" 
d="M237 -13q-95 11 -148 75t-53 167q0 112 67 179.5t176 67.5q93 0 159 -39l-25 -95q-59 37 -125 37q-63 0 -97 -39.5t-34 -107.5q0 -70 36 -109.5t95 -39.5q72 0 128 36l19 -96q-53 -31 -132 -37q-38 -36 -49 -45q57 -2 91 -26t34 -65q0 -100 -181 -122l-7 61q111 7 111 54
q0 53 -118 38l-9 47z" />
    <glyph glyph-name="egrave" unicode="&#xe8;" horiz-adv-x="499" 
d="M152 208v-3q4 -57 40.5 -91.5t97.5 -34.5q76 0 144 42l15 -98q-70 -38 -167 -38q-111 0 -178.5 65.5t-67.5 175.5q0 112 67 181t171 69q90 0 140 -50.5t50 -136.5q0 -44 -10 -77zM155 277l198 1v8q0 101 -88 101q-46 0 -75.5 -32t-34.5 -78zM311 523h-79l-157 183h133z
" />
    <glyph glyph-name="eacute" unicode="&#xe9;" horiz-adv-x="499" 
d="M152 208v-3q4 -57 40.5 -91.5t97.5 -34.5q76 0 144 42l15 -98q-70 -38 -167 -38q-111 0 -178.5 65.5t-67.5 175.5q0 112 67 181t171 69q90 0 140 -50.5t50 -136.5q0 -44 -10 -77zM155 277l198 1v8q0 101 -88 101q-46 0 -75.5 -32t-34.5 -78zM444 706l-157 -183h-78
l102 183h133z" />
    <glyph glyph-name="ecircumflex" unicode="&#xea;" horiz-adv-x="499" 
d="M152 208v-3q4 -57 40.5 -91.5t97.5 -34.5q76 0 144 42l15 -98q-70 -38 -167 -38q-111 0 -178.5 65.5t-67.5 175.5q0 112 67 181t171 69q90 0 140 -50.5t50 -136.5q0 -44 -10 -77zM155 277l198 1v8q0 101 -88 101q-46 0 -75.5 -32t-34.5 -78zM422 523h-83l-90 118h-2
l-89 -118h-84l117 187h114z" />
    <glyph glyph-name="edieresis" unicode="&#xeb;" horiz-adv-x="499" 
d="M152 208v-3q4 -57 40.5 -91.5t97.5 -34.5q76 0 144 42l15 -98q-70 -38 -167 -38q-111 0 -178.5 65.5t-67.5 175.5q0 112 67 181t171 69q90 0 140 -50.5t50 -136.5q0 -44 -10 -77zM155 277l198 1v8q0 101 -88 101q-46 0 -75.5 -32t-34.5 -78zM433 595q0 -32 -19.5 -51.5
t-50.5 -19.5t-50.5 19.5t-19.5 51.5q0 31 19.5 50t50.5 19t50.5 -19t19.5 -50zM214 595q0 -32 -19.5 -51.5t-50.5 -19.5t-50.5 20t-19.5 51t19.5 50t50.5 19t50.5 -19t19.5 -50z" />
    <glyph glyph-name="igrave" unicode="&#xec;" horiz-adv-x="244" 
d="M184 0h-118v456l118 13v-469zM175 523h-79l-157 183h133z" />
    <glyph glyph-name="iacute" unicode="&#xed;" horiz-adv-x="244" 
d="M184 0h-118v456l118 13v-469zM310 706l-157 -183h-78l102 183h133z" />
    <glyph glyph-name="icircumflex" unicode="&#xee;" horiz-adv-x="244" 
d="M184 0h-118v456l118 13v-469zM300 523h-83l-90 118h-2l-89 -118h-84l117 187h114z" />
    <glyph glyph-name="idieresis" unicode="&#xef;" horiz-adv-x="244" 
d="M184 0h-118v456l118 13v-469zM305 595q0 -32 -19.5 -51.5t-50.5 -19.5t-50.5 19.5t-19.5 51.5q0 31 19.5 50t50.5 19t50.5 -19t19.5 -50zM86 595q0 -32 -19.5 -51.5t-50.5 -19.5t-50.5 20t-19.5 51t19.5 50t50.5 19t50.5 -19t19.5 -50z" />
    <glyph glyph-name="eth" unicode="&#xf0;" horiz-adv-x="554" 
d="M517 254q0 -117 -64.5 -193t-178.5 -76q-105 0 -171 64t-66 165q0 106 62.5 167.5t138.5 61.5t128 -55l2 1q-29 64 -121 156l-112 -30l-18 69l72 19q-50 44 -77 65l132 27q38 -30 67 -59l113 30l17 -68l-74 -19q150 -167 150 -325zM397 227q0 41 -16 85
q-13 18 -43.5 29.5t-67.5 11.5q-47 0 -79 -36t-32 -96q0 -65 33.5 -101.5t86.5 -36.5q52 0 85 38.5t33 105.5z" />
    <glyph glyph-name="ntilde" unicode="&#xf1;" horiz-adv-x="541" 
d="M481 0h-118v281q0 50 -19.5 70.5t-60.5 20.5q-57 0 -102 -43v-329h-118v459l118 16v-73q67 74 152 74q70 0 109 -42.5t39 -116.5v-317zM454 666q-8 -75 -32.5 -107t-70.5 -32q-35 0 -87 31.5t-66 31.5q-26 0 -34 -57v0h-1h-1h-1h-1h-1h-1h-1h-1h-1h-1h-1h-1h-1h-2h-1h-1
h-1h-1h-2h-1h-1h-2h-1h-2h-1h-2h-1h-2h-1h-2h-1h-2h-2h-1h-2h-2h-2h-2h-1h-2h-2h-2h-2h-2h-2h-10q8 76 33 108t71 32q34 0 86 -32t66 -32q27 0 34 57v0h1h1h1h1h1h1h1h1h1h1h1h1h1h1h2h1h1h1h1h2h1h1h2h1h2h1h2h1h2h1h2h2h1h2h2h1h2h2h2h1h2h2h2h2h2h2h9z" />
    <glyph glyph-name="ograve" unicode="&#xf2;" horiz-adv-x="544" 
d="M508 231q0 -111 -68 -178.5t-171 -67.5t-168 66t-65 179q0 112 67.5 179.5t171.5 67.5q103 0 168 -66.5t65 -179.5zM391 230q0 68 -32 110t-88 42q-57 0 -88 -41.5t-31 -109.5q0 -67 32 -108.5t89 -41.5q56 0 87 40.5t31 108.5zM339 523h-79l-157 183h133z" />
    <glyph glyph-name="oacute" unicode="&#xf3;" horiz-adv-x="544" 
d="M508 231q0 -111 -68 -178.5t-171 -67.5t-168 66t-65 179q0 112 67.5 179.5t171.5 67.5q103 0 168 -66.5t65 -179.5zM391 230q0 68 -32 110t-88 42q-57 0 -88 -41.5t-31 -109.5q0 -67 32 -108.5t89 -41.5q56 0 87 40.5t31 108.5zM447 706l-157 -183h-78l102 183h133z" />
    <glyph glyph-name="ocircumflex" unicode="&#xf4;" horiz-adv-x="544" 
d="M508 231q0 -111 -68 -178.5t-171 -67.5t-168 66t-65 179q0 112 67.5 179.5t171.5 67.5q103 0 168 -66.5t65 -179.5zM391 230q0 68 -32 110t-88 42q-57 0 -88 -41.5t-31 -109.5q0 -67 32 -108.5t89 -41.5q56 0 87 40.5t31 108.5zM449 523h-83l-90 118h-2l-89 -118h-84
l117 187h114z" />
    <glyph glyph-name="otilde" unicode="&#xf5;" horiz-adv-x="544" 
d="M508 231q0 -111 -68 -178.5t-171 -67.5t-168 66t-65 179q0 112 67.5 179.5t171.5 67.5q103 0 168 -66.5t65 -179.5zM391 230q0 68 -32 110t-88 42q-57 0 -88 -41.5t-31 -109.5q0 -67 32 -108.5t89 -41.5q56 0 87 40.5t31 108.5zM457 666q-8 -75 -32.5 -107t-70.5 -32
q-35 0 -87 31.5t-66 31.5q-26 0 -34 -57v0h-1h-1h-1h-1h-1h-1h-1h-1h-1h-1h-1h-1h-1h-2h-1h-1h-1h-1h-2h-1h-1h-2h-1h-2h-1h-2h-1h-2h-1h-2h-1h-2h-2h-1h-2h-2h-2h-2h-1h-2h-2h-2h-2h-2h-2h-10q8 76 33 108t71 32q35 0 87 -32t65 -32q27 0 34 57v0h1h1h1h1h1h1h1h1h1h1h1h1
h1h1h2h1h1h1h1h2h1h1h2h1h2h1h2h1h2h1h2h2h1h2h2h1h2h2h2h1h2h2h2h2h2h2h9z" />
    <glyph glyph-name="odieresis" unicode="&#xf6;" horiz-adv-x="544" 
d="M508 231q0 -111 -68 -178.5t-171 -67.5t-168 66t-65 179q0 112 67.5 179.5t171.5 67.5q103 0 168 -66.5t65 -179.5zM391 230q0 68 -32 110t-88 42q-57 0 -88 -41.5t-31 -109.5q0 -67 32 -108.5t89 -41.5q56 0 87 40.5t31 108.5zM454 595q0 -32 -19.5 -51.5t-50.5 -19.5
t-50.5 19.5t-19.5 51.5q0 31 19.5 50t50.5 19t50.5 -19t19.5 -50zM235 595q0 -32 -19.5 -51.5t-50.5 -19.5t-50.5 20t-19.5 51t19.5 50t50.5 19t50.5 -19t19.5 -50z" />
    <glyph glyph-name="divide" unicode="&#xf7;" horiz-adv-x="505" 
d="M328 405q0 -30 -21 -50.5t-54 -20.5q-32 0 -52.5 20.5t-20.5 50.5q0 31 20.5 52t52.5 21q33 0 54 -21t21 -52zM469 190h-432l3 94h426zM328 68q0 -30 -20.5 -51t-52.5 -21q-33 0 -54 21t-21 51q0 31 21 51t54 20q32 0 52.5 -20t20.5 -51z" />
    <glyph glyph-name="oslash" unicode="&#xf8;" horiz-adv-x="544" 
d="M511 231q0 -111 -67 -178.5t-171 -67.5q-51 0 -94 17l-41 -69h-69q4 6 10 16.5l18.5 32t20.5 36.5l8 14q-87 68 -87 199q0 111 67.5 178.5t171.5 67.5q54 0 96 -18l39 67h70l-57 -97q85 -69 85 -198zM328 376q-25 13 -54 13q-57 0 -88.5 -42.5t-31.5 -113.5
q0 -65 28 -109zM397 230q0 62 -27 107l-144 -252q27 -10 52 -10q57 0 88 42t31 113z" />
    <glyph glyph-name="ugrave" unicode="&#xf9;" horiz-adv-x="537" 
d="M59 461h118v-281q0 -49 19.5 -69.5t58.5 -20.5q59 0 101 40v331h118v-458l-118 -16v68q-65 -70 -152 -70q-68 0 -106.5 42.5t-38.5 116.5v317zM322 523h-79l-157 183h133z" />
    <glyph glyph-name="uacute" unicode="&#xfa;" horiz-adv-x="537" 
d="M59 461h118v-281q0 -49 19.5 -69.5t58.5 -20.5q59 0 101 40v331h118v-458l-118 -16v68q-65 -70 -152 -70q-68 0 -106.5 42.5t-38.5 116.5v317zM454 706l-157 -183h-78l102 183h133z" />
    <glyph glyph-name="ucircumflex" unicode="&#xfb;" horiz-adv-x="537" 
d="M59 461h118v-281q0 -49 19.5 -69.5t58.5 -20.5q59 0 101 40v331h118v-458l-118 -16v68q-65 -70 -152 -70q-68 0 -106.5 42.5t-38.5 116.5v317zM444 523h-83l-90 118h-2l-89 -118h-84l117 187h114z" />
    <glyph glyph-name="udieresis" unicode="&#xfc;" horiz-adv-x="537" 
d="M59 461h118v-281q0 -49 19.5 -69.5t58.5 -20.5q59 0 101 40v331h118v-458l-118 -16v68q-65 -70 -152 -70q-68 0 -106.5 42.5t-38.5 116.5v317zM447 595q0 -32 -19.5 -51.5t-50.5 -19.5t-50.5 19.5t-19.5 51.5q0 31 19.5 50t50.5 19t50.5 -19t19.5 -50zM228 595
q0 -32 -19.5 -51.5t-50.5 -19.5t-50.5 20t-19.5 51t19.5 50t50.5 19t50.5 -19t19.5 -50z" />
    <glyph glyph-name="yacute" unicode="&#xfd;" horiz-adv-x="474" 
d="M476 461l-176 -452l-27 -72q-34 -92 -75.5 -128t-107.5 -36q-58 0 -117 27l35 97q46 -22 73 -22q26 0 42.5 16t34.5 62l20 53l-180 455h127l115 -330l110 330h126zM424 706l-157 -183h-78l102 183h133z" />
    <glyph glyph-name="thorn" unicode="&#xfe;" horiz-adv-x="545" 
d="M181 -1v-228h-118v897l118 16v-264q64 56 126 56q93 0 149 -67t56 -174q0 -109 -67 -179t-166 -70q-56 0 -98 13zM181 339v0v0v0v0v-1v0v-1v0v-1v-1v0v-1v-1v-1v-1v-1v-1v-1v-1v-1v-1v-1v-1v-1v-1v-1v-1v-1v-1v-1v-1v-1v-1v-1v-1v-1v-1v-1v-1v-1v-1v-1v-1v-1v-1v-1v-1v-1
v-1v-1v-1v-1v-1v-1v-1v-2v-1v-1v-1v-1v-1v-1v-2v-1v-1v-1v-1v-2v-1v-1v-1v-2v-1v-1v-1v-2v-1v-1v-2v-1v-1v-2v-1v-1v-2v-1v-1v-2v-1v-1v-2v-1v-2v-1v-1v-2v-1v-2v-1v-2v-1v-2v-1v-1v-2v-1v-2v-1v-2v-1v-2v-2v-1v-2v-1v-2v-1v-2v-1v-2v-2v-1v-2v-1v-2v-2v-1v-2v-1v-2v-2v-1
v-2v-2v-1v-2v-2v-1v-2v-2v-1v-2v-2v-2v-1v-2v-2v-1v-2v-2v-2v-1v-2v-2v-2v-2v-1v-2v-2v-2v-2v-1v-2v-2v-2v-2v-1v-2v-2v-2v-2v-8q34 -26 87 -26q58 0 91 42t33 108q0 68 -31 107.5t-85 39.5q-52 0 -95 -38z" />
    <glyph glyph-name="ydieresis" unicode="&#xff;" horiz-adv-x="474" 
d="M476 461l-176 -452l-27 -72q-34 -92 -75.5 -128t-107.5 -36q-58 0 -117 27l35 97q46 -22 73 -22q26 0 42.5 16t34.5 62l20 53l-180 455h127l115 -330l110 330h126zM417 598q0 -32 -19.5 -51.5t-50.5 -19.5t-50.5 19.5t-19.5 51.5q0 31 19.5 50t50.5 19t50.5 -19t19.5 -50
zM198 598q0 -32 -19.5 -51.5t-50.5 -19.5t-50.5 20t-19.5 51t19.5 50t50.5 19t50.5 -19t19.5 -50z" />
    <glyph glyph-name="Amacron" unicode="&#x100;" horiz-adv-x="610" 
d="M380 625l225 -625h-123l-52 148h-252l-51 -148h-123l228 625h148zM399 249l-94 271l-95 -271h189zM464 707h-319l8 69h303z" />
    <glyph glyph-name="amacron" unicode="&#x101;" horiz-adv-x="482" 
d="M309 53h-4q-56 -68 -130 -68q-62 0 -102.5 37.5t-40.5 92.5q0 155 273 164v11q0 47 -21.5 67.5t-70.5 20.5q-67 0 -153 -49l-24 93q87 54 193 54q105 0 150.5 -46.5t43.5 -143.5v-165q0 -26 7 -33t34 -9l-9 -89q-118 -13 -146 63zM305 111v106q-86 -11 -121.5 -30
t-35.5 -56q0 -27 19 -43.5t50 -16.5q51 0 88 40zM390 544h-319l8 69h303z" />
    <glyph glyph-name="Abreve" unicode="&#x102;" horiz-adv-x="610" 
d="M380 625l225 -625h-123l-52 148h-252l-51 -148h-123l228 625h148zM399 249l-94 271l-95 -271h189zM476 871q-9 -89 -55 -139t-116 -50t-116 50.5t-55 138.5l80 -1q21 -111 91 -111q71 0 91 111z" />
    <glyph glyph-name="abreve" unicode="&#x103;" horiz-adv-x="482" 
d="M309 53h-4q-56 -68 -130 -68q-62 0 -102.5 37.5t-40.5 92.5q0 155 273 164v11q0 47 -21.5 67.5t-70.5 20.5q-67 0 -153 -49l-24 93q87 54 193 54q105 0 150.5 -46.5t43.5 -143.5v-165q0 -26 7 -33t34 -9l-9 -89q-118 -13 -146 63zM305 111v106q-86 -11 -121.5 -30
t-35.5 -56q0 -27 19 -43.5t50 -16.5q51 0 88 40zM411 708q-9 -89 -55 -139t-116 -50t-116 50.5t-55 138.5l80 -1q21 -111 91 -111q71 0 91 111z" />
    <glyph glyph-name="Aogonek" unicode="&#x104;" horiz-adv-x="610" 
d="M381 625l225 -625q-54 -7 -90 -32.5t-36 -56.5q0 -22 11.5 -34.5t32.5 -12.5q29 0 51 15l20 -70q-42 -28 -98 -28q-51 0 -82 27.5t-31 72.5q0 42 28.5 74t69.5 46l-52 147h-251l-51 -148h-124l228 625h149zM399 249l-93 270l-95 -270h188z" />
    <glyph glyph-name="aogonek" unicode="&#x105;" horiz-adv-x="482" 
d="M309 53h-4q-56 -68 -130 -68q-62 0 -102.5 37.5t-40.5 92.5q0 155 273 164v11q0 46 -21.5 66.5t-70.5 20.5q-67 0 -153 -49l-24 94q87 54 194 54q105 0 150.5 -46.5t43.5 -144.5v-163q0 -26 7.5 -33.5t33.5 -8.5l-9 -90q-50 -3 -82 -24t-32 -55q0 -22 11.5 -34.5
t32.5 -12.5q29 0 51 15l19 -70q-40 -28 -97 -28q-51 0 -82.5 27t-31.5 73q0 41 27 74.5t70 53.5q-24 16 -33 44zM305 111v106q-86 -11 -121 -30t-35 -56q0 -26 18.5 -43t49.5 -17q50 0 88 40z" />
    <glyph glyph-name="Cacute" unicode="&#x106;" horiz-adv-x="607" 
d="M484 869l-157 -183h-78l102 183h133zM570 591l-38 -106q-76 50 -164 50q-92 0 -147.5 -59.5t-55.5 -160.5q0 -104 55.5 -164.5t149.5 -60.5q90 0 171 56l23 -112q-82 -49 -199 -49q-146 0 -234.5 87t-88.5 239q0 149 89.5 239t236.5 90q114 0 202 -49z" />
    <glyph glyph-name="cacute" unicode="&#x107;" horiz-adv-x="470" 
d="M415 706l-157 -183h-78l102 183h133zM435 23q-63 -38 -160 -38q-112 0 -175.5 65t-63.5 179q0 112 67 179.5t176 67.5q93 0 159 -39l-25 -95q-59 37 -125 37q-63 0 -97 -39.5t-34 -107.5q0 -70 36 -109.5t95 -39.5q72 0 128 36z" />
    <glyph glyph-name="Ccircumflex" unicode="&#x108;" horiz-adv-x="607" 
d="M509 686h-83l-90 118h-2l-89 -118h-84l117 187h114zM570 591l-38 -106q-76 50 -164 50q-92 0 -147.5 -59.5t-55.5 -160.5q0 -104 55.5 -164.5t149.5 -60.5q90 0 171 56l23 -112q-82 -49 -199 -49q-146 0 -234.5 87t-88.5 239q0 149 89.5 239t236.5 90q114 0 202 -49z" />
    <glyph glyph-name="ccircumflex" unicode="&#x109;" horiz-adv-x="470" 
d="M438 523h-83l-90 118h-2l-89 -118h-84l117 187h114zM435 23q-63 -38 -160 -38q-112 0 -175.5 65t-63.5 179q0 112 67 179.5t176 67.5q93 0 159 -39l-25 -95q-59 37 -125 37q-63 0 -97 -39.5t-34 -107.5q0 -70 36 -109.5t95 -39.5q72 0 128 36z" />
    <glyph glyph-name="Cdotaccent" unicode="&#x10a;" horiz-adv-x="607" 
d="M570 591l-38 -106q-76 50 -164 50q-92 0 -147.5 -59.5t-55.5 -160.5q0 -104 55.5 -164.5t149.5 -60.5q90 0 171 56l23 -112q-82 -49 -199 -49q-146 0 -234.5 87t-88.5 239q0 149 89.5 239t236.5 90q114 0 202 -49zM415 757q0 -31 -19.5 -52.5t-51.5 -21.5t-51.5 21.5
t-19.5 52.5q0 30 20 51.5t51 21.5t51 -21.5t20 -51.5z" />
    <glyph glyph-name="cdotaccent" unicode="&#x10b;" horiz-adv-x="470" 
d="M435 23q-63 -38 -160 -38q-112 0 -175.5 65t-63.5 179q0 112 67 179.5t176 67.5q93 0 159 -39l-25 -95q-59 37 -125 37q-63 0 -97 -39.5t-34 -107.5q0 -70 36 -109.5t95 -39.5q72 0 128 36zM349 593q0 -31 -19.5 -52.5t-51.5 -21.5t-51.5 21.5t-19.5 52.5q0 30 20 51.5
t51 21.5t51 -21.5t20 -51.5z" />
    <glyph glyph-name="Ccaron" unicode="&#x10c;" horiz-adv-x="607" 
d="M512 873l-117 -187h-114l-117 187h83l90 -117h2l89 117h84zM570 591l-38 -106q-76 50 -164 50q-92 0 -147.5 -59.5t-55.5 -160.5q0 -104 55.5 -164.5t149.5 -60.5q90 0 171 56l23 -112q-82 -49 -199 -49q-146 0 -234.5 87t-88.5 239q0 149 89.5 239t236.5 90
q114 0 202 -49z" />
    <glyph glyph-name="ccaron" unicode="&#x10d;" horiz-adv-x="470" 
d="M435 710l-117 -187h-114l-117 187h83l90 -117h2l89 117h84zM435 23q-63 -38 -160 -38q-112 0 -175.5 65t-63.5 179q0 112 67 179.5t176 67.5q93 0 159 -39l-25 -95q-59 37 -125 37q-63 0 -97 -39.5t-34 -107.5q0 -70 36 -109.5t95 -39.5q72 0 128 36z" />
    <glyph glyph-name="Dcaron" unicode="&#x10e;" horiz-adv-x="663" 
d="M464 873l-117 -187h-114l-117 187h83l90 -117h2l89 117h84zM621 317q0 -147 -90.5 -232t-254.5 -85h-204v625h212q158 0 247.5 -83.5t89.5 -224.5zM499 311q0 105 -57 158t-165 53h-83v-419h89q101 0 158.5 53t57.5 155z" />
    <glyph glyph-name="dcaron" unicode="&#x10f;" horiz-adv-x="783" 
d="M575 617q4 33 28 54t60 21q42 0 72 -32t30 -77q0 -105 -158 -200l-52 47q101 71 101 116q0 20 -17.5 35.5t-63.5 35.5zM367 461v207l118 16v-684h-118v45q-62 -60 -130 -60q-91 0 -146 67t-55 175q0 109 67 179t166 70q50 0 98 -15zM367 355q-37 27 -87 27q-58 0 -91 -42
t-33 -108q0 -67 31.5 -107t84.5 -40q54 0 95 38v0v0v0v0v1v0v0v1v0v1v0v1v1v0v1v1v1v1v1v1v1v1v1v1v1v1v1v1v1v1v1v1v1v1v1v1v1v1v1v1v1v1v1v1v1v1v1v2v1v1v1v1v1v1v1v1v1v1v1v2v1v1v1v1v1v2v1v1v1v1v2v1v1v1v2v1v1v2v1v1v1v2v1v1v2v1v1v2v1v2v1v1v2v1v2v1v1v2v1v2v1v2v1v2
v1v2v1v2v1v2v1v2v1v2v1v2v1v2v1v2v2v1v2v1v2v1v2v2v1v2v2v1v2v2v1v2v2v1v2v2v1v2v2v1v2v2v2v1v2v2v2v1v2v2v2v1v2v2v2v2v1v2v2v2v2v1v2v2v2v2v2v9z" />
    <glyph glyph-name="Dcroat" unicode="&#x110;" horiz-adv-x="687" 
d="M99 267h-83v98h83v260h211q159 0 248.5 -83.5t89.5 -224.5q0 -147 -90.5 -232t-254.5 -85h-204v267zM221 365h142v-98h-142v-164h82q102 0 162.5 53.5t60.5 154.5q0 104 -60 157.5t-169 53.5h-76v-157z" />
    <glyph glyph-name="dcroat" unicode="&#x111;" horiz-adv-x="548" 
d="M367 461v62h-118l8 71h110v74l118 16v-90h57l8 -71h-65v-523h-118v45q-62 -60 -130 -60q-91 0 -146 67t-55 175q0 109 67 179t166 70q50 0 98 -15zM367 355q-37 27 -87 27q-58 0 -91 -42t-33 -108q0 -67 31.5 -107t84.5 -40q54 0 95 38v232z" />
    <glyph glyph-name="Emacron" unicode="&#x112;" horiz-adv-x="545" 
d="M498 0h-426v625h426v-103h-306v-157h251v-103h-251v-159h306v-103zM443 707h-319l8 69h303z" />
    <glyph glyph-name="emacron" unicode="&#x113;" 
d="M152 208v-3q4 -57 40.5 -91.5t97.5 -34.5q76 0 144 42l15 -98q-70 -38 -167 -38q-111 0 -178.5 65.5t-67.5 175.5q0 112 67 181t171 69q90 0 140 -50.5t50 -136.5q0 -44 -10 -77zM155 277l198 1v8q0 101 -88 101q-46 0 -75.5 -32t-34.5 -78zM417 544h-319l8 69h303z" />
    <glyph glyph-name="Ebreve" unicode="&#x114;" horiz-adv-x="545" 
d="M498 0h-426v625h426v-103h-306v-157h251v-103h-251v-159h306v-103zM468 871q-9 -89 -55 -139t-116 -50t-116 50.5t-55 138.5l80 -1q21 -111 91 -111q71 0 91 111z" />
    <glyph glyph-name="ebreve" unicode="&#x115;" 
d="M152 208v-3q4 -57 40.5 -91.5t97.5 -34.5q76 0 144 42l15 -98q-70 -38 -167 -38q-111 0 -178.5 65.5t-67.5 175.5q0 112 67 181t171 69q90 0 140 -50.5t50 -136.5q0 -44 -10 -77zM155 277l198 1v8q0 101 -88 101q-46 0 -75.5 -32t-34.5 -78zM428 708q-9 -89 -55 -139
t-116 -50t-116 50.5t-55 138.5l80 -1q21 -111 91 -111q71 0 91 111z" />
    <glyph glyph-name="Edotaccent" unicode="&#x116;" horiz-adv-x="545" 
d="M498 0h-426v625h426v-103h-306v-157h251v-103h-251v-159h306v-103zM360 756q0 -31 -19.5 -52.5t-51.5 -21.5t-51.5 21.5t-19.5 52.5q0 30 20 51.5t51 21.5t51 -21.5t20 -51.5z" />
    <glyph glyph-name="edotaccent" unicode="&#x117;" 
d="M152 208v-3q4 -57 40.5 -91.5t97.5 -34.5q76 0 144 42l15 -98q-70 -38 -167 -38q-111 0 -178.5 65.5t-67.5 175.5q0 112 67 181t171 69q90 0 140 -50.5t50 -136.5q0 -44 -10 -77zM155 277l198 1v8q0 101 -88 101q-46 0 -75.5 -32t-34.5 -78zM329 593q0 -31 -19.5 -52.5
t-51.5 -21.5t-51.5 21.5t-19.5 52.5q0 30 20 51.5t51 21.5t51 -21.5t20 -51.5z" />
    <glyph glyph-name="Eogonek" unicode="&#x118;" horiz-adv-x="545" 
d="M499 0h-58q-57 -43 -57 -89q0 -22 11.5 -34.5t32.5 -12.5q29 0 51 15l20 -70q-42 -28 -98 -28q-51 0 -82 27.5t-31 72.5q0 73 80 119h-296v625h427v-104h-306v-155h251v-105h-251v-157h306v-104z" />
    <glyph glyph-name="eogonek" unicode="&#x119;" 
d="M153 208v-3q4 -57 40.5 -91t96.5 -34q80 0 144 42l15 -99q-45 -12 -80 -43.5t-35 -68.5q0 -22 11.5 -34.5t32.5 -12.5q29 0 51 15l20 -70q-42 -28 -98 -28q-51 0 -82 27.5t-31 72.5q0 63 58 104h-14q-111 0 -178.5 65.5t-67.5 175.5q0 112 67 181t171 69q91 0 141 -50.5
t50 -136.5q0 -44 -10 -77zM156 277l196 1q1 2 1 8q0 101 -88 101q-46 0 -75 -32t-34 -78z" />
    <glyph glyph-name="Ecaron" unicode="&#x11a;" horiz-adv-x="545" 
d="M466 873l-117 -187h-114l-117 187h83l90 -117h2l89 117h84zM498 0h-426v625h426v-103h-306v-157h251v-103h-251v-159h306v-103z" />
    <glyph glyph-name="ecaron" unicode="&#x11b;" 
d="M431 710l-117 -187h-114l-117 187h83l90 -117h2l89 117h84zM152 208v-3q4 -57 40.5 -91.5t97.5 -34.5q76 0 144 42l15 -98q-70 -38 -167 -38q-111 0 -178.5 65.5t-67.5 175.5q0 112 67 181t171 69q90 0 140 -50.5t50 -136.5q0 -44 -10 -77zM155 277l198 1v8
q0 101 -88 101q-46 0 -75.5 -32t-34.5 -78z" />
    <glyph glyph-name="Gcircumflex" unicode="&#x11c;" horiz-adv-x="657" 
d="M515 686h-83l-90 118h-2l-89 -118h-84l117 187h114zM601 44q-104 -59 -234 -59q-146 0 -235.5 88t-89.5 238t89.5 239.5t236.5 89.5q58 0 119 -14.5t102 -39.5l-39 -106q-89 55 -180 55q-93 0 -149 -59.5t-56 -160.5q0 -105 54.5 -166t150.5 -61q63 0 118 25v120h-164
v103h277v-292z" />
    <glyph glyph-name="gcircumflex" unicode="&#x11d;" horiz-adv-x="503" 
d="M414 523h-83l-90 118h-2l-89 -118h-84l117 187h114zM107 -19q-31 11 -50.5 32t-19.5 48q0 31 23.5 57.5t61.5 39.5q-39 20 -61.5 57.5t-22.5 84.5q0 74 55 125t148 51q64 0 130 -29l124 11l5 -103l-88 15q21 -23 21 -72q0 -71 -54.5 -119.5t-138.5 -48.5q-30 0 -63 8
q-36 -14 -36 -40q0 -19 20.5 -27.5t74.5 -8.5v0h1h1h1h1h1h1h2h1h1h1h1h2h1h2h1h2h1h2h2h1h2h2h2h2h2h2h2h8q207 0 207 -127q0 -80 -78.5 -132t-190.5 -52q-95 0 -157 34t-62 94q0 38 27 66t77 36zM152 299q0 -42 24 -67t66 -25q39 0 61 26t22 70q0 43 -22.5 68t-65.5 25
q-39 0 -62 -26.5t-23 -70.5zM168 -35q-58 -21 -58 -62q0 -32 36.5 -52.5t94.5 -20.5q62 0 102.5 21.5t40.5 56.5q0 31 -30 42t-98 11q-50 0 -88 4z" />
    <glyph glyph-name="Gbreve" unicode="&#x11e;" horiz-adv-x="657" 
d="M601 44q-104 -59 -234 -59q-146 0 -235.5 88t-89.5 238t89.5 239.5t236.5 89.5q58 0 119 -14.5t102 -39.5l-39 -106q-89 55 -180 55q-93 0 -149 -59.5t-56 -160.5q0 -105 54.5 -166t150.5 -61q63 0 118 25v120h-164v103h277v-292zM508 871q-9 -89 -55 -139t-116 -50
t-116 50.5t-55 138.5l80 -1q21 -111 91 -111q71 0 91 111z" />
    <glyph glyph-name="gbreve" unicode="&#x11f;" horiz-adv-x="503" 
d="M107 -19q-31 11 -50.5 32t-19.5 48q0 31 23.5 57.5t61.5 39.5q-39 20 -61.5 57.5t-22.5 84.5q0 74 55 125t148 51q64 0 130 -29l124 11l5 -103l-88 15q21 -23 21 -72q0 -71 -54.5 -119.5t-138.5 -48.5q-30 0 -63 8q-36 -14 -36 -40q0 -19 20.5 -27.5t74.5 -8.5v0h1h1h1h1
h1h1h2h1h1h1h1h2h1h2h1h2h1h2h2h1h2h2h2h2h2h2h2h8q207 0 207 -127q0 -80 -78.5 -132t-190.5 -52q-95 0 -157 34t-62 94q0 38 27 66t77 36zM152 299q0 -42 24 -67t66 -25q39 0 61 26t22 70q0 43 -22.5 68t-65.5 25q-39 0 -62 -26.5t-23 -70.5zM168 -35q-58 -21 -58 -62
q0 -32 36.5 -52.5t94.5 -20.5q62 0 102.5 21.5t40.5 56.5q0 31 -30 42t-98 11q-50 0 -88 4zM420 708q-9 -89 -55 -139t-116 -50t-116 50.5t-55 138.5l80 -1q21 -111 91 -111q71 0 91 111z" />
    <glyph glyph-name="Gdotaccent" unicode="&#x120;" horiz-adv-x="657" 
d="M601 44q-104 -59 -234 -59q-146 0 -235.5 88t-89.5 238t89.5 239.5t236.5 89.5q58 0 119 -14.5t102 -39.5l-39 -106q-89 55 -180 55q-93 0 -149 -59.5t-56 -160.5q0 -105 54.5 -166t150.5 -61q63 0 118 25v120h-164v103h277v-292zM431 756q0 -31 -19.5 -52.5t-51.5 -21.5
t-51.5 21.5t-19.5 52.5q0 30 20 51.5t51 21.5t51 -21.5t20 -51.5z" />
    <glyph glyph-name="gdotaccent" unicode="&#x121;" horiz-adv-x="503" 
d="M107 -19q-31 11 -50.5 32t-19.5 48q0 31 23.5 57.5t61.5 39.5q-39 20 -61.5 57.5t-22.5 84.5q0 74 55 125t148 51q64 0 130 -29l124 11l5 -103l-88 15q21 -23 21 -72q0 -71 -54.5 -119.5t-138.5 -48.5q-30 0 -63 8q-36 -14 -36 -40q0 -19 20.5 -27.5t74.5 -8.5v0h1h1h1h1
h1h1h2h1h1h1h1h2h1h2h1h2h1h2h2h1h2h2h2h2h2h2h2h8q207 0 207 -127q0 -80 -78.5 -132t-190.5 -52q-95 0 -157 34t-62 94q0 38 27 66t77 36zM152 299q0 -42 24 -67t66 -25q39 0 61 26t22 70q0 43 -22.5 68t-65.5 25q-39 0 -62 -26.5t-23 -70.5zM168 -35q-58 -21 -58 -62
q0 -32 36.5 -52.5t94.5 -20.5q62 0 102.5 21.5t40.5 56.5q0 31 -30 42t-98 11q-50 0 -88 4zM316 593q0 -31 -19.5 -52.5t-51.5 -21.5t-51.5 21.5t-19.5 52.5q0 30 20 51.5t51 21.5t51 -21.5t20 -51.5z" />
    <glyph glyph-name="Gcommaaccent" unicode="&#x122;" horiz-adv-x="657" 
d="M294 -112q2 25 20.5 43t47.5 18q35 0 57.5 -23.5t22.5 -59.5q0 -91 -123 -143l-31 31q65 41 65 79q0 18 -12 30t-47 25zM601 44q-104 -59 -234 -59q-146 0 -235.5 88t-89.5 238t89.5 239.5t236.5 89.5q58 0 119 -14.5t102 -39.5l-39 -106q-89 55 -180 55
q-93 0 -149 -59.5t-56 -160.5q0 -105 54.5 -166t150.5 -61q63 0 118 25v120h-164v103h277v-292z" />
    <glyph glyph-name="gcommaaccent" unicode="&#x123;" horiz-adv-x="503" 
d="M319 583q-2 -25 -20.5 -43t-47.5 -18q-35 0 -57.5 23.5t-22.5 59.5q0 91 123 143l31 -31q-65 -41 -65 -79q0 -18 12 -30t47 -25zM107 -19q-31 11 -50.5 32t-19.5 48q0 31 23.5 57.5t61.5 39.5q-39 20 -61.5 57.5t-22.5 84.5q0 74 55 125t148 51q64 0 130 -29l124 11
l5 -103l-88 15q21 -23 21 -72q0 -71 -54.5 -119.5t-138.5 -48.5q-30 0 -63 8q-36 -14 -36 -40q0 -19 20.5 -27.5t74.5 -8.5v0h1h1h1h1h1h1h2h1h1h1h1h2h1h2h1h2h1h2h2h1h2h2h2h2h2h2h2h8q207 0 207 -127q0 -80 -78.5 -132t-190.5 -52q-95 0 -157 34t-62 94q0 38 27 66t77 36
zM152 299q0 -42 24 -67t66 -25q39 0 61 26t22 70q0 43 -22.5 68t-65.5 25q-39 0 -62 -26.5t-23 -70.5zM168 -35q-58 -21 -58 -62q0 -32 36.5 -52.5t94.5 -20.5q62 0 102.5 21.5t40.5 56.5q0 31 -30 42t-98 11q-50 0 -88 4z" />
    <glyph glyph-name="Hcircumflex" unicode="&#x124;" horiz-adv-x="685" 
d="M518 686h-83l-90 118h-2l-89 -118h-84l117 187h114zM612 0h-121v262h-297v-262h-122v625h122v-257h297v257h121v-625z" />
    <glyph glyph-name="hcircumflex" unicode="&#x125;" horiz-adv-x="542" 
d="M305 686h-83l-90 118h-2l-89 -118h-84l117 187h114zM481 0h-118v281q0 49 -19 70t-58 21q-60 0 -105 -43v-329h-118v668l118 16v-281q67 73 156 73q67 0 105.5 -42.5t38.5 -116.5v-317z" />
    <glyph glyph-name="Hbar" unicode="&#x126;" horiz-adv-x="685" 
d="M613 0h-122v261h-296v-261h-123v450h-77l7 71h70v104h123v-104h296v104h122v-104h65l8 -71h-73v-450zM195 368h296v82h-296v-82z" />
    <glyph glyph-name="hbar" unicode="&#x127;" horiz-adv-x="542" 
d="M482 0h-119v281q0 49 -19 69.5t-57 20.5q-60 0 -105 -43v-328h-119v523h-65l8 71h57v74l119 16v-90h109l8 -71h-117v-120q67 73 156 73q67 0 105.5 -42.5t38.5 -116.5v-317z" />
    <glyph glyph-name="Imacron" unicode="&#x12a;" horiz-adv-x="270" 
d="M195 0h-121v625h121v-625zM283 707h-293l7 70h279z" />
    <glyph glyph-name="imacron" unicode="&#x12b;" horiz-adv-x="245" 
d="M184 0h-118v456l118 13v-469zM271 547h-290l8 67h274z" />
    <glyph glyph-name="Ibreve" unicode="&#x12c;" horiz-adv-x="270" 
d="M195 0h-121v625h121v-625zM308 871q-9 -89 -55 -139t-116 -50t-116 50.5t-55 138.5l80 -1q21 -111 91 -111q71 0 91 111z" />
    <glyph glyph-name="ibreve" unicode="&#x12d;" horiz-adv-x="245" 
d="M184 0h-118v456l118 13v-469zM296 708q-9 -89 -55 -139t-116 -50t-116 50.5t-55 138.5l80 -1q21 -111 91 -111q71 0 91 111z" />
    <glyph glyph-name="Iogonek" unicode="&#x12e;" horiz-adv-x="270" 
d="M135 -219q-51 0 -82.5 27t-31.5 73q0 73 79 119h-26v625h122v-625q-34 -15 -56 -39.5t-22 -49.5q0 -22 11.5 -34.5t32.5 -12.5q29 0 51 15l19 -70q-40 -28 -97 -28z" />
    <glyph glyph-name="iogonek" unicode="&#x12f;" horiz-adv-x="245" 
d="M119 -219q-51 0 -82 27.5t-31 72.5q0 37 22 68t58 51h-23v458l119 17v-475q-80 -33 -80 -89q0 -22 11.5 -34.5t32.5 -12.5q29 0 51 15l20 -70q-42 -28 -98 -28zM196 616q0 -33 -19.5 -52.5t-53.5 -19.5q-35 0 -54 19.5t-19 52.5q0 32 19 51.5t54 19.5q34 0 53.5 -19.5
t19.5 -51.5z" />
    <glyph glyph-name="Idotaccent" unicode="&#x130;" horiz-adv-x="270" 
d="M195 0h-121v625h121v-625zM208 756q0 -31 -19.5 -52.5t-51.5 -21.5t-51.5 21.5t-19.5 52.5q0 30 20 51.5t51 21.5t51 -21.5t20 -51.5z" />
    <glyph glyph-name="dotlessi" unicode="&#x131;" horiz-adv-x="244" 
d="M184 0h-118v456l118 13v-469z" />
    <glyph glyph-name="Jcircumflex" unicode="&#x134;" horiz-adv-x="446" 
d="M487 686h-83l-90 118h-2l-89 -118h-84l117 187h114zM375 205q0 -105 -51 -162.5t-155 -57.5q-91 0 -157 41l22 105q66 -41 123 -41q51 0 74 29.5t23 93.5v412h121v-420z" />
    <glyph glyph-name="jcircumflex" unicode="&#x135;" horiz-adv-x="243" 
d="M54 -245l-73 81q44 21 63 56t19 107v0v0v0v0v0v0v0v0v0v1v0v0v1v0v1v0v1v0v1v0v1v0v1v0v1v1v1v1v0v1v1v1v1v1v1v1v1v1v1v1v1v1v1v1v1v1v1v1v1v1v1v1v1v1v1v1v1v1v1v1v1v1v1v1v1v1v1v1v1v1v1v1v1v1v1v1v1v1v1v1v1v1v1v1v1v1v1v1v1v1v1v1v1v1v1v1v1v1v1v1v1v1v1v1v1v2v1v1
v1v1v1v1v1v1v1v2v1v1v1v1v1v1v2v1v1v1v1v1v2v1v1v1v1v2v1v1v1v1v2v1v1v1v2v1v1v1v2v1v1v1v2v1v1v2v1v1v1v2v1v1v2v1v1v2v1v1v2v1v1v2v1v1v2v1v1v2v1v2v1v1v2v1v1v2v1v2v1v1v2v1v2v1v2v1v1v2v1v2v1v2v1v2v1v1v2v1v2v1v2v1v2v1v2v1v2v1v2v1v2v1v2v1v2v1v2v2v1v2v1v2v1v2v1v2v1
v2v2v1v2v1v2v2v1v2v1v2v1v2v2v1v2v2v1v2v1v2v2v1v2v2v1v2v1v2v2v1v2v2v1v2v2v1v2v2v1v2v2v2v1v2v2v1v2v2v2v1v2v2v1v2v2v2v1v2v2v2v1v2v2v2v1v2v2v2v1v2v2v2v2v1v2v2v2v2v1v2v2v2v2v1v2v2v2v2v2v1v2v2v2v2v2v1v2v2v2v2v2v2v1v2v2v2v2v2v9l119 17v0v0v0v0v-1v0v0v0v-1v0v0v-1
v0v-1v0v-1v0v-1v0v-1v0v-1v-1v0v-1v-1v-1v-1v-1v-1v-1v-1v-1v-1v-1v-1v-1v-1v-1v-1v-1v-1v-1v-1v-1v-1v-1v-1v-1v-1v-1v-1v-1v-1v-1v-1v-1v-1v-1v-1v-1v-1v-1v-1v-1v-1v-1v-1v-1v-1v-1v-1v-1v-1v-1v-1v-1v-1v-1v-1v-1v-1v-1v-1v-1v-1v-1v-1v-1v-1v-1v-1v-1v-1v-1v-1v-1v-1
v-1v-1v-1v-1v-1v-1v-1v-2v-1v-1v-1v-1v-1v-1v-1v-1v-2v-1v-1v-1v-1v-1v-1v-2v-1v-1v-1v-1v-2v-1v-1v-1v-1v-2v-1v-1v-1v-1v-2v-1v-1v-1v-2v-1v-1v-1v-2v-1v-1v-1v-2v-1v-1v-2v-1v-1v-1v-2v-1v-1v-2v-1v-1v-2v-1v-1v-2v-1v-1v-2v-1v-1v-2v-1v-1v-2v-1v-2v-1v-1v-2v-1v-2v-1
v-1v-2v-1v-2v-1v-1v-2v-1v-2v-1v-2v-1v-2v-1v-1v-2v-1v-2v-1v-2v-1v-2v-1v-2v-1v-2v-1v-2v-1v-2v-1v-2v-1v-2v-1v-2v-1v-2v-1v-2v-2v-1v-2v-1v-2v-1v-2v-1v-2v-2v-1v-2v-1v-2v-2v-1v-2v-1v-2v-2v-1v-2v-1v-2v-2v-1v-2v-2v-1v-2v-1v-2v-2v-1v-2v-2v-1v-2v-2v-1v-2v-2v-1v-2
v-2v-2v-1v-2v-2v-1v-2v-2v-1v-2v-2v-2v-1v-2v-2v-2v-1v-2v-2v-2v-1v-2v-2v-2v-1v-2v-2v-2v-2v-1v-2v-2v-2v-2v-1v-2v-2v-2v-2v-1v-2v-2v-2v-2v-2v-2v-1v-2v-2v-2v-2v-2v-2v-1v-2v-2v-2v-2v-2v-2v-2v-2v-2v-2v-2v-1v-2v-2v-2v-2v-2v-2v-2v-2v-2v-2v-2v-2v-2v-2v-2v-3v-2v-8
q0 -100 -29.5 -156t-98.5 -85zM297 523h-83l-90 118h-2l-89 -118h-84l117 187h114z" />
    <glyph glyph-name="Kcommaaccent" unicode="&#x136;" horiz-adv-x="588" 
d="M237 -112q2 25 20.5 43t47.5 18q35 0 57.5 -23.5t22.5 -59.5q0 -91 -123 -143l-31 31q65 41 65 79q0 18 -12 30t-47 25zM194 338h1l236 287h145l-268 -307l272 -318h-149l-236 286h-1v-286h-122v625h122v-287z" />
    <glyph glyph-name="kcommaaccent" unicode="&#x137;" horiz-adv-x="495" 
d="M186 -112q2 25 20.5 43t47.5 18q35 0 57.5 -23.5t22.5 -59.5q0 -91 -123 -143l-31 31q65 41 65 79q0 18 -12 30t-47 25zM183 222h-2v-222h-118v668l118 16v-428h2l165 205h141l-191 -219l192 -242h-141z" />
    <glyph glyph-name="Lacute" unicode="&#x139;" horiz-adv-x="507" 
d="M312 869l-157 -183h-78l102 183h133zM476 0h-404v625h122v-518h282v-107z" />
    <glyph glyph-name="lacute" unicode="&#x13a;" horiz-adv-x="245" 
d="M298 890l-157 -183h-78l102 183h133zM181 0h-118v668l118 16v-684z" />
    <glyph glyph-name="Lcommaaccent" unicode="&#x13b;" horiz-adv-x="507" 
d="M192 -112q2 25 20.5 43t47.5 18q35 0 57.5 -23.5t22.5 -59.5q0 -91 -123 -143l-31 31q65 41 65 79q0 18 -12 30t-47 25zM476 0h-404v625h122v-518h282v-107z" />
    <glyph glyph-name="lcommaaccent" unicode="&#x13c;" horiz-adv-x="245" 
d="M49 -112q2 25 20.5 43t47.5 18q35 0 57.5 -23.5t22.5 -59.5q0 -91 -123 -143l-31 31q65 41 65 79q0 18 -12 30t-47 25zM181 0h-118v668l118 16v-684z" />
    <glyph glyph-name="Lcaron" unicode="&#x13d;" horiz-adv-x="631" 
d="M471 563q4 33 28 54t60 21q42 0 72 -32t30 -77q0 -105 -158 -200l-52 47q101 71 101 116q0 20 -17.5 35.5t-63.5 35.5zM476 0h-404v625h122v-518h282v-107z" />
    <glyph glyph-name="lcaron" unicode="&#x13e;" horiz-adv-x="491" 
d="M283 619q4 33 28 54t60 21q42 0 72 -32t30 -77q0 -105 -158 -200l-52 47q101 71 101 116q0 20 -17.5 35.5t-63.5 35.5zM181 0h-118v668l118 16v-684z" />
    <glyph glyph-name="Ldot" unicode="&#x13f;" horiz-adv-x="591" 
d="M476 0h-404v625h122v-518h282v-107zM643 298q0 -30 -20.5 -52.5t-51.5 -22.5q-32 0 -53.5 22.5t-21.5 52.5t21.5 51t53.5 21t52 -21t20 -51z" />
    <glyph glyph-name="ldotaccent" unicode="&#x140;" horiz-adv-x="446" 
d="M181 0h-118v668l118 16v-684zM427 298q0 -30 -20.5 -52.5t-51.5 -22.5q-32 0 -53.5 22.5t-21.5 52.5t21.5 51t53.5 21t52 -21t20 -51z" />
    <glyph glyph-name="Lslash" unicode="&#x141;" horiz-adv-x="531" 
d="M222 266v-158h282v-108h-403v234l-84 -23v97l84 23v294h121v-262l149 40v-97z" />
    <glyph glyph-name="lslash" unicode="&#x142;" horiz-adv-x="295" 
d="M210 265v-265h-118v233l-77 -21v99l77 21v336l118 16v-320l76 20v-99z" />
    <glyph glyph-name="Nacute" unicode="&#x143;" horiz-adv-x="690" 
d="M514 869l-157 -183h-78l102 183h133zM501 170v455h116v-631h-130l-299 460v-454h-116v625h133z" />
    <glyph glyph-name="nacute" unicode="&#x144;" horiz-adv-x="542" 
d="M417 706l-157 -183h-78l102 183h133zM481 0h-118v281q0 50 -19.5 70.5t-60.5 20.5q-57 0 -102 -43v-329h-118v459l118 16v-73q67 74 152 74q70 0 109 -42.5t39 -116.5v-317z" />
    <glyph glyph-name="Ncommaaccent" unicode="&#x145;" horiz-adv-x="690" 
d="M277 -112q2 25 20.5 43t47.5 18q35 0 57.5 -23.5t22.5 -59.5q0 -91 -123 -143l-31 31q65 41 65 79q0 18 -12 30t-47 25zM501 170v455h116v-631h-130l-299 460v-454h-116v625h133z" />
    <glyph glyph-name="ncommaaccent" unicode="&#x146;" horiz-adv-x="542" 
d="M200 -112q2 25 20.5 43t47.5 18q35 0 57.5 -23.5t22.5 -59.5q0 -91 -123 -143l-31 31q65 41 65 79q0 18 -12 30t-47 25zM481 0h-118v281q0 50 -19.5 70.5t-60.5 20.5q-57 0 -102 -43v-329h-118v459l118 16v-73q67 74 152 74q70 0 109 -42.5t39 -116.5v-317z" />
    <glyph glyph-name="Ncaron" unicode="&#x147;" horiz-adv-x="690" 
d="M525 873l-117 -187h-114l-117 187h83l90 -117h2l89 117h84zM501 170v455h116v-631h-130l-299 460v-454h-116v625h133z" />
    <glyph glyph-name="ncaron" unicode="&#x148;" horiz-adv-x="542" 
d="M439 710l-117 -187h-114l-117 187h83l90 -117h2l89 117h84zM481 0h-118v281q0 50 -19.5 70.5t-60.5 20.5q-57 0 -102 -43v-329h-118v459l118 16v-73q67 74 152 74q70 0 109 -42.5t39 -116.5v-317z" />
    <glyph glyph-name="Omacron" unicode="&#x14c;" horiz-adv-x="726" 
d="M519 707h-319l8 69h303zM684 315q0 -144 -91 -237t-230 -93q-142 0 -231.5 87.5t-89.5 238.5q0 144 91.5 236.5t230.5 92.5q141 0 230.5 -87t89.5 -238zM562 311q0 103 -55 165t-146 62q-89 0 -142.5 -61.5t-53.5 -161.5q0 -103 54.5 -165.5t145.5 -62.5q89 0 143 62
t54 162z" />
    <glyph glyph-name="omacron" unicode="&#x14d;" horiz-adv-x="544" 
d="M429 544h-319l8 69h303zM508 231q0 -111 -68 -178.5t-171 -67.5t-168 66t-65 179q0 112 67.5 179.5t171.5 67.5q103 0 168 -66.5t65 -179.5zM391 230q0 68 -32 110t-88 42q-57 0 -88 -41.5t-31 -109.5q0 -67 32 -108.5t89 -41.5q56 0 87 40.5t31 108.5z" />
    <glyph glyph-name="Obreve" unicode="&#x14e;" horiz-adv-x="726" 
d="M684 315q0 -144 -91 -237t-230 -93q-142 0 -231.5 87.5t-89.5 238.5q0 144 91.5 236.5t230.5 92.5q141 0 230.5 -87t89.5 -238zM562 311q0 103 -55 165t-146 62q-89 0 -142.5 -61.5t-53.5 -161.5q0 -103 54.5 -165.5t145.5 -62.5q89 0 143 62t54 162zM527 871
q-9 -89 -55 -139t-116 -50t-116 50.5t-55 138.5l80 -1q21 -111 91 -111q71 0 91 111z" />
    <glyph glyph-name="obreve" unicode="&#x14f;" horiz-adv-x="544" 
d="M508 231q0 -111 -68 -178.5t-171 -67.5t-168 66t-65 179q0 112 67.5 179.5t171.5 67.5q103 0 168 -66.5t65 -179.5zM391 230q0 68 -32 110t-88 42q-57 0 -88 -41.5t-31 -109.5q0 -67 32 -108.5t89 -41.5q56 0 87 40.5t31 108.5zM434 708q-9 -89 -55 -139t-116 -50
t-116 50.5t-55 138.5l80 -1q21 -111 91 -111q71 0 91 111z" />
    <glyph glyph-name="Ohungarumlaut" unicode="&#x150;" horiz-adv-x="726" 
d="M620 864l-166 -181h-85l138 181h113zM417 864l-143 -181h-87l117 181h113zM684 315q0 -144 -91 -237t-230 -93q-142 0 -231.5 87.5t-89.5 238.5q0 144 91.5 236.5t230.5 92.5q141 0 230.5 -87t89.5 -238zM562 311q0 103 -55 165t-146 62q-89 0 -142.5 -61.5t-53.5 -161.5
q0 -103 54.5 -165.5t145.5 -62.5q89 0 143 62t54 162z" />
    <glyph glyph-name="ohungarumlaut" unicode="&#x151;" horiz-adv-x="544" 
d="M527 704l-166 -181h-85l138 181h113zM324 704l-143 -181h-87l117 181h113zM508 231q0 -111 -68 -178.5t-171 -67.5t-168 66t-65 179q0 112 67.5 179.5t171.5 67.5q103 0 168 -66.5t65 -179.5zM391 230q0 68 -32 110t-88 42q-57 0 -88 -41.5t-31 -109.5q0 -67 32 -108.5
t89 -41.5q56 0 87 40.5t31 108.5z" />
    <glyph glyph-name="OE" unicode="&#x152;" horiz-adv-x="940" 
d="M900 625v-103h-305v-157h253v-103h-253v-159h305v-103h-518q-158 0 -248 83.5t-90 224.5q0 147 89 232t253 85h514zM167 314q0 -105 56.5 -158t165.5 -53h84v419h-90q-101 0 -158.5 -53t-57.5 -155z" />
    <glyph glyph-name="oe" unicode="&#x153;" horiz-adv-x="847" 
d="M444 68q-63 -83 -175 -83q-103 0 -168 66t-65 179q0 112 67.5 179.5t171.5 67.5q112 0 172 -83q65 82 175 82q90 0 140 -50.5t50 -136.5q0 -44 -10 -77l-302 -4v-3q3 -57 40 -91.5t97 -34.5q78 0 144 42l15 -98q-70 -38 -167 -38q-118 0 -185 83zM503 277l197 1q1 2 1 8
q0 101 -88 101q-46 0 -75.5 -32t-34.5 -78zM152 231q0 -67 32 -108.5t89 -41.5q56 0 87 40.5t31 108.5t-32 110t-88 42q-57 0 -88 -41.5t-31 -109.5z" />
    <glyph glyph-name="Racute" unicode="&#x154;" horiz-adv-x="582" 
d="M419 869l-157 -183h-78l102 183h133zM194 223v-223h-122v625v0v0v0h1v0h1v0h1h1v0h1h1h1h1h1h1h1h1h1h1h1h1h1h1h1h1h1h1h1h1h1h1h1h1h1h1h1h1h1h1h1h1h1h1h1h2h1h1h1h1h1h1h1h1h2h1h1h1h1h1h2h1h1h1h2h1h1h1h2h1h1h2h1h1h2h1h1h2h1h1h2h1h1h2h1h2h1h1h2h1h2h1h2h1h2h1h2
h1h2h1h2h1h2h1h2h1h2h2h1h2h1h2h2h1h2h1h2h2h1h2h2h1h2h2h1h2h2h1h2h2h1h2h2h2h1h2h2h2h1h2h2h2h2h1h2h2h2h2h2h1h2h2h2h2h2h2h2h1h9q116 0 179 -51t63 -139q0 -66 -35 -112t-100 -68l164 -255h-139l-139 229zM193 319l91 2q58 3 91 29.5t33 76.5q0 96 -136 96h-79v-204z
" />
    <glyph glyph-name="racute" unicode="&#x155;" horiz-adv-x="392" 
d="M384 706l-157 -183h-78l102 183h133zM181 285v-285h-118v458l118 17v-75q45 76 120 76q47 0 82 -21l-26 -106q-33 18 -66 18q-65 0 -110 -82z" />
    <glyph glyph-name="Rcommaaccent" unicode="&#x156;" horiz-adv-x="582" 
d="M214 -112q2 25 20.5 43t47.5 18q35 0 57.5 -23.5t22.5 -59.5q0 -91 -123 -143l-31 31q65 41 65 79q0 18 -12 30t-47 25zM194 223v-223h-122v625v0v0v0h1v0h1v0h1h1v0h1h1h1h1h1h1h1h1h1h1h1h1h1h1h1h1h1h1h1h1h1h1h1h1h1h1h1h1h1h1h1h1h1h1h1h2h1h1h1h1h1h1h1h1h2h1h1h1
h1h1h2h1h1h1h2h1h1h1h2h1h1h2h1h1h2h1h1h2h1h1h2h1h1h2h1h2h1h1h2h1h2h1h2h1h2h1h2h1h2h1h2h1h2h1h2h1h2h2h1h2h1h2h2h1h2h1h2h2h1h2h2h1h2h2h1h2h2h1h2h2h1h2h2h2h1h2h2h2h1h2h2h2h2h1h2h2h2h2h2h1h2h2h2h2h2h2h2h1h9q116 0 179 -51t63 -139q0 -66 -35 -112t-100 -68
l164 -255h-139l-139 229zM193 319l91 2q58 3 91 29.5t33 76.5q0 96 -136 96h-79v-204z" />
    <glyph glyph-name="rcommaaccent" unicode="&#x157;" horiz-adv-x="392" 
d="M54 -112q2 25 20.5 43t47.5 18q35 0 57.5 -23.5t22.5 -59.5q0 -91 -123 -143l-31 31q65 41 65 79q0 18 -12 30t-47 25zM181 285v-285h-118v458l118 17v-75q45 76 120 76q47 0 82 -21l-26 -106q-33 18 -66 18q-65 0 -110 -82z" />
    <glyph glyph-name="Rcaron" unicode="&#x158;" horiz-adv-x="582" 
d="M445 873l-117 -187h-114l-117 187h83l90 -117h2l89 117h84zM194 223v-223h-122v625v0v0v0h1v0h1v0h1h1v0h1h1h1h1h1h1h1h1h1h1h1h1h1h1h1h1h1h1h1h1h1h1h1h1h1h1h1h1h1h1h1h1h1h1h1h2h1h1h1h1h1h1h1h1h2h1h1h1h1h1h2h1h1h1h2h1h1h1h2h1h1h2h1h1h2h1h1h2h1h1h2h1h1h2h1h2
h1h1h2h1h2h1h2h1h2h1h2h1h2h1h2h1h2h1h2h1h2h2h1h2h1h2h2h1h2h1h2h2h1h2h2h1h2h2h1h2h2h1h2h2h1h2h2h2h1h2h2h2h1h2h2h2h2h1h2h2h2h2h2h1h2h2h2h2h2h2h2h1h9q116 0 179 -51t63 -139q0 -66 -35 -112t-100 -68l164 -255h-139l-139 229zM193 319l91 2q58 3 91 29.5t33 76.5
q0 96 -136 96h-79v-204z" />
    <glyph glyph-name="rcaron" unicode="&#x159;" horiz-adv-x="392" 
d="M381 710l-117 -187h-114l-117 187h83l90 -117h2l89 117h84zM181 285v-285h-118v458l118 17v-75q45 76 120 76q47 0 82 -21l-26 -106q-33 18 -66 18q-65 0 -110 -82z" />
    <glyph glyph-name="Sacute" unicode="&#x15a;" horiz-adv-x="537" 
d="M419 869l-157 -183h-78l102 183h133zM260 88q51 0 83.5 23t32.5 60q0 36 -31.5 55.5t-107.5 40.5q-41 11 -69.5 23t-60 33.5t-48 54.5t-16.5 77q0 84 60.5 134.5t163.5 50.5q118 0 215 -55l-30 -103q-90 54 -184 54q-53 0 -79 -20t-26 -54q0 -35 34 -54.5t108 -39.5
q41 -11 70.5 -24t59.5 -34.5t45.5 -54t15.5 -75.5q0 -87 -64.5 -141t-173.5 -54q-130 0 -225 58l28 105q99 -60 199 -60z" />
    <glyph glyph-name="sacute" unicode="&#x15b;" horiz-adv-x="432" 
d="M386 706l-157 -183h-78l102 183h133zM398 134q0 -66 -52.5 -108t-139.5 -42q-103 0 -179 43l26 92q76 -43 156 -43q35 0 55.5 13.5t20.5 37.5q0 25 -23 38t-70 24q-74 17 -115 49.5t-41 93.5q0 65 50.5 104.5t133.5 39.5q96 0 168 -37l-26 -92q-74 38 -145 38
q-69 0 -69 -46q0 -24 22.5 -36t70.5 -24q75 -18 116 -50.5t41 -94.5z" />
    <glyph glyph-name="Scircumflex" unicode="&#x15c;" horiz-adv-x="537" 
d="M447 686h-83l-90 118h-2l-89 -118h-84l117 187h114zM260 88q51 0 83.5 23t32.5 60q0 36 -31.5 55.5t-107.5 40.5q-41 11 -69.5 23t-60 33.5t-48 54.5t-16.5 77q0 84 60.5 134.5t163.5 50.5q118 0 215 -55l-30 -103q-90 54 -184 54q-53 0 -79 -20t-26 -54q0 -35 34 -54.5
t108 -39.5q41 -11 70.5 -24t59.5 -34.5t45.5 -54t15.5 -75.5q0 -87 -64.5 -141t-173.5 -54q-130 0 -225 58l28 105q99 -60 199 -60z" />
    <glyph glyph-name="scircumflex" unicode="&#x15d;" horiz-adv-x="432" 
d="M399 523h-83l-90 118h-2l-89 -118h-84l117 187h114zM398 134q0 -66 -52.5 -108t-139.5 -42q-103 0 -179 43l26 92q76 -43 156 -43q35 0 55.5 13.5t20.5 37.5q0 25 -23 38t-70 24q-74 17 -115 49.5t-41 93.5q0 65 50.5 104.5t133.5 39.5q96 0 168 -37l-26 -92
q-74 38 -145 38q-69 0 -69 -46q0 -24 22.5 -36t70.5 -24q75 -18 116 -50.5t41 -94.5z" />
    <glyph glyph-name="Scedilla" unicode="&#x15e;" horiz-adv-x="537" 
d="M250 -59q57 -2 91 -26t34 -65q0 -100 -181 -122l-7 61q111 7 111 54q0 53 -118 38l-9 47l60 58q-116 6 -198 57l28 105q99 -60 199 -60q51 0 83.5 23t32.5 60q0 36 -31.5 55.5t-107.5 40.5q-41 11 -69.5 23t-60 33.5t-48 54.5t-16.5 77q0 84 60.5 134.5t163.5 50.5
q118 0 215 -55l-30 -103q-90 54 -184 54q-53 0 -79 -20t-26 -54q0 -35 34 -54.5t108 -39.5q41 -11 70.5 -24t59.5 -34.5t45.5 -54t15.5 -75.5q0 -78 -52.5 -130t-142.5 -62z" />
    <glyph glyph-name="scedilla" unicode="&#x15f;" horiz-adv-x="432" 
d="M196 -59q57 -2 91 -26t34 -65q0 -100 -181 -122l-7 61q111 7 111 54q0 53 -118 38l-9 47l60 57q-91 9 -150 42l26 92q76 -43 156 -43q35 0 55.5 13.5t20.5 37.5q0 25 -23 38t-70 24q-74 17 -115 49.5t-41 93.5q0 65 50.5 104.5t133.5 39.5q96 0 168 -37l-26 -92
q-74 38 -145 38q-69 0 -69 -46q0 -24 22.5 -36t70.5 -24q75 -18 116 -50.5t41 -94.5q0 -57 -41 -97t-111 -50z" />
    <glyph glyph-name="Scaron" unicode="&#x160;" horiz-adv-x="536" 
d="M260 88q51 0 83.5 23t32.5 60q0 36 -31.5 55.5t-107.5 40.5q-41 11 -69.5 23t-60 33.5t-48 54.5t-16.5 77q0 84 60.5 134.5t163.5 50.5q118 0 215 -55l-30 -103q-90 54 -184 54q-53 0 -79 -20t-26 -54q0 -35 34 -54.5t108 -39.5q41 -11 70.5 -24t59.5 -34.5t45.5 -54
t15.5 -75.5q0 -87 -64.5 -141t-173.5 -54q-130 0 -225 58l28 105q99 -60 199 -60zM444 867l-117 -187h-114l-117 187h83l90 -117h2l89 117h84z" />
    <glyph glyph-name="scaron" unicode="&#x161;" horiz-adv-x="431" 
d="M398 134q0 -66 -52.5 -108t-139.5 -42q-103 0 -179 43l26 92q76 -43 156 -43q35 0 55.5 13.5t20.5 37.5q0 25 -23 38t-70 24q-74 17 -115 49.5t-41 93.5q0 65 50.5 104.5t133.5 39.5q96 0 168 -37l-26 -92q-74 38 -145 38q-69 0 -69 -46q0 -24 22.5 -36t70.5 -24
q75 -18 116 -50.5t41 -94.5zM391 710l-117 -187h-114l-117 187h83l90 -117h2l89 117h84z" />
    <glyph glyph-name="Tcommaaccent" unicode="&#x162;" horiz-adv-x="581" 
d="M216 -112q2 25 20.5 43t47.5 18q35 0 57.5 -23.5t22.5 -59.5q0 -91 -123 -143l-31 31q65 41 65 79q0 18 -12 30t-47 25zM560 518h-209v-518h-121v518h-209v107h539v-107z" />
    <glyph glyph-name="tcommaaccent" unicode="&#x163;" horiz-adv-x="359" 
d="M132 -112q2 25 20.5 43t47.5 18q35 0 57.5 -23.5t22.5 -59.5q0 -91 -123 -143l-31 31q65 41 65 79q0 18 -12 30t-47 25zM333 3q-53 -18 -107 -18q-79 0 -117.5 37.5t-35.5 118.5l7 217l-72 8l3 75l72 23l2 102h114l-2 -108h130l-3 -97h-134l-6 -213q-1 -63 61 -63
q30 0 72 14z" />
    <glyph glyph-name="Tcaron" unicode="&#x164;" horiz-adv-x="581" 
d="M466 873l-117 -187h-114l-117 187h83l90 -117h2l89 117h84zM560 518h-209v-518h-121v518h-209v107h539v-107z" />
    <glyph glyph-name="tcaron" unicode="&#x165;" horiz-adv-x="359" 
d="M238 709q4 33 28 54t60 21q42 0 72 -32t30 -77q0 -105 -158 -200l-52 47q101 71 101 116q0 20 -17.5 35.5t-63.5 35.5zM333 3q-53 -18 -107 -18q-79 0 -117.5 37.5t-35.5 118.5l7 217l-72 8l3 75l72 23l2 102h114l-2 -108h130l-3 -97h-134l-6 -213q-1 -63 61 -63
q30 0 72 14z" />
    <glyph glyph-name="Umacron" unicode="&#x16a;" horiz-adv-x="660" 
d="M590 248q0 -127 -68 -195t-193 -68q-122 0 -191 65.5t-69 186.5v388h122v-372q0 -161 142 -161q136 0 136 156v0v0v0v0v0v1v0v0v1v0v1v0v1v0v1v1v0v1v1v0v1v1v1v1v1v1v1v1v1v1v1v1v1v1v1v1v1v1v1v1v1v1v1v1v1v1v1v1v1v1v1v1v1v1v1v1v1v1v1v1v1v1v1v1v1v1v1v1v1v1v1v1v1v1
v1v1v1v1v1v1v1v1v1v1v1v2v1v1v1v1v1v1v1v1v2v1v1v1v1v1v2v1v1v1v1v1v2v1v1v1v1v2v1v1v1v2v1v1v1v2v1v1v2v1v1v1v2v1v1v2v1v1v2v1v1v2v1v1v2v1v1v2v1v1v2v1v2v1v1v2v1v2v1v1v2v1v2v1v2v1v2v1v1v2v1v2v1v2v1v2v1v2v1v2v1v2v1v2v1v2v1v2v1v2v1v2v2v1v2v1v2v1v2v1v2v2v1v2v1v2v2
v1v2v1v2v2v1v2v2v1v2v1v2v2v1v2v2v1v2v2v1v2v2v1v2v2v2v1v2v2v1v2v2v2v1v2v2v1v2v2v2v1v2v2v2v1v2v2v2v2v1v2v2v2v2v1v2v2v2v2v1v2v2v2v2v2v1v2v2v2v2v2v1v2v2v2v2v2v2v9h121v-377zM490 707h-319l8 69h303z" />
    <glyph glyph-name="umacron" unicode="&#x16b;" horiz-adv-x="538" 
d="M59 461h118v-281q0 -49 19.5 -69.5t58.5 -20.5q59 0 101 40v331h118v-458l-118 -16v68q-65 -70 -152 -70q-68 0 -106.5 42.5t-38.5 116.5v317zM426 544h-319l8 69h303z" />
    <glyph glyph-name="Ubreve" unicode="&#x16c;" horiz-adv-x="660" 
d="M590 248q0 -127 -68 -195t-193 -68q-122 0 -191 65.5t-69 186.5v388h122v-372q0 -161 142 -161q136 0 136 156v0v0v0v0v0v1v0v0v1v0v1v0v1v0v1v1v0v1v1v0v1v1v1v1v1v1v1v1v1v1v1v1v1v1v1v1v1v1v1v1v1v1v1v1v1v1v1v1v1v1v1v1v1v1v1v1v1v1v1v1v1v1v1v1v1v1v1v1v1v1v1v1v1v1
v1v1v1v1v1v1v1v1v1v1v1v2v1v1v1v1v1v1v1v1v2v1v1v1v1v1v2v1v1v1v1v1v2v1v1v1v1v2v1v1v1v2v1v1v1v2v1v1v2v1v1v1v2v1v1v2v1v1v2v1v1v2v1v1v2v1v1v2v1v1v2v1v2v1v1v2v1v2v1v1v2v1v2v1v2v1v2v1v1v2v1v2v1v2v1v2v1v2v1v2v1v2v1v2v1v2v1v2v1v2v1v2v2v1v2v1v2v1v2v1v2v2v1v2v1v2v2
v1v2v1v2v2v1v2v2v1v2v1v2v2v1v2v2v1v2v2v1v2v2v1v2v2v2v1v2v2v1v2v2v2v1v2v2v1v2v2v2v1v2v2v2v1v2v2v2v2v1v2v2v2v2v1v2v2v2v2v1v2v2v2v2v2v1v2v2v2v2v2v1v2v2v2v2v2v2v9h121v-377zM502 871q-9 -89 -55 -139t-116 -50t-116 50.5t-55 138.5l80 -1q21 -111 91 -111
q71 0 91 111z" />
    <glyph glyph-name="ubreve" unicode="&#x16d;" horiz-adv-x="538" 
d="M59 461h118v-281q0 -49 19.5 -69.5t58.5 -20.5q59 0 101 40v331h118v-458l-118 -16v68q-65 -70 -152 -70q-68 0 -106.5 42.5t-38.5 116.5v317zM436 708q-9 -89 -55 -139t-116 -50t-116 50.5t-55 138.5l80 -1q21 -111 91 -111q71 0 91 111z" />
    <glyph glyph-name="Uring" unicode="&#x16e;" horiz-adv-x="660" 
d="M464 785q0 -48 -36.5 -80.5t-96.5 -32.5t-96.5 32.5t-36.5 80.5q0 49 36.5 82t96.5 33t96 -33t37 -82zM408 786q0 29 -21 48.5t-56 19.5q-34 0 -55 -19.5t-21 -48.5t21 -48.5t55 -19.5q35 0 56 19.5t21 48.5zM590 248q0 -127 -68 -195t-193 -68q-122 0 -191 65.5
t-69 186.5v388h122v-372q0 -161 142 -161q136 0 136 156v0v0v0v0v0v1v0v0v1v0v1v0v1v0v1v1v0v1v1v0v1v1v1v1v1v1v1v1v1v1v1v1v1v1v1v1v1v1v1v1v1v1v1v1v1v1v1v1v1v1v1v1v1v1v1v1v1v1v1v1v1v1v1v1v1v1v1v1v1v1v1v1v1v1v1v1v1v1v1v1v1v1v1v1v1v2v1v1v1v1v1v1v1v1v2v1v1v1v1v1
v2v1v1v1v1v1v2v1v1v1v1v2v1v1v1v2v1v1v1v2v1v1v2v1v1v1v2v1v1v2v1v1v2v1v1v2v1v1v2v1v1v2v1v1v2v1v2v1v1v2v1v2v1v1v2v1v2v1v2v1v2v1v1v2v1v2v1v2v1v2v1v2v1v2v1v2v1v2v1v2v1v2v1v2v1v2v2v1v2v1v2v1v2v1v2v2v1v2v1v2v2v1v2v1v2v2v1v2v2v1v2v1v2v2v1v2v2v1v2v2v1v2v2v1v2v2v2
v1v2v2v1v2v2v2v1v2v2v1v2v2v2v1v2v2v2v1v2v2v2v2v1v2v2v2v2v1v2v2v2v2v1v2v2v2v2v2v1v2v2v2v2v2v1v2v2v2v2v2v2v9h121v-377z" />
    <glyph glyph-name="uring" unicode="&#x16f;" horiz-adv-x="538" 
d="M398 635q0 -48 -36.5 -80.5t-96.5 -32.5t-96.5 32.5t-36.5 80.5q0 49 36.5 82t96.5 33t96 -33t37 -82zM342 636q0 29 -21 48.5t-56 19.5q-34 0 -55 -19.5t-21 -48.5t21 -48.5t55 -19.5q35 0 56 19.5t21 48.5zM59 461h118v-281q0 -49 19.5 -69.5t58.5 -20.5q59 0 101 40
v331h118v-458l-118 -16v68q-65 -70 -152 -70q-68 0 -106.5 42.5t-38.5 116.5v317z" />
    <glyph glyph-name="Uhungarumlaut" unicode="&#x170;" horiz-adv-x="660" 
d="M590 248q0 -127 -68 -195t-193 -68q-122 0 -191 65.5t-69 186.5v388h122v-372q0 -161 142 -161q136 0 136 156v0v0v0v0v0v1v0v0v1v0v1v0v1v0v1v1v0v1v1v0v1v1v1v1v1v1v1v1v1v1v1v1v1v1v1v1v1v1v1v1v1v1v1v1v1v1v1v1v1v1v1v1v1v1v1v1v1v1v1v1v1v1v1v1v1v1v1v1v1v1v1v1v1v1
v1v1v1v1v1v1v1v1v1v1v1v2v1v1v1v1v1v1v1v1v2v1v1v1v1v1v2v1v1v1v1v1v2v1v1v1v1v2v1v1v1v2v1v1v1v2v1v1v2v1v1v1v2v1v1v2v1v1v2v1v1v2v1v1v2v1v1v2v1v1v2v1v2v1v1v2v1v2v1v1v2v1v2v1v2v1v2v1v1v2v1v2v1v2v1v2v1v2v1v2v1v2v1v2v1v2v1v2v1v2v1v2v2v1v2v1v2v1v2v1v2v2v1v2v1v2v2
v1v2v1v2v2v1v2v2v1v2v1v2v2v1v2v2v1v2v2v1v2v2v1v2v2v2v1v2v2v1v2v2v2v1v2v2v1v2v2v2v1v2v2v2v1v2v2v2v2v1v2v2v2v2v1v2v2v2v2v1v2v2v2v2v2v1v2v2v2v2v2v1v2v2v2v2v2v2v9h121v-377zM606 867l-166 -181h-85l138 181h113zM403 867l-143 -181h-87l117 181h113z" />
    <glyph glyph-name="uhungarumlaut" unicode="&#x171;" horiz-adv-x="538" 
d="M59 461h118v-281q0 -49 19.5 -69.5t58.5 -20.5q59 0 101 40v331h118v-458l-118 -16v68q-65 -70 -152 -70q-68 0 -106.5 42.5t-38.5 116.5v317zM525 704l-166 -181h-85l138 181h113zM322 704l-143 -181h-87l117 181h113z" />
    <glyph glyph-name="Uogonek" unicode="&#x172;" horiz-adv-x="660" 
d="M590 248q0 -168 -123 -237q-78 -44 -78 -100q0 -22 11.5 -34.5t32.5 -12.5q29 0 51 15l20 -70q-42 -28 -98 -28q-51 0 -82 27.5t-31 72.5q0 62 58 105q-3 0 -11 -0.5t-11 -0.5q-122 0 -191 65.5t-69 186.5v388h123v-371q0 -161 141 -161q135 0 135 155v377h122v-377z" />
    <glyph glyph-name="uogonek" unicode="&#x173;" horiz-adv-x="538" 
d="M59 461h119v-281q0 -48 19 -68.5t58 -20.5q58 0 101 39v331h119v-460q-46 -8 -85.5 -35t-39.5 -55q0 -22 11.5 -34.5t32.5 -12.5q29 0 51 15l20 -70q-40 -28 -98 -28q-51 0 -82 27.5t-31 72.5q0 43 29 76.5t73 52.5v45q-65 -70 -152 -70q-68 0 -106.5 42.5t-38.5 116.5
v317z" />
    <glyph glyph-name="Wcircumflex" unicode="&#x174;" horiz-adv-x="928" 
d="M640 686h-83l-90 118h-2l-89 -118h-84l117 187h114zM464 483l-141 -483h-124l-172 625h130l109 -476l130 476h140l132 -476l108 476h124l-172 -625h-126z" />
    <glyph glyph-name="wcircumflex" unicode="&#x175;" horiz-adv-x="729" 
d="M540 523h-83l-90 118h-2l-89 -118h-84l117 187h114zM264 -2h-115l-137 463h123l80 -324l92 323h118l99 -321l69 322h125l-135 -463h-116l-103 324z" />
    <glyph glyph-name="Ycircumflex" unicode="&#x176;" horiz-adv-x="577" 
d="M566 625l-217 -383v-242h-121v243l-218 382h132l148 -270l145 270h131zM465 686h-83l-90 118h-2l-89 -118h-84l117 187h114z" />
    <glyph glyph-name="ycircumflex" unicode="&#x177;" horiz-adv-x="475" 
d="M476 461l-176 -452l-27 -72q-34 -92 -75.5 -128t-107.5 -36q-58 0 -117 27l35 97q46 -22 73 -22q26 0 42.5 16t34.5 62l20 53l-180 455h127l115 -330l110 330h126zM411 523h-83l-90 118h-2l-89 -118h-84l117 187h114z" />
    <glyph glyph-name="Ydieresis" unicode="&#x178;" horiz-adv-x="576" 
d="M566 625l-217 -383v-242h-121v243l-218 382h132l148 -270l145 270h131zM468 752q0 -32 -19.5 -51.5t-50.5 -19.5t-50.5 19.5t-19.5 51.5q0 31 19.5 50t50.5 19t50.5 -19t19.5 -50zM249 752q0 -32 -19.5 -51.5t-50.5 -19.5t-50.5 20t-19.5 51t19.5 50t50.5 19t50.5 -19
t19.5 -50z" />
    <glyph glyph-name="Zacute" unicode="&#x179;" horiz-adv-x="552" 
d="M443 869l-157 -183h-78l102 183h133zM512 0h-485v84l333 435h-327v106h480v-86l-332 -433h331v-106z" />
    <glyph glyph-name="zacute" unicode="&#x17a;" horiz-adv-x="435" 
d="M379 706l-157 -183h-78l102 183h133zM412 0h-392v81l241 280h-232v100h383v-79l-242 -281h242v-101z" />
    <glyph glyph-name="Zdotaccent" unicode="&#x17b;" horiz-adv-x="552" 
d="M512 0h-485v84l333 435h-327v106h480v-86l-332 -433h331v-106zM348 756q0 -31 -19.5 -52.5t-51.5 -21.5t-51.5 21.5t-19.5 52.5q0 30 20 51.5t51 21.5t51 -21.5t20 -51.5z" />
    <glyph glyph-name="zdotaccent" unicode="&#x17c;" horiz-adv-x="435" 
d="M412 0h-392v81l241 280h-232v100h383v-79l-242 -281h242v-101zM288 593q0 -31 -19.5 -52.5t-51.5 -21.5t-51.5 21.5t-19.5 52.5q0 30 20 51.5t51 21.5t51 -21.5t20 -51.5z" />
    <glyph glyph-name="Zcaron" unicode="&#x17d;" horiz-adv-x="551" 
d="M512 0h-485v84l333 435h-327v106h480v-86l-332 -433h331v-106zM444 864l-117 -187h-114l-117 187h83l90 -117h2l89 117h84z" />
    <glyph glyph-name="zcaron" unicode="&#x17e;" horiz-adv-x="434" 
d="M412 0h-392v81l241 280h-232v100h383v-79l-242 -281h242v-101zM386 710l-117 -187h-114l-117 187h83l90 -117h2l89 117h84z" />
    <glyph glyph-name="florin" unicode="&#x192;" horiz-adv-x="404" 
d="M97 162l27 144l-112 6l19 75l109 22l12 65q28 160 161 160q70 0 123 -34l-42 -91q-41 25 -71 25q-26 0 -40.5 -16.5t-21.5 -53.5l-11 -60h125l-16 -97h-122l-27 -141q-14 -84 -58 -127t-133 -57l-27 95q92 14 105 85z" />
    <glyph glyph-name="Aringacute" unicode="&#x1fa;" horiz-adv-x="610" 
d="M439 1005l-157 -183h-78l102 183h133zM222 599q-49 31 -49 87q0 49 36.5 81.5t95.5 32.5q60 0 95.5 -32.5t36.5 -81.5q2 -55 -48 -87l216 -599h-123l-52 148h-252l-51 -148h-123zM383 687q0 29 -21.5 48.5t-56.5 19.5q-34 0 -55 -19.5t-21 -48.5t21 -48.5t55 -19.5
q35 0 56.5 19.5t21.5 48.5zM399 249l-94 271l-95 -271h189z" />
    <glyph glyph-name="aringacute" unicode="&#x1fb;" horiz-adv-x="482" 
d="M309 53h-4q-56 -68 -130 -68q-62 0 -102.5 37.5t-40.5 92.5q0 155 273 164v11q0 47 -21.5 67.5t-70.5 20.5q-67 0 -153 -49l-24 93q87 54 193 54q105 0 150.5 -46.5t43.5 -143.5v-165q0 -26 7 -33t34 -9l-9 -89q-118 -13 -146 63zM305 111v106q-86 -11 -121.5 -30
t-35.5 -56q0 -27 19 -43.5t50 -16.5q51 0 88 40zM381 958l-157 -183h-78l102 183h133zM358 635q0 -48 -36.5 -80.5t-96.5 -32.5t-96.5 32.5t-36.5 80.5q0 49 36.5 82t96.5 33t96 -33t37 -82zM302 636q0 29 -21 48.5t-56 19.5q-34 0 -55 -19.5t-21 -48.5t21 -48.5t55 -19.5
q35 0 56 19.5t21 48.5z" />
    <glyph glyph-name="AEacute" unicode="&#x1fc;" horiz-adv-x="866" 
d="M697 869l-157 -183h-78l102 183h133zM201 148l-77 -148h-132l331 625h502v-103h-307v-157h255v-103h-255v-159h307v-103h-427v148h-197zM251 251h147v284z" />
    <glyph glyph-name="aeacute" unicode="&#x1fd;" horiz-adv-x="770" 
d="M553 706l-157 -183h-78l102 183h133zM350 80q-70 -95 -175 -95q-62 0 -102.5 37.5t-40.5 92.5q0 156 281 164v9q0 49 -24.5 69.5t-75.5 20.5q-67 0 -153 -49l-24 93q87 54 194 54q116 0 160 -63q60 63 157 63q89 0 137.5 -51t48.5 -136q0 -44 -10 -77l-301 -4v-3
q3 -57 39.5 -91.5t97.5 -34.5q78 0 144 42l15 -98q-70 -38 -167 -38q-134 0 -201 95zM424 277l198 1v8q0 101 -87 101q-46 0 -76 -32t-35 -78zM313 217q-88 -7 -126.5 -28t-38.5 -58q0 -27 19.5 -43.5t52.5 -16.5q28 0 58 15.5t49 39.5q-11 31 -14 91z" />
    <glyph glyph-name="Oslashacute" unicode="&#x1fe;" horiz-adv-x="726" 
d="M686 315q0 -144 -91 -237t-230 -93q-77 0 -142 28l-45 -80h-68l62 108q-61 41 -94.5 110.5t-33.5 159.5q0 144 91.5 236.5t230.5 92.5q71 0 138 -27l46 79h68l-61 -106q129 -88 129 -271zM451 520q-39 18 -88 18q-89 0 -142.5 -61.5t-53.5 -161.5q0 -113 65 -175z
M497 488l-220 -381q39 -20 90 -20q89 0 142.5 62t53.5 162q0 114 -66 177zM545 862l-157 -183h-78l102 183h133z" />
    <glyph glyph-name="oslashacute" unicode="&#x1ff;" horiz-adv-x="544" 
d="M511 231q0 -111 -67 -178.5t-171 -67.5q-51 0 -94 17l-41 -69h-69q4 6 10 16.5l18.5 32t20.5 36.5l8 14q-87 68 -87 199q0 111 67.5 178.5t171.5 67.5q54 0 96 -18l39 67h70l-57 -97q85 -69 85 -198zM328 376q-25 13 -54 13q-57 0 -88.5 -42.5t-31.5 -113.5
q0 -65 28 -109zM397 230q0 62 -27 107l-144 -252q27 -10 52 -10q57 0 88 42t31 113zM426 706l-157 -183h-78l102 183h133z" />
    <glyph glyph-name="Scommaaccent" unicode="&#x218;" horiz-adv-x="537" 
d="M198 -112q2 25 20.5 43t47.5 18q35 0 57.5 -23.5t22.5 -59.5q0 -91 -123 -143l-31 31q65 41 65 79q0 18 -12 30t-47 25zM260 88q51 0 83.5 23t32.5 60q0 36 -31.5 55.5t-107.5 40.5q-41 11 -69.5 23t-60 33.5t-48 54.5t-16.5 77q0 84 60.5 134.5t163.5 50.5
q118 0 215 -55l-30 -103q-90 54 -184 54q-53 0 -79 -20t-26 -54q0 -35 34 -54.5t108 -39.5q41 -11 70.5 -24t59.5 -34.5t45.5 -54t15.5 -75.5q0 -87 -64.5 -141t-173.5 -54q-130 0 -225 58l28 105q99 -60 199 -60z" />
    <glyph glyph-name="scommaaccent" unicode="&#x219;" horiz-adv-x="432" 
d="M137 -112q2 25 20.5 43t47.5 18q35 0 57.5 -23.5t22.5 -59.5q0 -91 -123 -143l-31 31q65 41 65 79q0 18 -12 30t-47 25zM398 134q0 -66 -52.5 -108t-139.5 -42q-103 0 -179 43l26 92q76 -43 156 -43q35 0 55.5 13.5t20.5 37.5q0 25 -23 38t-70 24q-74 17 -115 49.5
t-41 93.5q0 65 50.5 104.5t133.5 39.5q96 0 168 -37l-26 -92q-74 38 -145 38q-69 0 -69 -46q0 -24 22.5 -36t70.5 -24q75 -18 116 -50.5t41 -94.5z" />
    <glyph glyph-name="uni021A" unicode="&#x21a;" horiz-adv-x="581" 
d="M216 -112q2 25 20.5 43t47.5 18q35 0 57.5 -23.5t22.5 -59.5q0 -91 -123 -143l-31 31q65 41 65 79q0 18 -12 30t-47 25zM560 518h-209v-518h-121v518h-209v107h539v-107z" />
    <glyph glyph-name="uni021B" unicode="&#x21b;" horiz-adv-x="359" 
d="M132 -112q2 25 20.5 43t47.5 18q35 0 57.5 -23.5t22.5 -59.5q0 -91 -123 -143l-31 31q65 41 65 79q0 18 -12 30t-47 25zM333 3q-53 -18 -107 -18q-79 0 -117.5 37.5t-35.5 118.5l7 217l-72 8l3 75l72 23l2 102h114l-2 -108h130l-3 -97h-134l-6 -213q-1 -63 61 -63
q30 0 72 14z" />
    <glyph glyph-name="dotlessj" unicode="&#x237;" horiz-adv-x="243" 
d="M54 -245l-73 81q44 21 63 56t19 107v0v0v0v0v0v0v0v0v0v1v0v0v1v0v1v0v1v0v1v0v1v0v1v0v1v1v1v1v0v1v1v1v1v1v1v1v1v1v1v1v1v1v1v1v1v1v1v1v1v1v1v1v1v1v1v1v1v1v1v1v1v1v1v1v1v1v1v1v1v1v1v1v1v1v1v1v1v1v1v1v1v1v1v1v1v1v1v1v1v1v1v1v1v1v1v1v1v1v1v1v1v1v1v1v1v2v1v1
v1v1v1v1v1v1v1v2v1v1v1v1v1v1v2v1v1v1v1v1v2v1v1v1v1v2v1v1v1v1v2v1v1v1v2v1v1v1v2v1v1v1v2v1v1v2v1v1v1v2v1v1v2v1v1v2v1v1v2v1v1v2v1v1v2v1v1v2v1v2v1v1v2v1v1v2v1v2v1v1v2v1v2v1v2v1v1v2v1v2v1v2v1v2v1v1v2v1v2v1v2v1v2v1v2v1v2v1v2v1v2v1v2v1v2v1v2v2v1v2v1v2v1v2v1v2v1
v2v2v1v2v1v2v2v1v2v1v2v1v2v2v1v2v2v1v2v1v2v2v1v2v2v1v2v1v2v2v1v2v2v1v2v2v1v2v2v1v2v2v2v1v2v2v1v2v2v2v1v2v2v1v2v2v2v1v2v2v2v1v2v2v2v1v2v2v2v1v2v2v2v2v1v2v2v2v2v1v2v2v2v2v1v2v2v2v2v2v1v2v2v2v2v2v1v2v2v2v2v2v2v1v2v2v2v2v2v9l119 17v0v0v0v0v-1v0v0v0v-1v0v0v-1
v0v-1v0v-1v0v-1v0v-1v0v-1v-1v0v-1v-1v-1v-1v-1v-1v-1v-1v-1v-1v-1v-1v-1v-1v-1v-1v-1v-1v-1v-1v-1v-1v-1v-1v-1v-1v-1v-1v-1v-1v-1v-1v-1v-1v-1v-1v-1v-1v-1v-1v-1v-1v-1v-1v-1v-1v-1v-1v-1v-1v-1v-1v-1v-1v-1v-1v-1v-1v-1v-1v-1v-1v-1v-1v-1v-1v-1v-1v-1v-1v-1v-1v-1v-1
v-1v-1v-1v-1v-1v-1v-1v-2v-1v-1v-1v-1v-1v-1v-1v-1v-2v-1v-1v-1v-1v-1v-1v-2v-1v-1v-1v-1v-2v-1v-1v-1v-1v-2v-1v-1v-1v-1v-2v-1v-1v-1v-2v-1v-1v-1v-2v-1v-1v-1v-2v-1v-1v-2v-1v-1v-1v-2v-1v-1v-2v-1v-1v-2v-1v-1v-2v-1v-1v-2v-1v-1v-2v-1v-1v-2v-1v-2v-1v-1v-2v-1v-2v-1
v-1v-2v-1v-2v-1v-1v-2v-1v-2v-1v-2v-1v-2v-1v-1v-2v-1v-2v-1v-2v-1v-2v-1v-2v-1v-2v-1v-2v-1v-2v-1v-2v-1v-2v-1v-2v-1v-2v-1v-2v-2v-1v-2v-1v-2v-1v-2v-1v-2v-2v-1v-2v-1v-2v-2v-1v-2v-1v-2v-2v-1v-2v-1v-2v-2v-1v-2v-2v-1v-2v-1v-2v-2v-1v-2v-2v-1v-2v-2v-1v-2v-2v-1v-2
v-2v-2v-1v-2v-2v-1v-2v-2v-1v-2v-2v-2v-1v-2v-2v-2v-1v-2v-2v-2v-1v-2v-2v-2v-1v-2v-2v-2v-2v-1v-2v-2v-2v-2v-1v-2v-2v-2v-2v-1v-2v-2v-2v-2v-2v-2v-1v-2v-2v-2v-2v-2v-2v-1v-2v-2v-2v-2v-2v-2v-2v-2v-2v-2v-2v-1v-2v-2v-2v-2v-2v-2v-2v-2v-2v-2v-2v-2v-2v-2v-2v-3v-2v-8
q0 -100 -29.5 -156t-98.5 -85z" />
    <glyph glyph-name="circumflex" unicode="&#x2c6;" horiz-adv-x="396" 
d="M374 523h-83l-90 118h-2l-89 -118h-84l117 187h114z" />
    <glyph glyph-name="caron" unicode="&#x2c7;" horiz-adv-x="396" 
d="M374 710l-117 -187h-114l-117 187h83l90 -117h2l89 117h84z" />
    <glyph glyph-name="breve" unicode="&#x2d8;" horiz-adv-x="396" 
d="M371 708q-9 -89 -55 -139t-116 -50t-116 50.5t-55 138.5l80 -1q21 -111 91 -111q71 0 91 111z" />
    <glyph glyph-name="dotaccent" unicode="&#x2d9;" horiz-adv-x="396" 
d="M271 593q0 -31 -19.5 -52.5t-51.5 -21.5t-51.5 21.5t-19.5 52.5q0 30 20 51.5t51 21.5t51 -21.5t20 -51.5z" />
    <glyph glyph-name="ring" unicode="&#x2da;" horiz-adv-x="396" 
d="M333 635q0 -48 -36.5 -80.5t-96.5 -32.5t-96.5 32.5t-36.5 80.5q0 49 36.5 82t96.5 33t96 -33t37 -82zM277 636q0 29 -21 48.5t-56 19.5q-34 0 -55 -19.5t-21 -48.5t21 -48.5t55 -19.5q35 0 56 19.5t21 48.5z" />
    <glyph glyph-name="ogonek" unicode="&#x2db;" horiz-adv-x="396" 
d="M319 -220q-61 -46 -124 -46q-55 0 -90.5 31.5t-35.5 81.5q0 57 51 109t135 74h82q-91 -35 -139.5 -81.5t-48.5 -89.5q0 -26 16 -41.5t44 -15.5q44 0 101 34z" />
    <glyph glyph-name="tilde" unicode="&#x2dc;" horiz-adv-x="395" 
d="M381 666q-8 -75 -32.5 -107t-70.5 -32q-35 0 -87 31.5t-66 31.5q-26 0 -34 -57v0h-1h-1h-1h-1h-1h-1h-1h-1h-1h-1h-1h-1h-1h-2h-1h-1h-1h-1h-2h-1h-1h-2h-1h-2h-1h-2h-1h-2h-1h-2h-1h-2h-2h-1h-2h-2h-2h-2h-1h-2h-2h-2h-2h-2h-2h-10q8 76 33 108t71 32q35 0 87 -32
t65 -32q27 0 34 57v0h1h1h1h1h1h1h1h1h1h1h1h1h1h1h2h1h1h1h1h2h1h1h2h1h2h1h2h1h2h1h2h2h1h2h2h1h2h2h2h1h2h2h2h2h2h2h9z" />
    <glyph glyph-name="hungarumlaut" unicode="&#x2dd;" horiz-adv-x="395" 
d="M489 704l-166 -181h-85l138 181h113zM286 704l-143 -181h-87l117 181h113z" />
    <glyph glyph-name="Wgrave" unicode="&#x1e80;" horiz-adv-x="928" 
d="M464 483l-141 -483h-124l-172 625h130l109 -476l130 476h140l132 -476l108 476h124l-172 -625h-126zM519 686h-79l-157 183h133z" />
    <glyph glyph-name="wgrave" unicode="&#x1e81;" horiz-adv-x="729" 
d="M264 -2h-115l-137 463h123l80 -324l92 323h118l99 -321l69 322h125l-135 -463h-116l-103 324zM419 523h-79l-157 183h133z" />
    <glyph glyph-name="Wacute" unicode="&#x1e82;" horiz-adv-x="928" 
d="M640 869l-157 -183h-78l102 183h133zM464 483l-141 -483h-124l-172 625h130l109 -476l130 476h140l132 -476l108 476h124l-172 -625h-126z" />
    <glyph glyph-name="wacute" unicode="&#x1e83;" horiz-adv-x="729" 
d="M542 706l-157 -183h-78l102 183h133zM264 -2h-115l-137 463h123l80 -324l92 323h118l99 -321l69 322h125l-135 -463h-116l-103 324z" />
    <glyph glyph-name="Wdieresis" unicode="&#x1e84;" horiz-adv-x="928" 
d="M646 761q0 -32 -19.5 -51.5t-50.5 -19.5t-50.5 19.5t-19.5 51.5q0 31 19.5 50t50.5 19t50.5 -19t19.5 -50zM427 761q0 -32 -19.5 -51.5t-50.5 -19.5t-50.5 20t-19.5 51t19.5 50t50.5 19t50.5 -19t19.5 -50zM464 483l-141 -483h-124l-172 625h130l109 -476l130 476h140
l132 -476l108 476h124l-172 -625h-126z" />
    <glyph glyph-name="wdieresis" unicode="&#x1e85;" horiz-adv-x="729" 
d="M545 598q0 -32 -19.5 -51.5t-50.5 -19.5t-50.5 19.5t-19.5 51.5q0 31 19.5 50t50.5 19t50.5 -19t19.5 -50zM326 598q0 -32 -19.5 -51.5t-50.5 -19.5t-50.5 20t-19.5 51t19.5 50t50.5 19t50.5 -19t19.5 -50zM264 -2h-115l-137 463h123l80 -324l92 323h118l99 -321l69 322
h125l-135 -463h-116l-103 324z" />
    <glyph glyph-name="thinspace" unicode="&#x2009;" horiz-adv-x="76" 
 />
    <glyph glyph-name="endash" unicode="&#x2013;" horiz-adv-x="493" 
d="M468 194h-440l3 89h434z" />
    <glyph glyph-name="emdash" unicode="&#x2014;" horiz-adv-x="963" 
d="M938 194h-910l3 89h904z" />
    <glyph glyph-name="quoteleft" unicode="&#x2018;" horiz-adv-x="246" 
d="M213 427q-4 -33 -27.5 -54t-59.5 -21q-42 0 -72.5 32t-30.5 77q0 106 159 200l51 -47q-100 -71 -100 -116q0 -20 17.5 -35.5t62.5 -35.5z" />
    <glyph glyph-name="quoteright" unicode="&#x2019;" horiz-adv-x="246" 
d="M32 593q4 33 28 54t60 21q42 0 72 -32t30 -77q0 -105 -158 -200l-52 47q101 71 101 116q0 20 -17.5 35.5t-63.5 35.5z" />
    <glyph glyph-name="quotesinglbase" unicode="&#x201a;" horiz-adv-x="246" 
d="M32 77q4 33 28 54t60 21q42 0 72 -32t30 -77q0 -105 -158 -200l-52 47q101 71 101 116q0 20 -17.5 35.5t-63.5 35.5z" />
    <glyph glyph-name="quotedblleft" unicode="&#x201c;" horiz-adv-x="487" 
d="M454 427q-4 -33 -27.5 -54t-59.5 -21q-42 0 -72.5 32t-30.5 77q0 106 159 200l51 -47q-100 -71 -100 -116q0 -20 17.5 -35.5t62.5 -35.5zM213 427q-4 -33 -27.5 -54t-59.5 -21q-42 0 -72.5 32t-30.5 77q0 106 159 200l51 -47q-100 -71 -100 -116q0 -20 17.5 -35.5
t62.5 -35.5z" />
    <glyph glyph-name="quotedblright" unicode="&#x201d;" horiz-adv-x="487" 
d="M273 593q4 33 28 54t60 21q42 0 72 -32t30 -77q0 -105 -158 -200l-52 47q101 71 101 116q0 20 -17.5 35.5t-63.5 35.5zM32 593q4 33 28 54t60 21q42 0 72 -32t30 -77q0 -105 -158 -200l-52 47q101 71 101 116q0 20 -17.5 35.5t-63.5 35.5z" />
    <glyph glyph-name="quotedblbase" unicode="&#x201e;" horiz-adv-x="477" 
d="M273 77q4 33 28 54t60 21q42 0 72 -32t30 -77q0 -105 -158 -200l-52 47q101 71 101 116q0 20 -17.5 35.5t-63.5 35.5zM32 77q4 33 28 54t60 21q42 0 72 -32t30 -77q0 -105 -158 -200l-52 47q101 71 101 116q0 20 -17.5 35.5t-63.5 35.5z" />
    <glyph glyph-name="dagger" unicode="&#x2020;" horiz-adv-x="494" 
d="M201 359h-168l-3 86h171v180h92v-180h172l-3 -86h-169v-485h-92v485z" />
    <glyph glyph-name="daggerdbl" unicode="&#x2021;" horiz-adv-x="494" 
d="M202 372h-169l-3 86h171v167h92v-167h172l-3 -86h-170v-246h170l3 -86h-172v-166h-92v166h-171l3 86h169v246z" />
    <glyph glyph-name="bullet" unicode="&#x2022;" horiz-adv-x="444" 
d="M414 232q0 -22 -20 -71.5t-36 -65.5q-15 -15 -65 -35.5t-72 -20.5q-21 0 -71 20.5t-64 35.5q-15 16 -36 66t-21 71q0 22 21 71.5t36 64.5t65 35.5t71 20.5q22 0 71.5 -20.5t64.5 -35.5t35.5 -64.5t20.5 -71.5z" />
    <glyph glyph-name="ellipsis" unicode="&#x2026;" horiz-adv-x="748" 
d="M704 62q0 -33 -22 -55t-56 -22q-33 0 -55.5 22t-22.5 55q0 32 22.5 53.5t55.5 21.5q34 0 56 -21.5t22 -53.5zM453 62q0 -33 -22 -55t-55 -22t-55.5 22t-22.5 55q0 32 22.5 53.5t55.5 21.5t55 -21.5t22 -53.5zM202 62q0 -33 -22 -55t-54 -22q-34 0 -56 22t-22 55
q0 32 22 53.5t56 21.5q32 0 54 -21.5t22 -53.5z" />
    <glyph glyph-name="perthousand" unicode="&#x2030;" horiz-adv-x="1176" 
d="M358 478q0 -74 -46.5 -121.5t-125.5 -47.5q-78 0 -124 47.5t-46 121.5q0 75 46.5 123t124.5 48q79 0 125 -48t46 -123zM692 639l-508 -654h-89l508 654h89zM1160 146q0 -75 -46.5 -123t-124.5 -48q-79 0 -125 48t-46 123q0 74 46.5 121.5t124.5 47.5t124.5 -47.5
t46.5 -121.5zM770 146q0 -75 -46.5 -123t-124.5 -48q-79 0 -124.5 48t-45.5 123q0 74 46 121.5t125 47.5q78 0 124 -47.5t46 -121.5zM279 478q0 47 -25 76t-67 29q-43 0 -68 -29t-25 -76q0 -45 25 -74t68 -29q42 0 67 29t25 74zM1081 146q0 45 -25 74t-67 29t-67 -29
t-25 -74q0 -47 25 -76t67 -29t67 29t25 76zM691 146q0 45 -25 74t-67 29t-67 -29t-25 -74q0 -47 25 -76t68 -29q42 0 66.5 29t24.5 76z" />
    <glyph glyph-name="guilsinglleft" unicode="&#x2039;" horiz-adv-x="353" 
d="M314 97l-17 -79l-269 161v109l269 161l17 -79l-183 -135v-2z" />
    <glyph glyph-name="guilsinglright" unicode="&#x203a;" horiz-adv-x="353" 
d="M325 179l-269 -161l-18 79l183 136v2l-183 135l18 79l269 -161v-109z" />
    <glyph glyph-name="fraction" unicode="&#x2044;" horiz-adv-x="613" 
d="M605 639l-508 -654h-89l509 654h88z" />
    <glyph glyph-name="zerosuperior" unicode="&#x2070;" horiz-adv-x="330" 
d="M313 460q0 -94 -38.5 -145t-111.5 -51q-72 0 -109 50t-37 145q0 93 38.5 144.5t110.5 51.5t109.5 -50.5t37.5 -144.5zM225 458q0 134 -61 134q-60 0 -60 -133q0 -129 62 -129q59 0 59 128z" />
    <glyph glyph-name="foursuperior" unicode="&#x2074;" horiz-adv-x="330" 
d="M322 362h-52v-89h-82v89h-172l-5 59l150 229h109v-223h50zM190 426v157l-101 -157h101z" />
    <glyph glyph-name="fivesuperior" unicode="&#x2075;" horiz-adv-x="330" 
d="M121 501q4 0 16.5 1t20.5 1q67 0 105 -30t38 -81q0 -57 -41 -92.5t-117 -35.5q-72 0 -120 22l9 73q45 -25 107 -25q32 0 52 14.5t20 41.5q0 25 -21.5 39.5t-59.5 14.5q-51 0 -86 -14l-12 13l27 204h234l2 -71h-164z" />
    <glyph glyph-name="sixsuperior" unicode="&#x2076;" horiz-adv-x="330" 
d="M19 430q0 85 62 148.5t172 80.5l21 -67q-65 -9 -111.5 -41t-59.5 -77l3 -1q43 38 97 38q47 0 78 -30.5t31 -82.5q0 -60 -38.5 -97t-107.5 -37q-71 0 -109 45.5t-38 120.5zM103 403q0 -32 17.5 -53.5t49.5 -21.5q27 0 43.5 17.5t16.5 45.5q0 27 -15.5 42.5t-42.5 15.5
q-41 0 -67 -22q-2 -8 -2 -24z" />
    <glyph glyph-name="sevensuperior" unicode="&#x2077;" horiz-adv-x="330" 
d="M218 575h-194l1 72h279l3 -64l-169 -310h-88z" />
    <glyph glyph-name="eightsuperior" unicode="&#x2078;" horiz-adv-x="330" 
d="M315 377q0 -50 -39 -81.5t-112 -31.5q-68 0 -108.5 28.5t-40.5 75.5q0 61 81 87q-74 31 -74 88q0 51 37.5 81.5t108.5 30.5q65 0 102.5 -28t37.5 -76q0 -58 -73 -83q80 -33 80 -91zM226 545q0 23 -16.5 37.5t-43.5 14.5t-42.5 -14t-15.5 -35q0 -42 76 -62q42 22 42 59z
M232 374q0 43 -85 66q-47 -22 -47 -61q0 -24 18 -39t49 -15q65 0 65 49z" />
    <glyph glyph-name="ninesuperior" unicode="&#x2079;" horiz-adv-x="330" 
d="M311 491q0 -86 -62 -150t-172 -80l-21 66q67 12 113 41t59 74h-3q-41 -36 -98 -36q-47 0 -78 31t-31 83q0 60 38 98t107 38q71 0 109.5 -46t38.5 -119zM227 517q0 31 -18 53t-49 22q-28 0 -44 -17.5t-16 -46.5q0 -27 15.5 -44t42.5 -17q40 0 67 23q2 8 2 27z" />
    <glyph glyph-name="plussuperior" unicode="&#x207a;" horiz-adv-x="330" 
d="M290 432h-97v-98h-56v98h-97l1 54h96v98h56v-98h95z" />
    <glyph glyph-name="minussuperior" unicode="&#x207b;" horiz-adv-x="330" 
d="M290 432h-250l1 55h247z" />
    <glyph glyph-name="zeroinferior" unicode="&#x2080;" horiz-adv-x="330" 
d="M313 44q0 -94 -38.5 -145t-111.5 -51q-72 0 -109 50t-37 145q0 93 38.5 144.5t110.5 51.5t109.5 -50.5t37.5 -144.5zM225 42q0 134 -61 134q-60 0 -60 -133q0 -129 62 -129q59 0 59 128z" />
    <glyph glyph-name="oneinferior" unicode="&#x2081;" horiz-adv-x="330" 
d="M143 -143v288l-94 -19l-3 74l193 37v-380h-96z" />
    <glyph glyph-name="twoinferior" unicode="&#x2082;" horiz-adv-x="330" 
d="M296 -143h-273l-2 64q120 102 138 121q38 40 38 73q0 23 -15.5 37t-42.5 14q-47 0 -88 -38q-1 0 -9 16l-15.5 32t-6.5 16q56 47 135 47q63 0 99 -33t36 -84q0 -43 -34.5 -81t-129.5 -112q-1 0 41 0h85h42z" />
    <glyph glyph-name="threeinferior" unicode="&#x2083;" horiz-adv-x="330" 
d="M185 53q56 1 86.5 -24.5t30.5 -64.5q0 -54 -44.5 -85t-115.5 -31q-65 0 -120 25l14 67q56 -23 102 -23q34 0 55.5 12t21.5 36q0 21 -19.5 34.5t-58.5 13.5q-21 -1 -61 -6v61q63 11 92 25t29 38q0 38 -54 38q-50 0 -92 -32l-28 65q55 37 129 37q62 0 98 -24.5t36 -69.5
q0 -68 -101 -92z" />
    <glyph glyph-name="fourinferior" unicode="&#x2084;" horiz-adv-x="330" 
d="M322 -54h-52v-89h-82v89h-172l-5 59l150 229h109v-223h50zM190 10v157l-101 -157h101z" />
    <glyph glyph-name="fiveinferior" unicode="&#x2085;" horiz-adv-x="330" 
d="M121 85q4 0 16.5 1t20.5 1q67 0 105 -30t38 -81q0 -57 -41 -92.5t-117 -35.5q-72 0 -120 22l9 73q45 -25 107 -25q32 0 52 14.5t20 41.5q0 25 -21.5 39.5t-59.5 14.5q-51 0 -86 -14l-12 13l27 204h234l2 -71h-164z" />
    <glyph glyph-name="sixinferior" unicode="&#x2086;" horiz-adv-x="330" 
d="M19 14q0 85 62 148.5t172 80.5l21 -67q-65 -9 -111.5 -41t-59.5 -77l3 -1q43 38 97 38q47 0 78 -30.5t31 -82.5q0 -60 -38.5 -97t-107.5 -37q-71 0 -109 45.5t-38 120.5zM103 -13q0 -32 17.5 -53.5t49.5 -21.5q27 0 43.5 17.5t16.5 45.5q0 27 -15.5 42.5t-42.5 15.5
q-41 0 -67 -22q-2 -8 -2 -24z" />
    <glyph glyph-name="seveninferior" unicode="&#x2087;" horiz-adv-x="330" 
d="M218 159h-194l1 72h279l3 -64l-169 -310h-88z" />
    <glyph glyph-name="eightinferior" unicode="&#x2088;" horiz-adv-x="330" 
d="M315 -39q0 -50 -39 -81.5t-112 -31.5q-68 0 -108.5 28.5t-40.5 75.5q0 61 81 87q-74 31 -74 88q0 51 37.5 81.5t108.5 30.5q65 0 102.5 -28t37.5 -76q0 -58 -73 -83q80 -33 80 -91zM226 129q0 23 -16.5 37.5t-43.5 14.5t-42.5 -14t-15.5 -35q0 -42 76 -62q42 22 42 59z
M232 -42q0 43 -85 66q-47 -22 -47 -61q0 -24 18 -39t49 -15q65 0 65 49z" />
    <glyph glyph-name="nineinferior" unicode="&#x2089;" horiz-adv-x="330" 
d="M311 75q0 -86 -62 -150t-172 -80l-21 66q67 12 113 41t59 74h-3q-41 -36 -98 -36q-47 0 -78 31t-31 83q0 60 38 98t107 38q71 0 109.5 -46t38.5 -119zM227 101q0 31 -18 53t-49 22q-28 0 -44 -17.5t-16 -46.5q0 -27 15.5 -44t42.5 -17q40 0 67 23q2 8 2 27z" />
    <glyph glyph-name="Euro" unicode="&#x20ac;" horiz-adv-x="526" 
d="M103 362v0v0h-1h-1h-1h-1h-1h-1h-1h-1h-1h-1h-1h-1h-1h-1h-2h-1h-1h-1h-1h-2h-1h-1h-1h-2h-1h-2h-1h-1h-2h-1h-2h-1h-2h-1h-2h-1h-2h-2h-1h-2h-2h-1h-2h-2h-1h-2h-2h-9l-3 62h83q22 112 85 165.5t155 53.5q100 0 163 -38l-24 -94q-59 35 -130 35q-101 0 -129 -122h213
l-3 -62h-219q-1 -13 -1 -45q0 -28 3 -52h187l3 -62h-179q30 -121 127 -121q74 0 131 35l18 -95q-63 -37 -163 -37q-202 0 -239 218h-81l3 62h72q-1 14 -1 45q0 35 1 52z" />
    <glyph glyph-name="trademark" unicode="&#x2122;" horiz-adv-x="966" 
d="M887 252h-81l3 291h-12l-93 -280h-90l-80 280h-11l-4 -291h-74l6 374h143l64 -274h12l77 274h136zM398 551h-144v-299h-82v299h-132v75h358v-75z" />
    <glyph glyph-name="minus" unicode="&#x2212;" horiz-adv-x="505" 
d="M469 190h-432l3 94h426z" />
    <glyph glyph-name="uni2215" unicode="&#x2215;" horiz-adv-x="613" 
d="M605 639l-508 -654h-89l509 654h88z" />
    <glyph glyph-name="approxequal" unicode="&#x2248;" horiz-adv-x="485" 
d="M446 398q-10 -57 -45 -95.5t-86 -38.5q-29 0 -81 24.5t-67 24.5q-35 0 -46 -44h-82q10 57 45 95.5t86 38.5q29 0 82.5 -24.5t65.5 -24.5q17 0 28 8.5t19 35.5h81zM446 200q-10 -57 -45 -95.5t-86 -38.5q-29 0 -81 24.5t-67 24.5q-35 0 -46 -44h-82q10 57 45 95.5t86 38.5
q29 0 82.5 -24.5t65.5 -24.5q17 0 28 8.5t19 35.5h81z" />
    <glyph glyph-name="notequal" unicode="&#x2260;" horiz-adv-x="485" 
d="M129 -33l31 121h-122l5 93h142l28 107h-170l-5 93h199l29 111h91l-29 -111h121l-5 -93h-140l-28 -107h168l5 -93h-198l-31 -121h-91z" />
    <glyph glyph-name="lessequal" unicode="&#x2264;" horiz-adv-x="485" 
d="M423 0h-355l3 94h349zM422 202v-93l-361 142v108l361 142v-93l-255 -99v-9z" />
    <glyph glyph-name="greaterequal" unicode="&#x2265;" horiz-adv-x="485" 
d="M417 0h-355l3 94h349zM63 109v93l255 98v9l-255 99v93l361 -142v-108z" />
    <glyph glyph-name="pcircle" unicode="&#x24df;" horiz-adv-x="763" 
d="M381 -37q-144 0 -246 101.5t-102 246.5t102 247.5t246 102.5q145 0 247 -102.5t102 -247.5t-102 -246.5t-247 -101.5zM698 311q0 132 -93 226t-224 94q-130 0 -223 -94.5t-93 -225.5t93 -225t223 -94q131 0 224 94t93 225zM557 366q0 -65 -42.5 -99t-118.5 -34h-44v-106
h-92v364h141q76 0 116 -33.5t40 -91.5zM467 363q0 59 -76 59h-42v-122l43 1q75 1 75 62z" />
    <glyph glyph-name="commaaccent" unicode="&#xf6c3;" horiz-adv-x="396" 
d="M120 -112q2 25 20.5 43t47.5 18q35 0 57.5 -23.5t22.5 -59.5q0 -91 -123 -143l-31 31q65 41 65 79q0 18 -12 30t-47 25z" />
    <glyph glyph-name="J.alt" horiz-adv-x="401" 
d="M343 194q0 -104 -48.5 -156.5t-141.5 -52.5q-76 0 -138 37l13 112q59 -42 112 -42q41 0 61 24.5t20 79.5v429h122v-431z" />
    <glyph glyph-name="a.alt" horiz-adv-x="548" 
d="M367 355q-38 28 -86 28q-58 0 -91 -42.5t-33 -108.5q0 -68 31.5 -108t84.5 -40q50 0 94 39v0v0v0v1v0v0v1v0v1v1v0v1v1v1v1v1v1v1v1v1v1v1v1v1v1v1v1v1v1v1v1v1v1v1v1v1v1v1v1v1v1v1v1v1v1v1v1v1v1v1v1v1v1v2v1v1v1v1v1v1v1v2v1v1v1v1v2v1v1v1v2v1v1v1v2v1v1v1v2v1v1v2v1
v1v2v1v2v1v1v2v1v1v2v1v2v1v2v1v1v2v1v2v1v2v1v2v1v2v1v2v1v2v1v2v1v2v2v1v2v1v2v1v2v2v1v2v2v1v2v1v2v2v1v2v2v1v2v2v1v2v2v2v1v2v2v1v2v2v2v1v2v2v2v1v2v2v2v2v1v2v2v2v2v1v2v2v2v2v2v1v9zM237 -15q-91 0 -146 67t-55 175q0 109 67 179t166 70q60 0 114 -20l103 19v-353
q0 -26 7 -33.5t34 -8.5l-10 -90q-62 -7 -99 11t-49 52q-60 -68 -132 -68z" />
    <glyph glyph-name="g.alt" horiz-adv-x="550" 
d="M487 21q0 -247 -232 -247q-99 0 -180 42l30 98q73 -39 146 -39q117 0 117 128v0v0v1v1v1v1v1v1v1v1v1v1v1v1v2v1v1v1v2v1v1v2v1v2v1v2v1v2v1v10q-56 -56 -128 -56q-91 0 -147.5 66t-56.5 173t67.5 177t166.5 70q59 0 115 -20l102 19v0v0v0v0v-1v0v0v0v-1v0v-1v0v-1v0v-1
v0v-1v-1v0v-1v-1v0v-1v-1v-1v-1v-1v-1v-1v-1v-1v-1v-1v-1v-1v-1v-1v-1v-1v-1v-1v-1v-1v-1v-1v-1v-1v-1v-1v-1v-1v-1v-1v-1v-1v-1v-1v-1v-1v-1v-1v-1v-1v-1v-1v-1v-1v-1v-1v-1v-1v-1v-1v-1v-1v-1v-1v-1v-1v-1v-1v-1v-1v-1v-1v-1v-1v-1v-1v-1v-1v-1v-1v-1v-2v-1v-1v-1v-1v-1
v-1v-1v-1v-1v-1v-2v-1v-1v-1v-1v-1v-1v-2v-1v-1v-1v-1v-1v-2v-1v-1v-1v-1v-2v-1v-1v-1v-1v-2v-1v-1v-1v-2v-1v-1v-1v-2v-1v-1v-1v-2v-1v-1v-2v-1v-1v-1v-2v-1v-1v-2v-1v-1v-2v-1v-1v-2v-1v-1v-2v-1v-1v-2v-1v-2v-1v-1v-2v-1v-1v-2v-1v-2v-1v-1v-2v-1v-2v-1v-2v-1v-1v-2v-1
v-2v-1v-2v-1v-2v-1v-2v-1v-2v-1v-1v-2v-1v-2v-1v-2v-1v-2v-1v-2v-2v-1v-2v-1v-2v-1v-2v-1v-2v-1v-2v-1v-2v-2v-1v-2v-1v-2v-1v-2v-2v-1v-2v-1v-2v-2v-1v-2v-1v-2v-2v-1v-2v-2v-1v-2v-1v-2v-2v-1v-2v-2v-1v-2v-2v-1v-2v-2v-1v-2v-2v-1v-2v-2v-2v-1v-2v-2v-1v-2v-2v-2v-1v-2
v-2v-2v-1v-2v-2v-2v-1v-2v-2v-2v-1v-2v-2v-2v-1v-2v-2v-2v-2v-1v-2v-2v-2v-2v-2v-1v-2v-2v-2v-2v-2v-1v-2v-2v-2v-2v-2v-2v-1v-2v-2v-2v-2v-2v-2v-2v-2v-2v-2v-1v-2v-2v-2v-2v-2v-2v-2v-2v-2v-2v-2v-2v-10zM368 126v0v0v0v1v0v0v1v0v1v1v0v1v1v1v1v1v1v1v1v1v1v1v1v1v1v1v1
v1v1v1v1v1v1v1v1v1v1v1v1v1v1v1v1v1v1v1v1v1v2v1v1v1v1v1v1v1v1v2v1v1v1v1v1v2v1v1v1v1v2v1v1v1v2v1v1v2v1v1v1v2v1v1v2v1v2v1v1v2v1v1v2v1v2v1v2v1v1v2v1v2v1v2v1v2v1v2v1v2v1v2v1v2v1v2v2v1v2v1v2v1v2v2v1v2v1v2v2v1v2v2v1v2v2v1v2v2v1v2v2v1v2v2v2v1v2v2v2v1v2v2v2v1v2v2
v2v2v1v2v2v2v2v1v2v2v2v2v2v9q-36 28 -86 28q-58 0 -91.5 -42t-33.5 -107q0 -67 32 -107t85 -40q50 0 94 39z" />
    <glyph glyph-name="agrave.alt" horiz-adv-x="548" 
d="M367 355q-38 28 -86 28q-58 0 -91 -42.5t-33 -108.5q0 -68 31.5 -108t84.5 -40q50 0 94 39v0v0v0v1v0v0v1v0v1v1v0v1v1v1v1v1v1v1v1v1v1v1v1v1v1v1v1v1v1v1v1v1v1v1v1v1v1v1v1v1v1v1v1v1v1v1v1v1v1v1v1v1v1v2v1v1v1v1v1v1v1v2v1v1v1v1v2v1v1v1v2v1v1v1v2v1v1v1v2v1v1v2v1
v1v2v1v2v1v1v2v1v1v2v1v2v1v2v1v1v2v1v2v1v2v1v2v1v2v1v2v1v2v1v2v1v2v2v1v2v1v2v1v2v2v1v2v2v1v2v1v2v2v1v2v2v1v2v2v1v2v2v2v1v2v2v1v2v2v2v1v2v2v2v1v2v2v2v2v1v2v2v2v2v1v2v2v2v2v2v1v9zM237 -15q-91 0 -146 67t-55 175q0 109 67 179t166 70q60 0 114 -20l103 19v-353
q0 -26 7 -33.5t34 -8.5l-10 -90q-62 -7 -99 11t-49 52q-60 -68 -132 -68zM381 523h-79l-157 183h133z" />
    <glyph glyph-name="aacute.alt" horiz-adv-x="548" 
d="M486 706l-157 -183h-78l102 183h133zM367 355q-38 28 -86 28q-58 0 -91 -42.5t-33 -108.5q0 -68 31.5 -108t84.5 -40q50 0 94 39v0v0v0v1v0v0v1v0v1v1v0v1v1v1v1v1v1v1v1v1v1v1v1v1v1v1v1v1v1v1v1v1v1v1v1v1v1v1v1v1v1v1v1v1v1v1v1v1v1v1v1v1v1v2v1v1v1v1v1v1v1v2v1v1v1
v1v2v1v1v1v2v1v1v1v2v1v1v1v2v1v1v2v1v1v2v1v2v1v1v2v1v1v2v1v2v1v2v1v1v2v1v2v1v2v1v2v1v2v1v2v1v2v1v2v1v2v2v1v2v1v2v1v2v2v1v2v2v1v2v1v2v2v1v2v2v1v2v2v1v2v2v2v1v2v2v1v2v2v2v1v2v2v2v1v2v2v2v2v1v2v2v2v2v1v2v2v2v2v2v1v9zM237 -15q-91 0 -146 67t-55 175
q0 109 67 179t166 70q60 0 114 -20l103 19v-353q0 -26 7 -33.5t34 -8.5l-10 -90q-62 -7 -99 11t-49 52q-60 -68 -132 -68z" />
    <glyph glyph-name="acircumflex.alt" horiz-adv-x="548" 
d="M470 523h-83l-90 118h-2l-89 -118h-84l117 187h114zM367 355q-38 28 -86 28q-58 0 -91 -42.5t-33 -108.5q0 -68 31.5 -108t84.5 -40q50 0 94 39v0v0v0v1v0v0v1v0v1v1v0v1v1v1v1v1v1v1v1v1v1v1v1v1v1v1v1v1v1v1v1v1v1v1v1v1v1v1v1v1v1v1v1v1v1v1v1v1v1v1v1v1v1v2v1v1v1v1
v1v1v1v2v1v1v1v1v2v1v1v1v2v1v1v1v2v1v1v1v2v1v1v2v1v1v2v1v2v1v1v2v1v1v2v1v2v1v2v1v1v2v1v2v1v2v1v2v1v2v1v2v1v2v1v2v1v2v2v1v2v1v2v1v2v2v1v2v2v1v2v1v2v2v1v2v2v1v2v2v1v2v2v2v1v2v2v1v2v2v2v1v2v2v2v1v2v2v2v2v1v2v2v2v2v1v2v2v2v2v2v1v9zM237 -15q-91 0 -146 67
t-55 175q0 109 67 179t166 70q60 0 114 -20l103 19v-353q0 -26 7 -33.5t34 -8.5l-10 -90q-62 -7 -99 11t-49 52q-60 -68 -132 -68z" />
    <glyph glyph-name="atilde.alt" horiz-adv-x="548" 
d="M367 355q-38 28 -86 28q-58 0 -91 -42.5t-33 -108.5q0 -68 31.5 -108t84.5 -40q50 0 94 39v0v0v0v1v0v0v1v0v1v1v0v1v1v1v1v1v1v1v1v1v1v1v1v1v1v1v1v1v1v1v1v1v1v1v1v1v1v1v1v1v1v1v1v1v1v1v1v1v1v1v1v1v1v2v1v1v1v1v1v1v1v2v1v1v1v1v2v1v1v1v2v1v1v1v2v1v1v1v2v1v1v2v1
v1v2v1v2v1v1v2v1v1v2v1v2v1v2v1v1v2v1v2v1v2v1v2v1v2v1v2v1v2v1v2v1v2v2v1v2v1v2v1v2v2v1v2v2v1v2v1v2v2v1v2v2v1v2v2v1v2v2v2v1v2v2v1v2v2v2v1v2v2v2v1v2v2v2v2v1v2v2v2v2v1v2v2v2v2v2v1v9zM237 -15q-91 0 -146 67t-55 175q0 109 67 179t166 70q60 0 114 -20l103 19v-353
q0 -26 7 -33.5t34 -8.5l-10 -90q-62 -7 -99 11t-49 52q-60 -68 -132 -68zM473 666q-8 -75 -32.5 -107t-70.5 -32q-35 0 -87 31.5t-66 31.5q-26 0 -34 -57v0h-1h-1h-1h-1h-1h-1h-1h-1h-1h-1h-1h-1h-1h-2h-1h-1h-1h-1h-2h-1h-1h-2h-1h-2h-1h-2h-1h-2h-1h-2h-1h-2h-2h-1h-2h-2
h-2h-2h-1h-2h-2h-2h-2h-2h-2h-10q8 76 33 108t71 32q35 0 87 -32t65 -32q27 0 34 57v0h1h1h1h1h1h1h1h1h1h1h1h1h1h1h2h1h1h1h1h2h1h1h2h1h2h1h2h1h2h1h2h2h1h2h2h1h2h2h2h1h2h2h2h2h2h2h9z" />
    <glyph glyph-name="adieresis.alt" horiz-adv-x="548" 
d="M475 595q0 -32 -19.5 -51.5t-50.5 -19.5t-50.5 19.5t-19.5 51.5q0 31 19.5 50t50.5 19t50.5 -19t19.5 -50zM256 595q0 -32 -19.5 -51.5t-50.5 -19.5t-50.5 20t-19.5 51t19.5 50t50.5 19t50.5 -19t19.5 -50zM367 355q-38 28 -86 28q-58 0 -91 -42.5t-33 -108.5
q0 -68 31.5 -108t84.5 -40q50 0 94 39v0v0v0v1v0v0v1v0v1v1v0v1v1v1v1v1v1v1v1v1v1v1v1v1v1v1v1v1v1v1v1v1v1v1v1v1v1v1v1v1v1v1v1v1v1v1v1v1v1v1v1v1v1v2v1v1v1v1v1v1v1v2v1v1v1v1v2v1v1v1v2v1v1v1v2v1v1v1v2v1v1v2v1v1v2v1v2v1v1v2v1v1v2v1v2v1v2v1v1v2v1v2v1v2v1v2v1v2v1
v2v1v2v1v2v1v2v2v1v2v1v2v1v2v2v1v2v2v1v2v1v2v2v1v2v2v1v2v2v1v2v2v2v1v2v2v1v2v2v2v1v2v2v2v1v2v2v2v2v1v2v2v2v2v1v2v2v2v2v2v1v9zM237 -15q-91 0 -146 67t-55 175q0 109 67 179t166 70q60 0 114 -20l103 19v-353q0 -26 7 -33.5t34 -8.5l-10 -90q-62 -7 -99 11t-49 52
q-60 -68 -132 -68z" />
    <glyph glyph-name="aring.alt" horiz-adv-x="548" 
d="M428 635q0 -48 -36.5 -80.5t-96.5 -32.5t-96.5 32.5t-36.5 80.5q0 49 36.5 82t96.5 33t96 -33t37 -82zM372 636q0 29 -21 48.5t-56 19.5q-34 0 -55 -19.5t-21 -48.5t21 -48.5t55 -19.5q35 0 56 19.5t21 48.5zM367 355q-38 28 -86 28q-58 0 -91 -42.5t-33 -108.5
q0 -68 31.5 -108t84.5 -40q50 0 94 39v0v0v0v1v0v0v1v0v1v1v0v1v1v1v1v1v1v1v1v1v1v1v1v1v1v1v1v1v1v1v1v1v1v1v1v1v1v1v1v1v1v1v1v1v1v1v1v1v1v1v1v1v1v2v1v1v1v1v1v1v1v2v1v1v1v1v2v1v1v1v2v1v1v1v2v1v1v1v2v1v1v2v1v1v2v1v2v1v1v2v1v1v2v1v2v1v2v1v1v2v1v2v1v2v1v2v1v2v1
v2v1v2v1v2v1v2v2v1v2v1v2v1v2v2v1v2v2v1v2v1v2v2v1v2v2v1v2v2v1v2v2v2v1v2v2v1v2v2v2v1v2v2v2v1v2v2v2v2v1v2v2v2v2v1v2v2v2v2v2v1v9zM237 -15q-91 0 -146 67t-55 175q0 109 67 179t166 70q60 0 114 -20l103 19v-353q0 -26 7 -33.5t34 -8.5l-10 -90q-62 -7 -99 11t-49 52
q-60 -68 -132 -68z" />
    <glyph glyph-name="aringacute.alt" horiz-adv-x="531" 
d="M448 958l-157 -183h-78l102 183h133zM428 635q0 -48 -36.5 -80.5t-96.5 -32.5t-96.5 32.5t-36.5 80.5q0 49 36.5 82t96.5 33t96 -33t37 -82zM372 636q0 29 -21 48.5t-56 19.5q-34 0 -55 -19.5t-21 -48.5t21 -48.5t55 -19.5q35 0 56 19.5t21 48.5zM367 355q-38 28 -86 28
q-58 0 -91 -42.5t-33 -108.5q0 -68 31.5 -108t84.5 -40q50 0 94 39v0v0v0v1v0v0v1v0v1v1v0v1v1v1v1v1v1v1v1v1v1v1v1v1v1v1v1v1v1v1v1v1v1v1v1v1v1v1v1v1v1v1v1v1v1v1v1v1v1v1v1v1v1v2v1v1v1v1v1v1v1v2v1v1v1v1v2v1v1v1v2v1v1v1v2v1v1v1v2v1v1v2v1v1v2v1v2v1v1v2v1v1v2v1v2
v1v2v1v1v2v1v2v1v2v1v2v1v2v1v2v1v2v1v2v1v2v2v1v2v1v2v1v2v2v1v2v2v1v2v1v2v2v1v2v2v1v2v2v1v2v2v2v1v2v2v1v2v2v2v1v2v2v2v1v2v2v2v2v1v2v2v2v2v1v2v2v2v2v2v1v9zM237 -15q-91 0 -146 67t-55 175q0 109 67 179t166 70q60 0 114 -20l103 19v-353q0 -26 7 -33.5t34 -8.5
l-10 -90q-62 -7 -99 11t-49 52q-60 -68 -132 -68z" />
    <glyph glyph-name="amacron.alt" horiz-adv-x="548" 
d="M367 355q-38 28 -86 28q-58 0 -91 -42.5t-33 -108.5q0 -68 31.5 -108t84.5 -40q50 0 94 39v0v0v0v1v0v0v1v0v1v1v0v1v1v1v1v1v1v1v1v1v1v1v1v1v1v1v1v1v1v1v1v1v1v1v1v1v1v1v1v1v1v1v1v1v1v1v1v1v1v1v1v1v1v2v1v1v1v1v1v1v1v2v1v1v1v1v2v1v1v1v2v1v1v1v2v1v1v1v2v1v1v2v1
v1v2v1v2v1v1v2v1v1v2v1v2v1v2v1v1v2v1v2v1v2v1v2v1v2v1v2v1v2v1v2v1v2v2v1v2v1v2v1v2v2v1v2v2v1v2v1v2v2v1v2v2v1v2v2v1v2v2v2v1v2v2v1v2v2v2v1v2v2v2v1v2v2v2v2v1v2v2v2v2v1v2v2v2v2v2v1v9zM237 -15q-91 0 -146 67t-55 175q0 109 67 179t166 70q60 0 114 -20l103 19v-353
q0 -26 7 -33.5t34 -8.5l-10 -90q-62 -7 -99 11t-49 52q-60 -68 -132 -68zM458 544h-319l8 69h303z" />
    <glyph glyph-name="abreve.alt" horiz-adv-x="548" 
d="M367 355q-38 28 -86 28q-58 0 -91 -42.5t-33 -108.5q0 -68 31.5 -108t84.5 -40q50 0 94 39v0v0v0v1v0v0v1v0v1v1v0v1v1v1v1v1v1v1v1v1v1v1v1v1v1v1v1v1v1v1v1v1v1v1v1v1v1v1v1v1v1v1v1v1v1v1v1v1v1v1v1v1v1v2v1v1v1v1v1v1v1v2v1v1v1v1v2v1v1v1v2v1v1v1v2v1v1v1v2v1v1v2v1
v1v2v1v2v1v1v2v1v1v2v1v2v1v2v1v1v2v1v2v1v2v1v2v1v2v1v2v1v2v1v2v1v2v2v1v2v1v2v1v2v2v1v2v2v1v2v1v2v2v1v2v2v1v2v2v1v2v2v2v1v2v2v1v2v2v2v1v2v2v2v1v2v2v2v2v1v2v2v2v2v1v2v2v2v2v2v1v9zM237 -15q-91 0 -146 67t-55 175q0 109 67 179t166 70q60 0 114 -20l103 19v-353
q0 -26 7 -33.5t34 -8.5l-10 -90q-62 -7 -99 11t-49 52q-60 -68 -132 -68zM475 708q-9 -89 -55 -139t-116 -50t-116 50.5t-55 138.5l80 -1q21 -111 91 -111q71 0 91 111z" />
    <glyph glyph-name="aogonek.alt" horiz-adv-x="548" 
d="M527 80l-10 -90q-51 -3 -83 -24.5t-32 -54.5q2 -47 44 -47q29 0 51 15l20 -70q-40 -28 -97 -28q-51 0 -82.5 27t-31.5 73q0 42 27 75.5t70 52.5q-27 17 -34 44q-60 -68 -132 -68q-91 0 -146 67t-55 175q0 109 67 179t166 70q60 0 114 -20l103 19v-353q0 -26 7 -33.5
t34 -8.5zM367 355q-38 28 -86 28q-58 0 -91 -42.5t-33 -108.5q0 -68 31.5 -108t84.5 -40q50 0 94 39v232z" />
    <glyph glyph-name="gcircumflex.alt" horiz-adv-x="550" 
d="M461 523h-83l-90 118h-2l-89 -118h-84l117 187h114zM487 21q0 -247 -232 -247q-99 0 -180 42l30 98q73 -39 146 -39q117 0 117 128v0v0v1v1v1v1v1v1v1v1v1v1v1v1v2v1v1v1v2v1v1v2v1v2v1v2v1v2v1v10q-56 -56 -128 -56q-91 0 -147.5 66t-56.5 173t67.5 177t166.5 70
q59 0 115 -20l102 19v0v0v0v0v-1v0v0v0v-1v0v-1v0v-1v0v-1v0v-1v-1v0v-1v-1v0v-1v-1v-1v-1v-1v-1v-1v-1v-1v-1v-1v-1v-1v-1v-1v-1v-1v-1v-1v-1v-1v-1v-1v-1v-1v-1v-1v-1v-1v-1v-1v-1v-1v-1v-1v-1v-1v-1v-1v-1v-1v-1v-1v-1v-1v-1v-1v-1v-1v-1v-1v-1v-1v-1v-1v-1v-1v-1v-1v-1
v-1v-1v-1v-1v-1v-1v-1v-1v-1v-1v-1v-1v-2v-1v-1v-1v-1v-1v-1v-1v-1v-1v-1v-2v-1v-1v-1v-1v-1v-1v-2v-1v-1v-1v-1v-1v-2v-1v-1v-1v-1v-2v-1v-1v-1v-1v-2v-1v-1v-1v-2v-1v-1v-1v-2v-1v-1v-1v-2v-1v-1v-2v-1v-1v-1v-2v-1v-1v-2v-1v-1v-2v-1v-1v-2v-1v-1v-2v-1v-1v-2v-1v-2v-1
v-1v-2v-1v-1v-2v-1v-2v-1v-1v-2v-1v-2v-1v-2v-1v-1v-2v-1v-2v-1v-2v-1v-2v-1v-2v-1v-2v-1v-1v-2v-1v-2v-1v-2v-1v-2v-1v-2v-2v-1v-2v-1v-2v-1v-2v-1v-2v-1v-2v-1v-2v-2v-1v-2v-1v-2v-1v-2v-2v-1v-2v-1v-2v-2v-1v-2v-1v-2v-2v-1v-2v-2v-1v-2v-1v-2v-2v-1v-2v-2v-1v-2v-2v-1
v-2v-2v-1v-2v-2v-1v-2v-2v-2v-1v-2v-2v-1v-2v-2v-2v-1v-2v-2v-2v-1v-2v-2v-2v-1v-2v-2v-2v-1v-2v-2v-2v-1v-2v-2v-2v-2v-1v-2v-2v-2v-2v-2v-1v-2v-2v-2v-2v-2v-1v-2v-2v-2v-2v-2v-2v-1v-2v-2v-2v-2v-2v-2v-2v-2v-2v-2v-1v-2v-2v-2v-2v-2v-2v-2v-2v-2v-2v-2v-2v-10zM368 126
v0v0v0v1v0v0v1v0v1v1v0v1v1v1v1v1v1v1v1v1v1v1v1v1v1v1v1v1v1v1v1v1v1v1v1v1v1v1v1v1v1v1v1v1v1v1v1v1v2v1v1v1v1v1v1v1v1v2v1v1v1v1v1v2v1v1v1v1v2v1v1v1v2v1v1v2v1v1v1v2v1v1v2v1v2v1v1v2v1v1v2v1v2v1v2v1v1v2v1v2v1v2v1v2v1v2v1v2v1v2v1v2v1v2v2v1v2v1v2v1v2v2v1v2v1v2v2
v1v2v2v1v2v2v1v2v2v1v2v2v1v2v2v2v1v2v2v2v1v2v2v2v1v2v2v2v2v1v2v2v2v2v1v2v2v2v2v2v9q-36 28 -86 28q-58 0 -91.5 -42t-33.5 -107q0 -67 32 -107t85 -40q50 0 94 39z" />
    <glyph glyph-name="gbreve.alt" horiz-adv-x="550" 
d="M487 21q0 -247 -232 -247q-99 0 -180 42l30 98q73 -39 146 -39q117 0 117 128v0v0v1v1v1v1v1v1v1v1v1v1v1v1v2v1v1v1v2v1v1v2v1v2v1v2v1v2v1v10q-56 -56 -128 -56q-91 0 -147.5 66t-56.5 173t67.5 177t166.5 70q59 0 115 -20l102 19v0v0v0v0v-1v0v0v0v-1v0v-1v0v-1v0v-1
v0v-1v-1v0v-1v-1v0v-1v-1v-1v-1v-1v-1v-1v-1v-1v-1v-1v-1v-1v-1v-1v-1v-1v-1v-1v-1v-1v-1v-1v-1v-1v-1v-1v-1v-1v-1v-1v-1v-1v-1v-1v-1v-1v-1v-1v-1v-1v-1v-1v-1v-1v-1v-1v-1v-1v-1v-1v-1v-1v-1v-1v-1v-1v-1v-1v-1v-1v-1v-1v-1v-1v-1v-1v-1v-1v-1v-1v-1v-2v-1v-1v-1v-1v-1
v-1v-1v-1v-1v-1v-2v-1v-1v-1v-1v-1v-1v-2v-1v-1v-1v-1v-1v-2v-1v-1v-1v-1v-2v-1v-1v-1v-1v-2v-1v-1v-1v-2v-1v-1v-1v-2v-1v-1v-1v-2v-1v-1v-2v-1v-1v-1v-2v-1v-1v-2v-1v-1v-2v-1v-1v-2v-1v-1v-2v-1v-1v-2v-1v-2v-1v-1v-2v-1v-1v-2v-1v-2v-1v-1v-2v-1v-2v-1v-2v-1v-1v-2v-1
v-2v-1v-2v-1v-2v-1v-2v-1v-2v-1v-1v-2v-1v-2v-1v-2v-1v-2v-1v-2v-2v-1v-2v-1v-2v-1v-2v-1v-2v-1v-2v-1v-2v-2v-1v-2v-1v-2v-1v-2v-2v-1v-2v-1v-2v-2v-1v-2v-1v-2v-2v-1v-2v-2v-1v-2v-1v-2v-2v-1v-2v-2v-1v-2v-2v-1v-2v-2v-1v-2v-2v-1v-2v-2v-2v-1v-2v-2v-1v-2v-2v-2v-1v-2
v-2v-2v-1v-2v-2v-2v-1v-2v-2v-2v-1v-2v-2v-2v-1v-2v-2v-2v-2v-1v-2v-2v-2v-2v-2v-1v-2v-2v-2v-2v-2v-1v-2v-2v-2v-2v-2v-2v-1v-2v-2v-2v-2v-2v-2v-2v-2v-2v-2v-1v-2v-2v-2v-2v-2v-2v-2v-2v-2v-2v-2v-2v-10zM368 126v0v0v0v1v0v0v1v0v1v1v0v1v1v1v1v1v1v1v1v1v1v1v1v1v1v1v1
v1v1v1v1v1v1v1v1v1v1v1v1v1v1v1v1v1v1v1v1v1v2v1v1v1v1v1v1v1v1v2v1v1v1v1v1v2v1v1v1v1v2v1v1v1v2v1v1v2v1v1v1v2v1v1v2v1v2v1v1v2v1v1v2v1v2v1v2v1v1v2v1v2v1v2v1v2v1v2v1v2v1v2v1v2v1v2v2v1v2v1v2v1v2v2v1v2v1v2v2v1v2v2v1v2v2v1v2v2v1v2v2v1v2v2v2v1v2v2v2v1v2v2v2v1v2v2
v2v2v1v2v2v2v2v1v2v2v2v2v2v9q-36 28 -86 28q-58 0 -91.5 -42t-33.5 -107q0 -67 32 -107t85 -40q50 0 94 39zM464 708q-9 -89 -55 -139t-116 -50t-116 50.5t-55 138.5l80 -1q21 -111 91 -111q71 0 91 111z" />
    <glyph glyph-name="gdotaccent.alt" horiz-adv-x="550" 
d="M487 21q0 -247 -232 -247q-99 0 -180 42l30 98q73 -39 146 -39q117 0 117 128v0v0v1v1v1v1v1v1v1v1v1v1v1v1v2v1v1v1v2v1v1v2v1v2v1v2v1v2v1v10q-56 -56 -128 -56q-91 0 -147.5 66t-56.5 173t67.5 177t166.5 70q59 0 115 -20l102 19v0v0v0v0v-1v0v0v0v-1v0v-1v0v-1v0v-1
v0v-1v-1v0v-1v-1v0v-1v-1v-1v-1v-1v-1v-1v-1v-1v-1v-1v-1v-1v-1v-1v-1v-1v-1v-1v-1v-1v-1v-1v-1v-1v-1v-1v-1v-1v-1v-1v-1v-1v-1v-1v-1v-1v-1v-1v-1v-1v-1v-1v-1v-1v-1v-1v-1v-1v-1v-1v-1v-1v-1v-1v-1v-1v-1v-1v-1v-1v-1v-1v-1v-1v-1v-1v-1v-1v-1v-1v-1v-2v-1v-1v-1v-1v-1
v-1v-1v-1v-1v-1v-2v-1v-1v-1v-1v-1v-1v-2v-1v-1v-1v-1v-1v-2v-1v-1v-1v-1v-2v-1v-1v-1v-1v-2v-1v-1v-1v-2v-1v-1v-1v-2v-1v-1v-1v-2v-1v-1v-2v-1v-1v-1v-2v-1v-1v-2v-1v-1v-2v-1v-1v-2v-1v-1v-2v-1v-1v-2v-1v-2v-1v-1v-2v-1v-1v-2v-1v-2v-1v-1v-2v-1v-2v-1v-2v-1v-1v-2v-1
v-2v-1v-2v-1v-2v-1v-2v-1v-2v-1v-1v-2v-1v-2v-1v-2v-1v-2v-1v-2v-2v-1v-2v-1v-2v-1v-2v-1v-2v-1v-2v-1v-2v-2v-1v-2v-1v-2v-1v-2v-2v-1v-2v-1v-2v-2v-1v-2v-1v-2v-2v-1v-2v-2v-1v-2v-1v-2v-2v-1v-2v-2v-1v-2v-2v-1v-2v-2v-1v-2v-2v-1v-2v-2v-2v-1v-2v-2v-1v-2v-2v-2v-1v-2
v-2v-2v-1v-2v-2v-2v-1v-2v-2v-2v-1v-2v-2v-2v-1v-2v-2v-2v-2v-1v-2v-2v-2v-2v-2v-1v-2v-2v-2v-2v-2v-1v-2v-2v-2v-2v-2v-2v-1v-2v-2v-2v-2v-2v-2v-2v-2v-2v-2v-1v-2v-2v-2v-2v-2v-2v-2v-2v-2v-2v-2v-2v-10zM368 126v0v0v0v1v0v0v1v0v1v1v0v1v1v1v1v1v1v1v1v1v1v1v1v1v1v1v1
v1v1v1v1v1v1v1v1v1v1v1v1v1v1v1v1v1v1v1v1v1v2v1v1v1v1v1v1v1v1v2v1v1v1v1v1v2v1v1v1v1v2v1v1v1v2v1v1v2v1v1v1v2v1v1v2v1v2v1v1v2v1v1v2v1v2v1v2v1v1v2v1v2v1v2v1v2v1v2v1v2v1v2v1v2v1v2v2v1v2v1v2v1v2v2v1v2v1v2v2v1v2v2v1v2v2v1v2v2v1v2v2v1v2v2v2v1v2v2v2v1v2v2v2v1v2v2
v2v2v1v2v2v2v2v1v2v2v2v2v2v9q-36 28 -86 28q-58 0 -91.5 -42t-33.5 -107q0 -67 32 -107t85 -40q50 0 94 39zM359 593q0 -31 -19.5 -52.5t-51.5 -21.5t-51.5 21.5t-19.5 52.5q0 30 20 51.5t51 21.5t51 -21.5t20 -51.5z" />
    <glyph glyph-name="gcommaaccent.alt" horiz-adv-x="550" 
d="M361 583q-2 -25 -20.5 -43t-47.5 -18q-35 0 -57.5 23.5t-22.5 59.5q0 91 123 143l31 -31q-65 -41 -65 -79q0 -18 12 -30t47 -25zM487 21q0 -247 -232 -247q-99 0 -180 42l30 98q73 -39 146 -39q117 0 117 128v0v0v1v1v1v1v1v1v1v1v1v1v1v1v2v1v1v1v2v1v1v2v1v2v1v2v1v2v1
v10q-56 -56 -128 -56q-91 0 -147.5 66t-56.5 173t67.5 177t166.5 70q59 0 115 -20l102 19v0v0v0v0v-1v0v0v0v-1v0v-1v0v-1v0v-1v0v-1v-1v0v-1v-1v0v-1v-1v-1v-1v-1v-1v-1v-1v-1v-1v-1v-1v-1v-1v-1v-1v-1v-1v-1v-1v-1v-1v-1v-1v-1v-1v-1v-1v-1v-1v-1v-1v-1v-1v-1v-1v-1v-1v-1
v-1v-1v-1v-1v-1v-1v-1v-1v-1v-1v-1v-1v-1v-1v-1v-1v-1v-1v-1v-1v-1v-1v-1v-1v-1v-1v-1v-1v-1v-1v-1v-1v-1v-2v-1v-1v-1v-1v-1v-1v-1v-1v-1v-1v-2v-1v-1v-1v-1v-1v-1v-2v-1v-1v-1v-1v-1v-2v-1v-1v-1v-1v-2v-1v-1v-1v-1v-2v-1v-1v-1v-2v-1v-1v-1v-2v-1v-1v-1v-2v-1v-1v-2v-1
v-1v-1v-2v-1v-1v-2v-1v-1v-2v-1v-1v-2v-1v-1v-2v-1v-1v-2v-1v-2v-1v-1v-2v-1v-1v-2v-1v-2v-1v-1v-2v-1v-2v-1v-2v-1v-1v-2v-1v-2v-1v-2v-1v-2v-1v-2v-1v-2v-1v-1v-2v-1v-2v-1v-2v-1v-2v-1v-2v-2v-1v-2v-1v-2v-1v-2v-1v-2v-1v-2v-1v-2v-2v-1v-2v-1v-2v-1v-2v-2v-1v-2v-1v-2
v-2v-1v-2v-1v-2v-2v-1v-2v-2v-1v-2v-1v-2v-2v-1v-2v-2v-1v-2v-2v-1v-2v-2v-1v-2v-2v-1v-2v-2v-2v-1v-2v-2v-1v-2v-2v-2v-1v-2v-2v-2v-1v-2v-2v-2v-1v-2v-2v-2v-1v-2v-2v-2v-1v-2v-2v-2v-2v-1v-2v-2v-2v-2v-2v-1v-2v-2v-2v-2v-2v-1v-2v-2v-2v-2v-2v-2v-1v-2v-2v-2v-2v-2v-2
v-2v-2v-2v-2v-1v-2v-2v-2v-2v-2v-2v-2v-2v-2v-2v-2v-2v-10zM368 126v0v0v0v1v0v0v1v0v1v1v0v1v1v1v1v1v1v1v1v1v1v1v1v1v1v1v1v1v1v1v1v1v1v1v1v1v1v1v1v1v1v1v1v1v1v1v1v1v2v1v1v1v1v1v1v1v1v2v1v1v1v1v1v2v1v1v1v1v2v1v1v1v2v1v1v2v1v1v1v2v1v1v2v1v2v1v1v2v1v1v2v1v2v1v2
v1v1v2v1v2v1v2v1v2v1v2v1v2v1v2v1v2v1v2v2v1v2v1v2v1v2v2v1v2v1v2v2v1v2v2v1v2v2v1v2v2v1v2v2v1v2v2v2v1v2v2v2v1v2v2v2v1v2v2v2v2v1v2v2v2v2v1v2v2v2v2v2v9q-36 28 -86 28q-58 0 -91.5 -42t-33.5 -107q0 -67 32 -107t85 -40q50 0 94 39z" />
    <glyph glyph-name="Jcircumflex.alt" horiz-adv-x="401" 
d="M453 686h-83l-90 118h-2l-89 -118h-84l117 187h114zM343 194q0 -104 -48.5 -156.5t-141.5 -52.5q-76 0 -138 37l13 112q59 -42 112 -42q41 0 61 24.5t20 79.5v429h122v-431z" />
    <glyph glyph-name="dot" horiz-adv-x="243" 
d="M196 228q0 -30 -20.5 -52.5t-51.5 -22.5q-32 0 -53.5 22.5t-21.5 52.5t21.5 51t53.5 21t52 -21t20 -51z" />
    <glyph glyph-name="a.smallcap" horiz-adv-x="529" 
d="M339 475l166 -475h-115l-36 103h-181l-34 -103h-117l170 475h147zM330 188l-66 200l-66 -200h132z" />
    <glyph glyph-name="b.smallcap" horiz-adv-x="505" 
d="M372 246q42 -12 66.5 -42t24.5 -69q0 -135 -185 -135h-212v475h208q174 0 174 -127q0 -71 -76 -102zM337 334q0 57 -84 57h-78v-118h75q87 0 87 61zM353 144q0 58 -97 58h-81v-117h83q50 0 72.5 14t22.5 45z" />
    <glyph glyph-name="c.smallcap" horiz-adv-x="491" 
d="M454 452l-35 -98q-60 35 -121 35q-64 0 -100.5 -40.5t-36.5 -109.5q0 -71 36 -112t101 -41q67 0 126 39l25 -103q-63 -34 -155 -34q-116 0 -182.5 65t-66.5 183q0 115 68 183.5t184 68.5q87 0 157 -36z" />
    <glyph glyph-name="d.smallcap" horiz-adv-x="549" 
d="M504 241q0 -111 -70 -176t-198 -65h-170v475h177q123 0 192 -63t69 -171zM387 237q0 72 -40 108.5t-110 36.5h-55v-289h58q67 0 107 37t40 107z" />
    <glyph glyph-name="e.smallcap" horiz-adv-x="457" 
d="M408 0h-342v475h342v-90h-232v-103h193v-87h-193v-104h232v-91z" />
    <glyph glyph-name="f.smallcap" horiz-adv-x="438" 
d="M66 0v475h335v-91h-225v-110h185v-90h-181v-184h-114z" />
    <glyph glyph-name="g.smallcap" horiz-adv-x="539" 
d="M157 240q0 -75 38 -118.5t107 -43.5q52 0 86 18v80h-116v87h213v-231q-81 -44 -186 -44q-115 0 -184.5 65.5t-69.5 182.5q0 115 70.5 183.5t184.5 68.5q108 0 177 -41l-35 -93q-69 39 -137 39t-108 -40.5t-40 -112.5z" />
    <glyph glyph-name="h.smallcap" horiz-adv-x="565" 
d="M499 0h-116v193h-201v-193h-116v475h116v-189h201v189h116v-475z" />
    <glyph glyph-name="i.smallcap" horiz-adv-x="249" 
d="M182 0h-115v475h115v-475z" />
    <glyph glyph-name="j.smallcap" horiz-adv-x="380" 
d="M323 166q0 -86 -42 -132t-125 -46q-79 0 -137 34l22 96q52 -33 95 -33q38 0 54.5 21t16.5 68v301h116v-309z" />
    <glyph glyph-name="j.smallcap.alt" horiz-adv-x="346" 
d="M294 159q0 -170 -157 -170q-71 0 -117 30l10 103q49 -35 88 -35q31 0 45 17t14 57v314h117v-316z" />
    <glyph glyph-name="k.smallcap" horiz-adv-x="498" 
d="M182 264h1l161 211h133l-189 -230l194 -245h-139l-160 211h-1v-211h-116v475h116v-211z" />
    <glyph glyph-name="l.smallcap" horiz-adv-x="429" 
d="M401 0h-335v475h116v-378h219v-97z" />
    <glyph glyph-name="m.smallcap" horiz-adv-x="678" 
d="M625 0h-112l-6 350l-107 -350h-123l-109 353l-5 -353h-110l16 475h164l107 -356l108 356h161z" />
    <glyph glyph-name="n.smallcap" horiz-adv-x="568" 
d="M397 162l-1 313h108v-480h-123l-209 318l1 -313h-107v475h124z" />
    <glyph glyph-name="o.smallcap" horiz-adv-x="589" 
d="M544 240q0 -112 -71.5 -182t-178.5 -70q-109 0 -179 66t-70 183q0 111 71 181t179 70q109 0 179 -66t70 -182zM428 237q0 72 -36.5 115.5t-98.5 43.5q-61 0 -97 -43t-36 -113q0 -73 36.5 -117t98.5 -44t97.5 43.5t35.5 114.5z" />
    <glyph glyph-name="p.smallcap" horiz-adv-x="488" 
d="M450 313q0 -84 -55 -128.5t-155 -44.5h-58v-140h-116v475h181q98 0 150.5 -43.5t52.5 -118.5zM336 309q0 79 -101 79h-56v-163l56 1q101 3 101 83z" />
    <glyph glyph-name="q.smallcap" horiz-adv-x="589" 
d="M431 30l125 -57l-45 -93l-207 109h-10q-109 0 -179 65.5t-70 182.5q0 111 71 181t179 70q109 0 179 -66t70 -182q0 -69 -30.5 -124t-82.5 -86zM428 237q0 72 -36.5 115.5t-98.5 43.5q-61 0 -97 -43t-36 -113q0 -73 36.5 -117t98.5 -44t97.5 43.5t35.5 114.5z" />
    <glyph glyph-name="r.smallcap" horiz-adv-x="512" 
d="M180 158v-158h-114v475h197q93 0 143 -40.5t50 -111.5q0 -100 -91 -137l114 -186h-127l-93 163zM179 237l67 1q94 1 94 78q0 73 -95 73h-66v-152z" />
    <glyph glyph-name="s.smallcap" horiz-adv-x="456" 
d="M223 79q36 0 59 14.5t23 39.5q0 24 -23.5 36t-84.5 28q-31 8 -53.5 17.5t-47 25.5t-38 42t-13.5 60q0 66 47.5 106t133.5 40q99 0 175 -42l-23 -93q-77 41 -148 41q-36 0 -54.5 -13t-18.5 -34q0 -17 16.5 -29.5t34 -18t55.5 -15.5q148 -37 148 -142q0 -69 -51.5 -111.5
t-140.5 -42.5q-105 0 -181 43l21 93q81 -45 164 -45z" />
    <glyph glyph-name="t.smallcap" horiz-adv-x="484" 
d="M457 378h-157v-378h-116v378h-157v97h430v-97z" />
    <glyph glyph-name="u.smallcap" horiz-adv-x="530" 
d="M474 193q0 -100 -55.5 -152.5t-153.5 -52.5q-96 0 -152.5 49t-56.5 146v292h116v-278q0 -110 95 -110q46 0 68.5 25.5t22.5 81.5v281h116v-282z" />
    <glyph glyph-name="v.smallcap" horiz-adv-x="512" 
d="M493 475l-165 -475h-145l-164 475h117l120 -368l121 368h116z" />
    <glyph glyph-name="w.smallcap" horiz-adv-x="761" 
d="M381 347l-99 -347h-118l-131 475h121l76 -342l89 342h127l89 -342l76 342h117l-132 -475h-119z" />
    <glyph glyph-name="x.smallcap" horiz-adv-x="509" 
d="M253 169l-105 -169h-128l166 238l-162 237h132l98 -161l101 161h130l-162 -232l166 -243h-132z" />
    <glyph glyph-name="y.smallcap" horiz-adv-x="484" 
d="M465 475l-165 -295v-180h-115v181l-165 294h123l100 -195l98 195h124z" />
    <glyph glyph-name="z.smallcap" horiz-adv-x="473" 
d="M422 0h-387v77l244 303h-239v95h383v-78l-242 -301h241v-96z" />
    <glyph glyph-name="fi.smallcap" horiz-adv-x="688" 
d="M621 0h-116v475h116v-475zM66 0v475h335v-91h-225v-110h185v-90h-181v-184h-114z" />
    <glyph glyph-name="fl.smallcap" horiz-adv-x="868" 
d="M839 0h-334v475h115v-378h219v-97zM66 0v475h335v-91h-225v-110h185v-90h-181v-184h-114z" />
    <glyph glyph-name="ff.smallcap" horiz-adv-x="877" 
d="M505 0v475h334v-91h-224v-110h185v-90h-182v-184h-113zM66 0v475h335v-91h-225v-110h185v-90h-181v-184h-114z" />
    <glyph glyph-name="ffi.smallcap" horiz-adv-x="1126" 
d="M1059 0h-115v475h115v-475zM505 0v475h334v-91h-224v-110h185v-90h-182v-184h-113zM66 0v475h335v-91h-225v-110h185v-90h-181v-184h-114z" />
    <glyph glyph-name="ffl.smallcap" horiz-adv-x="1306" 
d="M1278 0h-335v475h116v-378h219v-97zM505 0v475h334v-91h-224v-110h185v-90h-182v-184h-113zM66 0v475h335v-91h-225v-110h185v-90h-181v-184h-114z" />
    <glyph glyph-name="germandbls.smallcap" horiz-adv-x="911" 
d="M680 79q36 0 59 14.5t23 39.5q0 24 -23.5 36t-84.5 28q-31 8 -53.5 17.5t-47 25.5t-38 42t-13.5 60q0 66 47.5 106t133.5 40q99 0 175 -42l-23 -93q-77 41 -148 41q-36 0 -54.5 -13t-18.5 -34q0 -17 16.5 -29.5t34 -18t55.5 -15.5q148 -37 148 -142q0 -69 -51.5 -111.5
t-140.5 -42.5q-105 0 -181 43l21 93q81 -45 164 -45zM224 79q36 0 59 14.5t23 39.5q0 24 -23.5 36t-83.5 28q-31 8 -54 17.5t-47.5 25.5t-38 42t-13.5 60q0 66 47.5 106t133.5 40q100 0 176 -42l-24 -93q-75 41 -148 41q-36 0 -54.5 -13t-18.5 -34q0 -17 16.5 -29.5t34 -18
t55.5 -15.5q67 -16 108 -48.5t41 -93.5q0 -69 -51.5 -111.5t-140.5 -42.5q-105 0 -182 43l22 93q80 -45 163 -45z" />
    <glyph glyph-name="agrave.smallcap" horiz-adv-x="529" 
d="M339 475l166 -475h-115l-36 103h-181l-34 -103h-117l170 475h147zM330 188l-66 200l-66 -200h132zM312 523h-79l-157 183h133z" />
    <glyph glyph-name="aacute.smallcap" horiz-adv-x="529" 
d="M339 475l166 -475h-115l-36 103h-181l-34 -103h-117l170 475h147zM330 188l-66 200l-66 -200h132zM448 706l-157 -183h-78l102 183h133z" />
    <glyph glyph-name="acircumflex.smallcap" horiz-adv-x="529" 
d="M339 475l166 -475h-115l-36 103h-181l-34 -103h-117l170 475h147zM330 188l-66 200l-66 -200h132zM436 523h-83l-90 118h-2l-89 -118h-84l117 187h114z" />
    <glyph glyph-name="atilde.smallcap" horiz-adv-x="529" 
d="M339 475l166 -475h-115l-36 103h-181l-34 -103h-117l170 475h147zM330 188l-66 200l-66 -200h132zM443 666q-8 -75 -32.5 -107t-70.5 -32q-35 0 -87 31.5t-66 31.5q-26 0 -34 -57v0h-1h-1h-1h-1h-1h-1h-1h-1h-1h-1h-1h-1h-1h-2h-1h-1h-1h-1h-2h-1h-1h-2h-1h-2h-1h-2h-1
h-2h-1h-2h-1h-2h-2h-1h-2h-2h-2h-2h-1h-2h-2h-2h-2h-2h-2h-10q8 76 33 108t71 32q35 0 87 -32t65 -32q27 0 34 57v0h1h1h1h1h1h1h1h1h1h1h1h1h1h1h2h1h1h1h1h2h1h1h2h1h2h1h2h1h2h1h2h2h1h2h2h1h2h2h2h1h2h2h2h2h2h2h9z" />
    <glyph glyph-name="adieresis.smallcap" horiz-adv-x="529" 
d="M339 475l166 -475h-115l-36 103h-181l-34 -103h-117l170 475h147zM330 188l-66 200l-66 -200h132zM441 598q0 -32 -19.5 -51.5t-50.5 -19.5t-50.5 19.5t-19.5 51.5q0 31 19.5 50t50.5 19t50.5 -19t19.5 -50zM222 598q0 -32 -19.5 -51.5t-50.5 -19.5t-50.5 20t-19.5 51
t19.5 50t50.5 19t50.5 -19t19.5 -50z" />
    <glyph glyph-name="aring.smallcap" horiz-adv-x="525" 
d="M182 454q-51 29 -51 88q0 49 36 81.5t95 32.5q60 0 96 -32.5t36 -81.5q2 -57 -51 -87l160 -455h-115l-36 103h-181l-34 -103h-117zM339 543q0 29 -21 48.5t-56 19.5q-34 0 -55 -19.5t-21 -48.5t21 -48.5t55 -19.5q35 0 56 19.5t21 48.5zM328 188l-66 200l-66 -200h132z
" />
    <glyph glyph-name="aringacute.smallcap" horiz-adv-x="526" 
d="M414 865l-157 -183h-78l102 183h133zM182 454q-51 29 -51 88q0 49 36 81.5t95 32.5q60 0 96 -32.5t36 -81.5q2 -57 -51 -87l160 -455h-115l-36 103h-181l-34 -103h-117zM339 543q0 29 -21 48.5t-56 19.5q-34 0 -55 -19.5t-21 -48.5t21 -48.5t55 -19.5q35 0 56 19.5
t21 48.5zM328 188l-66 200l-66 -200h132z" />
    <glyph glyph-name="amacron.smallcap" horiz-adv-x="530" 
d="M339 475l166 -475h-115l-36 103h-181l-34 -103h-117l170 475h147zM330 188l-66 200l-66 -200h132zM425 544h-319l8 69h303z" />
    <glyph glyph-name="abreve.smallcap" horiz-adv-x="530" 
d="M339 475l166 -475h-115l-36 103h-181l-34 -103h-117l170 475h147zM330 188l-66 200l-66 -200h132zM436 708q-9 -89 -55 -139t-116 -50t-116 50.5t-55 138.5l80 -1q21 -111 91 -111q71 0 91 111z" />
    <glyph glyph-name="aogonek.smallcap" horiz-adv-x="530" 
d="M340 475l166 -475q-44 -10 -71.5 -34.5t-27.5 -54.5q0 -22 11.5 -34.5t32.5 -12.5q29 0 51 15l20 -70q-42 -28 -98 -28q-51 0 -82 27.5t-31 72.5q0 73 79 119l-35 102h-181l-34 -102h-118l170 475h148zM331 188l-66 200l-66 -200h132z" />
    <glyph glyph-name="ae.smallcap" horiz-adv-x="736" 
d="M193 103l-52 -103h-121l250 475h416v-90h-232v-102h193v-89h-193v-103h232v-91h-342v103h-151zM234 189h110v214z" />
    <glyph glyph-name="aeacute.smallcap" horiz-adv-x="737" 
d="M609 706l-157 -183h-78l102 183h133zM193 103l-52 -103h-121l250 475h416v-90h-232v-102h193v-89h-193v-103h232v-91h-342v103h-151zM234 189h110v214z" />
    <glyph glyph-name="ccedilla.smallcap" horiz-adv-x="495" 
d="M248 -9q-95 12 -149 75.5t-54 169.5q0 115 68 183.5t184 68.5q87 0 157 -36l-35 -98q-60 35 -121 35q-64 0 -100.5 -40.5t-36.5 -109.5q0 -71 36 -112t101 -41q67 0 126 39l25 -103q-55 -30 -136 -33q-46 -44 -52 -48q57 -2 91 -26t34 -65q0 -100 -181 -122l-7 61
q111 7 111 54q0 53 -118 38l-9 47z" />
    <glyph glyph-name="cacute.smallcap" horiz-adv-x="491" 
d="M443 706l-157 -183h-78l102 183h133zM454 452l-35 -98q-60 35 -121 35q-64 0 -100.5 -40.5t-36.5 -109.5q0 -71 36 -112t101 -41q67 0 126 39l25 -103q-63 -34 -155 -34q-116 0 -182.5 65t-66.5 183q0 115 68 183.5t184 68.5q87 0 157 -36z" />
    <glyph glyph-name="ccircumflex.smallcap" horiz-adv-x="491" 
d="M455 523h-83l-90 118h-2l-89 -118h-84l117 187h114zM454 452l-35 -98q-60 35 -121 35q-64 0 -100.5 -40.5t-36.5 -109.5q0 -71 36 -112t101 -41q67 0 126 39l25 -103q-63 -34 -155 -34q-116 0 -182.5 65t-66.5 183q0 115 68 183.5t184 68.5q87 0 157 -36z" />
    <glyph glyph-name="cdotaccent.smallcap" horiz-adv-x="491" 
d="M454 452l-35 -98q-60 35 -121 35q-64 0 -100.5 -40.5t-36.5 -109.5q0 -71 36 -112t101 -41q67 0 126 39l25 -103q-63 -34 -155 -34q-116 0 -182.5 65t-66.5 183q0 115 68 183.5t184 68.5q87 0 157 -36zM355 596q0 -31 -19.5 -52.5t-51.5 -21.5t-51.5 21.5t-19.5 52.5
q0 30 20 51.5t51 21.5t51 -21.5t20 -51.5z" />
    <glyph glyph-name="ccaron.smallcap" horiz-adv-x="491" 
d="M460 710l-117 -187h-114l-117 187h83l90 -117h2l89 117h84zM454 452l-35 -98q-60 35 -121 35q-64 0 -100.5 -40.5t-36.5 -109.5q0 -71 36 -112t101 -41q67 0 126 39l25 -103q-63 -34 -155 -34q-116 0 -182.5 65t-66.5 183q0 115 68 183.5t184 68.5q87 0 157 -36z" />
    <glyph glyph-name="dcaron.smallcap" horiz-adv-x="550" 
d="M417 710l-117 -187h-114l-117 187h83l90 -117h2l89 117h84zM504 241q0 -111 -70 -176t-198 -65h-170v475h177q123 0 192 -63t69 -171zM387 237q0 72 -40 108.5t-110 36.5h-55v-289h58q67 0 107 37t40 107z" />
    <glyph glyph-name="eth.smallcap" horiz-adv-x="589" 
d="M544 241q0 -111 -70.5 -176t-198.5 -65h-170v194h-77v90h77v191h177q124 0 193 -63t69 -171zM427 237q0 73 -40.5 110.5t-111.5 37.5h-58v-102h109v-87h-109v-106h61q68 0 108.5 38.5t40.5 108.5z" />
    <glyph glyph-name="dcroat.smallcap" horiz-adv-x="589" 
d="M544 241q0 -111 -70.5 -176t-198.5 -65h-170v194h-77v90h77v191h177q124 0 193 -63t69 -171zM427 237q0 73 -40.5 110.5t-111.5 37.5h-58v-102h109v-87h-109v-106h61q68 0 108.5 38.5t40.5 108.5z" />
    <glyph glyph-name="egrave.smallcap" horiz-adv-x="457" 
d="M408 0h-342v475h342v-90h-232v-103h193v-87h-193v-104h232v-91zM289 523h-79l-157 183h133z" />
    <glyph glyph-name="eacute.smallcap" horiz-adv-x="457" 
d="M408 0h-342v475h342v-90h-232v-103h193v-87h-193v-104h232v-91zM425 706l-157 -183h-78l102 183h133z" />
    <glyph glyph-name="ecircumflex.smallcap" horiz-adv-x="457" 
d="M408 0h-342v475h342v-90h-232v-103h193v-87h-193v-104h232v-91zM409 523h-83l-90 118h-2l-89 -118h-84l117 187h114z" />
    <glyph glyph-name="edieresis.smallcap" horiz-adv-x="457" 
d="M408 0h-342v475h342v-90h-232v-103h193v-87h-193v-104h232v-91zM420 598q0 -32 -19.5 -51.5t-50.5 -19.5t-50.5 19.5t-19.5 51.5q0 31 19.5 50t50.5 19t50.5 -19t19.5 -50zM201 598q0 -32 -19.5 -51.5t-50.5 -19.5t-50.5 20t-19.5 51t19.5 50t50.5 19t50.5 -19t19.5 -50z
" />
    <glyph glyph-name="emacron.smallcap" horiz-adv-x="458" 
d="M408 0h-342v475h342v-90h-232v-103h193v-87h-193v-104h232v-91zM395 544h-319l8 69h303z" />
    <glyph glyph-name="ebreve.smallcap" horiz-adv-x="458" 
d="M408 0h-342v475h342v-90h-232v-103h193v-87h-193v-104h232v-91zM411 708q-9 -89 -55 -139t-116 -50t-116 50.5t-55 138.5l80 -1q21 -111 91 -111q71 0 91 111z" />
    <glyph glyph-name="edotaccent.smallcap" horiz-adv-x="458" 
d="M408 0h-342v475h342v-90h-232v-103h193v-87h-193v-104h232v-91zM311 594q0 -31 -19.5 -52.5t-51.5 -21.5t-51.5 21.5t-19.5 52.5q0 30 20 51.5t51 21.5t51 -21.5t20 -51.5z" />
    <glyph glyph-name="eogonek.smallcap" horiz-adv-x="458" 
d="M409 0h-47q-66 -46 -66 -95q0 -47 44 -47q31 0 51 14l19 -70q-39 -27 -97 -27q-51 0 -82 27t-31 72q0 40 25.5 73t66.5 53h-226v475h343v-91h-232v-102h192v-87h-192v-104h232v-91z" />
    <glyph glyph-name="ecaron.smallcap" horiz-adv-x="458" 
d="M415 710l-117 -187h-114l-117 187h83l90 -117h2l89 117h84zM408 0h-342v475h342v-90h-232v-103h193v-87h-193v-104h232v-91z" />
    <glyph glyph-name="gcircumflex.smallcap" horiz-adv-x="540" 
d="M458 523h-83l-90 118h-2l-89 -118h-84l117 187h114zM157 240q0 -75 38 -118.5t107 -43.5q52 0 86 18v80h-116v87h213v-231q-81 -44 -186 -44q-115 0 -184.5 65.5t-69.5 182.5q0 115 70.5 183.5t184.5 68.5q108 0 177 -41l-35 -93q-69 39 -137 39t-108 -40.5t-40 -112.5z
" />
    <glyph glyph-name="gbreve.smallcap" horiz-adv-x="540" 
d="M157 240q0 -75 38 -118.5t107 -43.5q52 0 86 18v80h-116v87h213v-231q-81 -44 -186 -44q-115 0 -184.5 65.5t-69.5 182.5q0 115 70.5 183.5t184.5 68.5q108 0 177 -41l-35 -93q-69 39 -137 39t-108 -40.5t-40 -112.5zM452 708q-9 -89 -55 -139t-116 -50t-116 50.5
t-55 138.5l80 -1q21 -111 91 -111q71 0 91 111z" />
    <glyph glyph-name="gdotaccent.smallcap" horiz-adv-x="540" 
d="M157 240q0 -75 38 -118.5t107 -43.5q52 0 86 18v80h-116v87h213v-231q-81 -44 -186 -44q-115 0 -184.5 65.5t-69.5 182.5q0 115 70.5 183.5t184.5 68.5q108 0 177 -41l-35 -93q-69 39 -137 39t-108 -40.5t-40 -112.5zM356 595q0 -31 -19.5 -52.5t-51.5 -21.5t-51.5 21.5
t-19.5 52.5q0 30 20 51.5t51 21.5t51 -21.5t20 -51.5z" />
    <glyph glyph-name="gcommaaccent.smallcap" horiz-adv-x="540" 
d="M157 240q0 -75 38 -118.5t107 -43.5q52 0 86 18v80h-116v87h213v-231q-81 -44 -186 -44q-115 0 -184.5 65.5t-69.5 182.5q0 115 70.5 183.5t184.5 68.5q108 0 177 -41l-35 -93q-69 39 -137 39t-108 -40.5t-40 -112.5zM220 -112q2 25 20.5 43t47.5 18q35 0 57.5 -23.5
t22.5 -59.5q0 -91 -123 -143l-31 31q65 41 65 79q0 18 -12 30t-47 25z" />
    <glyph glyph-name="hcircumflex.smallcap" horiz-adv-x="565" 
d="M458 518h-83l-90 118h-2l-89 -118h-84l117 187h114zM499 0h-116v193h-201v-193h-116v475h116v-189h201v189h116v-475z" />
    <glyph glyph-name="hbar.smallcap" horiz-adv-x="565" 
d="M500 0h-118v193h-199v-193h-117v344h-72l3 57h69v74h117v-74h199v74h118v-74h68l3 -57h-71v-344zM183 286h199v58h-199v-58z" />
    <glyph glyph-name="igrave.smallcap" horiz-adv-x="249" 
d="M182 0h-115v475h115v-475zM175 523h-79l-157 183h133z" />
    <glyph glyph-name="iacute.smallcap" horiz-adv-x="249" 
d="M182 0h-115v475h115v-475zM311 706l-157 -183h-78l102 183h133z" />
    <glyph glyph-name="icircumflex.smallcap" horiz-adv-x="249" 
d="M182 0h-115v475h115v-475zM298 523h-83l-90 118h-2l-89 -118h-84l117 187h114z" />
    <glyph glyph-name="idieresis.smallcap" horiz-adv-x="249" 
d="M182 0h-115v475h115v-475zM303 598q0 -32 -19.5 -51.5t-50.5 -19.5t-50.5 19.5t-19.5 51.5q0 31 19.5 50t50.5 19t50.5 -19t19.5 -50zM84 598q0 -32 -19.5 -51.5t-50.5 -19.5t-50.5 20t-19.5 51t19.5 50t50.5 19t50.5 -19t19.5 -50z" />
    <glyph glyph-name="imacron.smallcap" horiz-adv-x="250" 
d="M182 0h-115v475h115v-475zM286 544h-319l8 69h303z" />
    <glyph glyph-name="ibreve.smallcap" horiz-adv-x="250" 
d="M182 0h-115v475h115v-475zM298 708q-9 -89 -55 -139t-116 -50t-116 50.5t-55 138.5l80 -1q21 -111 91 -111q71 0 91 111z" />
    <glyph glyph-name="iogonek.smallcap" horiz-adv-x="250" 
d="M122 -219q-51 0 -82 27.5t-31 72.5q0 73 79 119h-21v475h116v-475q-35 -15 -56.5 -39t-21.5 -50q0 -22 11.5 -34.5t32.5 -12.5q29 0 51 15l20 -70q-42 -28 -98 -28z" />
    <glyph glyph-name="idotaccent.smallcap" horiz-adv-x="249" 
d="M182 0h-115v475h115v-475zM196 593q0 -31 -19.5 -52.5t-51.5 -21.5t-51.5 21.5t-19.5 52.5q0 30 20 51.5t51 21.5t51 -21.5t20 -51.5z" />
    <glyph glyph-name="dotlessi.smallcap" horiz-adv-x="249" 
d="M182 0h-115v475h115v-475z" />
    <glyph glyph-name="jcircumflex.smallcap" horiz-adv-x="381" 
d="M324 166q0 -86 -42 -132t-126 -46q-79 0 -137 34l22 97q52 -33 95 -33q38 0 54.5 21t16.5 68v300h117v-309zM439 523h-83l-90 118h-2l-89 -118h-84l117 187h114z" />
    <glyph glyph-name="jcircumflex.smallcap.alt" horiz-adv-x="381" 
d="M324 166q0 -86 -42 -132t-126 -46q-79 0 -137 34l22 97q52 -33 95 -33q38 0 54.5 21t16.5 68v300h117v-309zM439 523h-83l-90 118h-2l-89 -118h-84l117 187h114z" />
    <glyph glyph-name="dotlessj.smallcap" horiz-adv-x="381" 
d="M324 166q0 -86 -42 -132t-126 -46q-79 0 -137 34l22 97q52 -33 95 -33q38 0 54.5 21t16.5 68v300h117v-309z" />
    <glyph glyph-name="kcommaaccent.smallcap" horiz-adv-x="499" 
d="M175 -112q2 25 20.5 43t47.5 18q35 0 57.5 -23.5t22.5 -59.5q0 -91 -123 -143l-31 31q65 41 65 79q0 18 -12 30t-47 25zM182 264h1l161 211h133l-189 -230l194 -245h-139l-160 211h-1v-211h-116v475h116v-211z" />
    <glyph glyph-name="lacute.smallcap" horiz-adv-x="430" 
d="M301 701l-157 -183h-78l102 183h133zM401 0h-335v475h116v-378h219v-97z" />
    <glyph glyph-name="lcommaaccent.smallcap" horiz-adv-x="430" 
d="M401 0h-335v475h116v-378h219v-97zM154 -112q2 25 20.5 43t47.5 18q35 0 57.5 -23.5t22.5 -59.5q0 -91 -123 -143l-31 31q65 41 65 79q0 18 -12 30t-47 25z" />
    <glyph glyph-name="lcaron.smallcap" horiz-adv-x="676" 
d="M447 414q4 33 28 54t60 21q42 0 72 -32t30 -77q0 -105 -158 -200l-52 47q101 71 101 116q0 20 -17.5 35.5t-63.5 35.5zM401 0h-335v475h116v-378h219v-97z" />
    <glyph glyph-name="ldotaccent.smallcap" horiz-adv-x="631" 
d="M401 0h-335v475h116v-378h219v-97zM596 228q0 -30 -20.5 -52.5t-51.5 -22.5q-32 0 -53.5 22.5t-21.5 52.5t21.5 51t53.5 21t52 -21t20 -51z" />
    <glyph glyph-name="lslash.smallcap" horiz-adv-x="456" 
d="M209 201v-104h218v-97h-334v168l-76 -22v91l76 22v216h116v-183l114 32v-91z" />
    <glyph glyph-name="ntilde.smallcap" horiz-adv-x="568" 
d="M397 162l-1 313h108v-480h-123l-209 318l1 -313h-107v475h124zM465 666q-8 -75 -32.5 -107t-70.5 -32q-35 0 -87 31.5t-66 31.5q-26 0 -34 -57v0h-1h-1h-1h-1h-1h-1h-1h-1h-1h-1h-1h-1h-1h-2h-1h-1h-1h-1h-2h-1h-1h-2h-1h-2h-1h-2h-1h-2h-1h-2h-1h-2h-2h-1h-2h-2h-2h-2
h-1h-2h-2h-2h-2h-2h-2h-10q8 76 33 108t71 32q35 0 87 -32t65 -32q27 0 34 57v0h1h1h1h1h1h1h1h1h1h1h1h1h1h1h2h1h1h1h1h2h1h1h2h1h2h1h2h1h2h1h2h2h1h2h2h1h2h2h2h1h2h2h2h2h2h2h9z" />
    <glyph glyph-name="nacute.smallcap" horiz-adv-x="569" 
d="M460 706l-157 -183h-78l102 183h133zM397 162l-1 313h108v-480h-123l-209 318l1 -313h-107v475h124z" />
    <glyph glyph-name="ncommaaccent.smallcap" horiz-adv-x="569" 
d="M397 162l-1 313h108v-480h-123l-209 318l1 -313h-107v475h124zM230 -112q2 25 20.5 43t47.5 18q35 0 57.5 -23.5t22.5 -59.5q0 -91 -123 -143l-31 31q65 41 65 79q0 18 -12 30t-47 25z" />
    <glyph glyph-name="ncaron.smallcap" horiz-adv-x="569" 
d="M467 710l-117 -187h-114l-117 187h83l90 -117h2l89 117h84zM397 162l-1 313h108v-480h-123l-209 318l1 -313h-107v475h124z" />
    <glyph glyph-name="ograve.smallcap" horiz-adv-x="589" 
d="M544 240q0 -112 -71.5 -182t-178.5 -70q-109 0 -179 66t-70 183q0 111 71 181t179 70q109 0 179 -66t70 -182zM428 237q0 72 -36.5 115.5t-98.5 43.5q-61 0 -97 -43t-36 -113q0 -73 36.5 -117t98.5 -44t97.5 43.5t35.5 114.5zM347 523h-79l-157 183h133z" />
    <glyph glyph-name="oacute.smallcap" horiz-adv-x="589" 
d="M544 240q0 -112 -71.5 -182t-178.5 -70q-109 0 -179 66t-70 183q0 111 71 181t179 70q109 0 179 -66t70 -182zM428 237q0 72 -36.5 115.5t-98.5 43.5q-61 0 -97 -43t-36 -113q0 -73 36.5 -117t98.5 -44t97.5 43.5t35.5 114.5zM478 706l-157 -183h-78l102 183h133z" />
    <glyph glyph-name="ocircumflex.smallcap" horiz-adv-x="589" 
d="M544 240q0 -112 -71.5 -182t-178.5 -70q-109 0 -179 66t-70 183q0 111 71 181t179 70q109 0 179 -66t70 -182zM428 237q0 72 -36.5 115.5t-98.5 43.5q-61 0 -97 -43t-36 -113q0 -73 36.5 -117t98.5 -44t97.5 43.5t35.5 114.5zM468 523h-83l-90 118h-2l-89 -118h-84
l117 187h114z" />
    <glyph glyph-name="otilde.smallcap" horiz-adv-x="589" 
d="M544 240q0 -112 -71.5 -182t-178.5 -70q-109 0 -179 66t-70 183q0 111 71 181t179 70q109 0 179 -66t70 -182zM428 237q0 72 -36.5 115.5t-98.5 43.5q-61 0 -97 -43t-36 -113q0 -73 36.5 -117t98.5 -44t97.5 43.5t35.5 114.5zM476 666q-8 -75 -32.5 -107t-70.5 -32
q-35 0 -87 31.5t-66 31.5q-26 0 -34 -57v0h-1h-1h-1h-1h-1h-1h-1h-1h-1h-1h-1h-1h-1h-2h-1h-1h-1h-1h-2h-1h-1h-2h-1h-2h-1h-2h-1h-2h-1h-2h-1h-2h-2h-1h-2h-2h-2h-2h-1h-2h-2h-2h-2h-2h-2h-10q8 76 33 108t71 32q34 0 86 -32t66 -32q27 0 34 57v0h1h1h1h1h1h1h1h1h1h1h1h1
h1h1h2h1h1h1h1h2h1h1h2h1h2h1h2h1h2h1h2h2h1h2h2h1h2h2h2h1h2h2h2h2h2h2h9z" />
    <glyph glyph-name="odieresis.smallcap" horiz-adv-x="589" 
d="M544 240q0 -112 -71.5 -182t-178.5 -70q-109 0 -179 66t-70 183q0 111 71 181t179 70q109 0 179 -66t70 -182zM428 237q0 72 -36.5 115.5t-98.5 43.5q-61 0 -97 -43t-36 -113q0 -73 36.5 -117t98.5 -44t97.5 43.5t35.5 114.5zM473 598q0 -32 -19.5 -51.5t-50.5 -19.5
t-50.5 19.5t-19.5 51.5q0 31 19.5 50t50.5 19t50.5 -19t19.5 -50zM254 598q0 -32 -19.5 -51.5t-50.5 -19.5t-50.5 20t-19.5 51t19.5 50t50.5 19t50.5 -19t19.5 -50z" />
    <glyph glyph-name="omacron.smallcap" horiz-adv-x="589" 
d="M456 544h-319l8 69h303zM544 240q0 -112 -71.5 -182t-178.5 -70q-109 0 -179 66t-70 183q0 111 71 181t179 70q109 0 179 -66t70 -182zM428 237q0 72 -36.5 115.5t-98.5 43.5q-61 0 -97 -43t-36 -113q0 -73 36.5 -117t98.5 -44t97.5 43.5t35.5 114.5z" />
    <glyph glyph-name="obreve.smallcap" horiz-adv-x="589" 
d="M544 240q0 -112 -71.5 -182t-178.5 -70q-109 0 -179 66t-70 183q0 111 71 181t179 70q109 0 179 -66t70 -182zM428 237q0 72 -36.5 115.5t-98.5 43.5q-61 0 -97 -43t-36 -113q0 -73 36.5 -117t98.5 -44t97.5 43.5t35.5 114.5zM474 708q-9 -89 -55 -139t-116 -50
t-116 50.5t-55 138.5l80 -1q21 -111 91 -111q71 0 91 111z" />
    <glyph glyph-name="ohungarumlaut.smallcap" horiz-adv-x="589" 
d="M570 704l-166 -181h-85l138 181h113zM367 704l-143 -181h-87l117 181h113zM544 240q0 -112 -71.5 -182t-178.5 -70q-109 0 -179 66t-70 183q0 111 71 181t179 70q109 0 179 -66t70 -182zM428 237q0 72 -36.5 115.5t-98.5 43.5q-61 0 -97 -43t-36 -113q0 -73 36.5 -117
t98.5 -44t97.5 43.5t35.5 114.5z" />
    <glyph glyph-name="oslash.smallcap" horiz-adv-x="589" 
d="M142 31q-97 68 -97 206q0 111 71 181t179 70q57 0 104 -19l21 37h62q-36 -61 -36 -62q98 -65 98 -204q0 -112 -71.5 -182t-178.5 -70q-56 0 -104 18l-6 -10l-12 -20l-6 -11h-63q2 4 6.5 11t13 21.5t13.5 24.5zM194 120l157 268q-26 12 -58 12q-63 0 -99.5 -44t-36.5 -116
q0 -75 37 -120zM394 355l-157 -268q25 -12 58 -12q64 0 100 44.5t36 117.5q0 75 -37 118z" />
    <glyph glyph-name="oslashacute.smallcap" horiz-adv-x="589" 
d="M142 31q-97 68 -97 206q0 111 71 181t179 70q57 0 104 -19l21 37h62q-36 -61 -36 -62q98 -65 98 -204q0 -112 -71.5 -182t-178.5 -70q-56 0 -104 18l-6 -10l-12 -20l-6 -11h-63q2 4 6.5 11t13 21.5t13.5 24.5zM194 120l157 268q-26 12 -58 12q-63 0 -99.5 -44t-36.5 -116
q0 -75 37 -120zM394 355l-157 -268q25 -12 58 -12q64 0 100 44.5t36 117.5q0 75 -37 118zM473 706l-157 -183h-78l102 183h133z" />
    <glyph glyph-name="oe.smallcap" horiz-adv-x="761" 
d="M711 475v-90h-232v-102h193v-89h-193v-103h232v-91h-404q-124 0 -193 63.5t-69 171.5q0 111 70 175.5t198 64.5h398zM162 239q0 -73 40 -109.5t111 -36.5h55v289h-57q-67 0 -108 -37t-41 -106z" />
    <glyph glyph-name="thorn.smallcap" horiz-adv-x="488" 
d="M450 241q0 -84 -55 -128t-155 -44h-58v-69h-116v475h116v-71h65q99 0 151 -43.5t52 -119.5zM336 238q0 78 -101 78h-56v-163l56 2q101 3 101 83z" />
    <glyph glyph-name="racute.smallcap" horiz-adv-x="513" 
d="M408 706l-157 -183h-78l102 183h133zM180 158v-158h-114v475h197q93 0 143 -40.5t50 -111.5q0 -100 -91 -137l114 -186h-127l-93 163zM179 237l67 1q94 1 94 78q0 73 -95 73h-66v-152z" />
    <glyph glyph-name="rcommaaccent.smallcap" horiz-adv-x="513" 
d="M180 158v-158h-114v475h197q93 0 143 -40.5t50 -111.5q0 -100 -91 -137l114 -186h-127l-93 163zM179 237l67 1q94 1 94 78q0 73 -95 73h-66v-152zM187 -112q2 25 20.5 43t47.5 18q35 0 57.5 -23.5t22.5 -59.5q0 -91 -123 -143l-31 31q65 41 65 79q0 18 -12 30t-47 25z
" />
    <glyph glyph-name="rcaron.smallcap" horiz-adv-x="513" 
d="M410 710l-117 -187h-114l-117 187h83l90 -117h2l89 117h84zM180 158v-158h-114v475h197q93 0 143 -40.5t50 -111.5q0 -100 -91 -137l114 -186h-127l-93 163zM179 237l67 1q94 1 94 78q0 73 -95 73h-66v-152z" />
    <glyph glyph-name="sacute.smallcap" horiz-adv-x="457" 
d="M394 706l-157 -183h-78l102 183h133zM223 79q36 0 59 14.5t23 39.5q0 24 -23.5 36t-84.5 28q-31 8 -53.5 17.5t-47 25.5t-38 42t-13.5 60q0 66 47.5 106t133.5 40q99 0 175 -42l-23 -93q-77 41 -148 41q-36 0 -54.5 -13t-18.5 -34q0 -17 16.5 -29.5t34 -18t55.5 -15.5
q148 -37 148 -142q0 -69 -51.5 -111.5t-140.5 -42.5q-105 0 -181 43l21 93q81 -45 164 -45z" />
    <glyph glyph-name="scircumflex.smallcap" horiz-adv-x="457" 
d="M406 523h-83l-90 118h-2l-89 -118h-84l117 187h114zM223 79q36 0 59 14.5t23 39.5q0 24 -23.5 36t-84.5 28q-31 8 -53.5 17.5t-47 25.5t-38 42t-13.5 60q0 66 47.5 106t133.5 40q99 0 175 -42l-23 -93q-77 41 -148 41q-36 0 -54.5 -13t-18.5 -34q0 -17 16.5 -29.5t34 -18
t55.5 -15.5q148 -37 148 -142q0 -69 -51.5 -111.5t-140.5 -42.5q-105 0 -181 43l21 93q81 -45 164 -45z" />
    <glyph glyph-name="scedilla.smallcap" horiz-adv-x="457" 
d="M201 -59q57 -2 91 -26t34 -65q0 -100 -181 -122l-7 61q111 7 111 54q0 53 -118 38l-9 47l64 61q-87 8 -148 42l21 93q81 -45 164 -45q36 0 59 14.5t23 39.5q0 24 -23.5 36t-84.5 28q-31 8 -53.5 17.5t-47 25.5t-38 42t-13.5 60q0 66 47.5 106t133.5 40q99 0 175 -42
l-23 -93q-77 41 -148 41q-36 0 -54.5 -13t-18.5 -34q0 -17 16.5 -29.5t34 -18t55.5 -15.5q148 -37 148 -142q0 -62 -41.5 -103t-115.5 -49q-39 -37 -53 -49z" />
    <glyph glyph-name="scommaaccent.smallcap" horiz-adv-x="457" 
d="M223 79q36 0 59 14.5t23 39.5q0 24 -23.5 36t-84.5 28q-31 8 -53.5 17.5t-47 25.5t-38 42t-13.5 60q0 66 47.5 106t133.5 40q99 0 175 -42l-23 -93q-77 41 -148 41q-36 0 -54.5 -13t-18.5 -34q0 -17 16.5 -29.5t34 -18t55.5 -15.5q148 -37 148 -142q0 -69 -51.5 -111.5
t-140.5 -42.5q-105 0 -181 43l21 93q81 -45 164 -45zM149 -112q2 25 20.5 43t47.5 18q35 0 57.5 -23.5t22.5 -59.5q0 -91 -123 -143l-31 31q65 41 65 79q0 18 -12 30t-47 25z" />
    <glyph glyph-name="scaron.smallcap" horiz-adv-x="456" 
d="M223 79q36 0 59 14.5t23 39.5q0 24 -23.5 36t-84.5 28q-31 8 -53.5 17.5t-47 25.5t-38 42t-13.5 60q0 66 47.5 106t133.5 40q99 0 175 -42l-23 -93q-77 41 -148 41q-36 0 -54.5 -13t-18.5 -34q0 -17 16.5 -29.5t34 -18t55.5 -15.5q148 -37 148 -142q0 -69 -51.5 -111.5
t-140.5 -42.5q-105 0 -181 43l21 93q81 -45 164 -45zM408 714l-117 -187h-114l-117 187h83l90 -117h2l89 117h84z" />
    <glyph glyph-name="tcommaaccent.smallcap" horiz-adv-x="485" 
d="M457 378h-157v-378h-116v378h-157v97h430v-97zM167 -112q2 25 20.5 43t47.5 18q35 0 57.5 -23.5t22.5 -59.5q0 -91 -123 -143l-31 31q65 41 65 79q0 18 -12 30t-47 25z" />
    <glyph glyph-name="tcaron.smallcap" horiz-adv-x="485" 
d="M416 710l-117 -187h-115l-117 187h83l91 -117h1l90 117h84zM457 378h-157v-378h-116v378h-157v97h430v-97z" />
    <glyph glyph-name="ugrave.smallcap" horiz-adv-x="530" 
d="M474 193q0 -100 -55.5 -152.5t-153.5 -52.5q-96 0 -152.5 49t-56.5 146v292h116v-278q0 -110 95 -110q46 0 68.5 25.5t22.5 81.5v281h116v-282zM317 523h-79l-157 183h133z" />
    <glyph glyph-name="uacute.smallcap" horiz-adv-x="530" 
d="M474 193q0 -100 -55.5 -152.5t-153.5 -52.5q-96 0 -152.5 49t-56.5 146v292h116v-278q0 -110 95 -110q46 0 68.5 25.5t22.5 81.5v281h116v-282zM448 706l-157 -183h-78l102 183h133z" />
    <glyph glyph-name="ucircumflex.smallcap" horiz-adv-x="530" 
d="M474 193q0 -100 -55.5 -152.5t-153.5 -52.5q-96 0 -152.5 49t-56.5 146v292h116v-278q0 -110 95 -110q46 0 68.5 25.5t22.5 81.5v281h116v-282zM439 523h-83l-90 118h-2l-89 -118h-84l117 187h114z" />
    <glyph glyph-name="udieresis.smallcap" horiz-adv-x="530" 
d="M474 193q0 -100 -55.5 -152.5t-153.5 -52.5q-96 0 -152.5 49t-56.5 146v292h116v-278q0 -110 95 -110q46 0 68.5 25.5t22.5 81.5v281h116v-282zM444 598q0 -32 -19.5 -51.5t-50.5 -19.5t-50.5 19.5t-19.5 51.5q0 31 19.5 50t50.5 19t50.5 -19t19.5 -50zM225 598
q0 -32 -19.5 -51.5t-50.5 -19.5t-50.5 20t-19.5 51t19.5 50t50.5 19t50.5 -19t19.5 -50z" />
    <glyph glyph-name="umacron.smallcap" horiz-adv-x="530" 
d="M474 193q0 -100 -55.5 -152.5t-153.5 -52.5q-96 0 -152.5 49t-56.5 146v292h116v-278q0 -110 95 -110q46 0 68.5 25.5t22.5 81.5v281h116v-282zM434 544h-319l8 69h303z" />
    <glyph glyph-name="ubreve.smallcap" horiz-adv-x="530" 
d="M474 193q0 -100 -55.5 -152.5t-153.5 -52.5q-96 0 -152.5 49t-56.5 146v292h116v-278q0 -110 95 -110q46 0 68.5 25.5t22.5 81.5v281h116v-282zM445 708q-9 -89 -55 -139t-116 -50t-116 50.5t-55 138.5l80 -1q21 -111 91 -111q71 0 91 111z" />
    <glyph glyph-name="uring.smallcap" horiz-adv-x="530" 
d="M402 635q0 -48 -36.5 -80.5t-96.5 -32.5t-96.5 32.5t-36.5 80.5q0 49 36.5 82t96.5 33t96 -33t37 -82zM346 636q0 29 -21 48.5t-56 19.5q-34 0 -55 -19.5t-21 -48.5t21 -48.5t55 -19.5q35 0 56 19.5t21 48.5zM474 193q0 -100 -55.5 -152.5t-153.5 -52.5q-96 0 -152.5 49
t-56.5 146v292h116v-278q0 -110 95 -110q46 0 68.5 25.5t22.5 81.5v281h116v-282z" />
    <glyph glyph-name="uhungarumlaut.smallcap" horiz-adv-x="530" 
d="M474 193q0 -100 -55.5 -152.5t-153.5 -52.5q-96 0 -152.5 49t-56.5 146v292h116v-278q0 -110 95 -110q46 0 68.5 25.5t22.5 81.5v281h116v-282zM551 704l-166 -181h-85l138 181h113zM348 704l-143 -181h-87l117 181h113z" />
    <glyph glyph-name="uogonek.smallcap" horiz-adv-x="530" 
d="M475 193q0 -128 -95 -183q-76 -46 -76 -99q0 -22 11.5 -34.5t32.5 -12.5q29 0 51 15l20 -70q-40 -28 -97 -28q-51 0 -82.5 27t-31.5 73q0 63 61 107h-8q-95 1 -150 50.5t-55 144.5v292h117v-277q0 -110 94 -110q91 0 91 106v281h117v-282z" />
    <glyph glyph-name="wcircumflex.smallcap" horiz-adv-x="762" 
d="M557 523h-83l-90 118h-2l-89 -118h-84l117 187h114zM381 347l-99 -347h-118l-131 475h121l76 -342l89 342h127l89 -342l76 342h117l-132 -475h-119z" />
    <glyph glyph-name="wgrave.smallcap" horiz-adv-x="762" 
d="M381 347l-99 -347h-118l-131 475h121l76 -342l89 342h127l89 -342l76 342h117l-132 -475h-119zM435 523h-79l-157 183h133z" />
    <glyph glyph-name="wacute.smallcap" horiz-adv-x="762" 
d="M564 706l-157 -183h-78l102 183h133zM381 347l-99 -347h-118l-131 475h121l76 -342l89 342h127l89 -342l76 342h117l-132 -475h-119z" />
    <glyph glyph-name="wdieresis.smallcap" horiz-adv-x="762" 
d="M562 598q0 -32 -19.5 -51.5t-50.5 -19.5t-50.5 19.5t-19.5 51.5q0 31 19.5 50t50.5 19t50.5 -19t19.5 -50zM343 598q0 -32 -19.5 -51.5t-50.5 -19.5t-50.5 20t-19.5 51t19.5 50t50.5 19t50.5 -19t19.5 -50zM381 347l-99 -347h-118l-131 475h121l76 -342l89 342h127
l89 -342l76 342h117l-132 -475h-119z" />
    <glyph glyph-name="yacute.smallcap" horiz-adv-x="484" 
d="M465 475l-165 -295v-180h-115v181l-165 294h123l100 -195l98 195h124zM434 706l-157 -183h-78l102 183h133z" />
    <glyph glyph-name="ycircumflex.smallcap" horiz-adv-x="485" 
d="M465 475l-165 -295v-180h-115v181l-165 294h123l100 -195l98 195h124zM418 523h-83l-90 118h-2l-89 -118h-84l117 187h114z" />
    <glyph glyph-name="ydieresis.smallcap" horiz-adv-x="484" 
d="M465 475l-165 -295v-180h-115v181l-165 294h123l100 -195l98 195h124zM424 598q0 -32 -19.5 -51.5t-50.5 -19.5t-50.5 19.5t-19.5 51.5q0 31 19.5 50t50.5 19t50.5 -19t19.5 -50zM205 598q0 -32 -19.5 -51.5t-50.5 -19.5t-50.5 20t-19.5 51t19.5 50t50.5 19t50.5 -19
t19.5 -50z" />
    <glyph glyph-name="zacute.smallcap" horiz-adv-x="474" 
d="M401 706l-157 -183h-78l102 183h133zM422 0h-387v77l244 303h-239v95h383v-78l-242 -301h241v-96z" />
    <glyph glyph-name="zdotaccent.smallcap" horiz-adv-x="474" 
d="M422 0h-387v77l244 303h-239v95h383v-78l-242 -301h241v-96zM308 593q0 -31 -19.5 -52.5t-51.5 -21.5t-51.5 21.5t-19.5 52.5q0 30 20 51.5t51 21.5t51 -21.5t20 -51.5z" />
    <glyph glyph-name="zcaron.smallcap" horiz-adv-x="473" 
d="M422 0h-387v77l244 303h-239v95h383v-78l-242 -301h241v-96zM405 710l-117 -187h-114l-117 187h83l90 -117h2l89 117h84z" />
    <glyph glyph-name="solidus" horiz-adv-x="212" 
d="M423 625l-545 -741h-89l545 741h89z" />
    <glyph glyph-name="plusinferior" horiz-adv-x="330" 
d="M290 16h-97v-98h-56v98h-97l1 54h96v98h56v-98h95z" />
    <glyph glyph-name="minusinferior" horiz-adv-x="330" 
d="M290 16h-250l1 55h247z" />
    <glyph glyph-name="zero.lnum" 
d="M470 312q0 -154 -58.5 -240.5t-164.5 -86.5q-104 0 -160.5 85t-56.5 240q0 153 58.5 239.5t163.5 86.5q104 0 161 -85.5t57 -238.5zM360 308q0 124 -30.5 180.5t-81.5 56.5q-109 0 -109 -235q0 -120 31 -176t82 -56q108 0 108 230z" />
    <glyph glyph-name="one.lnum" 
d="M232 0v502l-149 -36l-3 101l267 64v-631h-115z" />
    <glyph glyph-name="two.lnum" 
d="M456 0h-415l-3 94l73 69l65 60.5l50.5 49t42 46.5t27 39.5t19.5 41t5 39.5q0 43 -28 69.5t-72 26.5q-72 0 -143 -62l-38 91q86 71 196 71q93 0 148 -51t55 -133q0 -33 -13 -66.5t-29 -59t-59 -68.5l-72 -70l-99 -88v0v0v0v0h1v0v0h1v0h1v0h1h1v0h1h1h1h1h1h1h1h1h1h1h1h1
h1h1h1h1h1h1h1h1h1h1h1h1h1h1h1h1h1h1h1h1h1h1h1h1h1h1h1h1h1h1h1h1h1h1h2h1h1h1h1h1h1h1h1h1h2h1h1h1h1h1h1h2h1h1h1h1h2h1h1h1h2h1h1h1h2h1h1h1h2h1h1h2h1h1h2h1h1h2h1h1h2h1h1h2h1h2h1h1h2h1h2h1h2h1h1h2h1h2h1h2h1h2h1h2h1h2h1h2h1h2h1h2h1h2h1h2h1h2h2h1h2h1h2h2h1h2h1
h2h2h1h2h1h2h2h1h2h2h1h2h2h1h2h2h1h2h2h1h2h2h2h1h2h2h1h2h2h2h1h2h2h2h1h2h2h2h2h1h2h2h2h2h1h2h2h2h2h2h1h2h2h2h2h2h1h10z" />
    <glyph glyph-name="three.lnum" 
d="M275 327q87 1 133.5 -41.5t46.5 -106.5q0 -88 -67.5 -141t-169.5 -53q-97 0 -181 42l19 95q88 -42 161 -42q54 0 91 25t37 70q0 41 -35 67t-100 25q-33 0 -94 -9v86q103 23 153.5 49.5t50.5 70.5q0 33 -24.5 53.5t-71.5 20.5q-37 0 -77.5 -15.5t-70.5 -41.5l-37 92
q91 63 194 63q89 0 143.5 -40.5t54.5 -114.5q0 -111 -156 -154z" />
    <glyph glyph-name="four.lnum" 
d="M488 153h-86v-153h-102v153h-271l-8 78l252 395h129v-381h83zM302 243v278l-177 -278h177z" />
    <glyph glyph-name="five.lnum" 
d="M169 372q30 6 64 6q99 0 158 -49.5t59 -134.5q0 -93 -62 -151t-168 -58q-103 0 -178 40l14 101q72 -44 161 -44q54 0 87.5 28t33.5 80q0 47 -34.5 74.5t-96.5 27.5q-76 0 -132 -25l-18 19l42 336h338l3 -101h-252z" />
    <glyph glyph-name="six.lnum" 
d="M32 252q0 139 92.5 246t258.5 139l27 -88q-104 -23 -174 -79t-92 -136l4 -2q70 61 151 61q74 0 122.5 -52.5t48.5 -138.5q0 -94 -58.5 -155.5t-156.5 -61.5q-106 0 -164.5 75t-58.5 192zM143 218q0 -60 31 -101t85 -41q46 0 74 32.5t28 84.5q0 51 -27 80t-73 29
q-66 0 -113 -45q-5 -20 -5 -39z" />
    <glyph glyph-name="seven.lnum" 
d="M349 521h-315l3 101h421l6 -89l-270 -533h-110z" />
    <glyph glyph-name="eight.lnum" 
d="M471 169q0 -79 -58 -131.5t-165 -52.5q-103 0 -161.5 47.5t-58.5 124.5q0 54 35 92.5t89 59.5q-113 55 -113 144q0 82 57 132.5t159 50.5q98 0 152 -48t54 -124q0 -96 -110 -146q120 -58 120 -149zM354 454q0 44 -29 71t-73 27q-48 0 -75.5 -25.5t-27.5 -64.5
q0 -78 132 -114q73 37 73 106zM362 161q0 81 -140 122q-84 -41 -84 -112q0 -44 32 -71t84 -27t80 23t28 65z" />
    <glyph glyph-name="nine.lnum" 
d="M467 369q0 -139 -92.5 -246t-258.5 -140l-26 89q105 23 174 78.5t91 136.5l-3 2q-70 -61 -152 -61q-73 0 -121.5 52.5t-48.5 137.5q0 95 58 156.5t156 61.5q106 0 164.5 -75.5t58.5 -191.5zM356 403q0 59 -30.5 100t-84.5 41q-46 0 -74.5 -32t-28.5 -85q0 -50 27 -79
t73 -29q65 0 114 45q4 24 4 39z" />
    <glyph glyph-name="dollar.lnum" 
d="M269 639l13 91h58l-14 -97q70 -13 126 -48l-29 -100q-51 31 -112 47l-24 -166q80 -24 129 -66t49 -121q0 -86 -62 -140t-166 -54h-14l-16 -108h-59q1 7 3 19t5.5 37t5.5 41l2 17q-81 14 -142 52l28 102q62 -39 129 -55l26 182q-36 11 -63 23.5t-54 33.5t-41.5 53
t-14.5 74q0 84 58 134t156 50q15 0 23 -1zM231 382l23 157q-2 1 -8 1q-52 0 -78 -20.5t-26 -55.5q0 -30 21.5 -48t67.5 -34zM237 84h5q52 0 83 23t31 63q0 32 -22.5 50.5t-71.5 34.5z" />
    <glyph glyph-name="cent.lnum" 
d="M370 469q48 -9 87 -32l-24 -93q-41 24 -78 32l-11 -74l-22 -148l-12 -74q65 0 126 37l18 -94q-62 -38 -157 -38h-1l-18 -115h-57l18 120q-85 17 -133.5 79.5t-48.5 159.5q0 111 66.5 179t174.5 68h14l15 94h58zM298 382q-60 -3 -93 -43.5t-33 -106.5q0 -109 82 -143z" />
    <glyph glyph-name="sterling.lnum" 
d="M103 336q-4 62 -4 89q0 103 56.5 159t149.5 56q89 0 159 -42l-25 -96q-63 40 -128 40q-51 0 -77.5 -32t-26.5 -85q0 -21 4 -89h177l-3 -62h-170q3 -38 3 -74q0 -38 -7 -66q58 -49 120 -49q34 0 57 21.5t32 76.5l80 -17q-5 -89 -50 -135t-110 -46q-78 0 -162 78
q-43 -57 -145 -80q-2 6 -4 15.5t-7.5 29.5l-9 32.5t-3.5 11.5q59 15 82 40.5t23 74.5q0 25 -4 87h-89l-4 62h86z" />
    <glyph glyph-name="yen.lnum" 
d="M192 266h-158l-3 62h137l-183 297h132l133 -249l132 249h130l-182 -297h138l-4 -62h-158v-72h158l4 -61h-160v-133h-118v133h-159l3 61h158v72z" />
    <glyph glyph-name="Euro.lnum" horiz-adv-x="526" 
d="M103 362v0v0h-1h-1h-1h-1h-1h-1h-1h-1h-1h-1h-1h-1h-1h-1h-2h-1h-1h-1h-1h-2h-1h-1h-1h-2h-1h-2h-1h-1h-2h-1h-2h-1h-2h-1h-2h-1h-2h-2h-1h-2h-2h-1h-2h-2h-1h-2h-2h-9l-3 62h83q22 112 85 165.5t155 53.5q100 0 163 -38l-24 -94q-59 35 -130 35q-101 0 -129 -122h213
l-3 -62h-219q-1 -13 -1 -45q0 -28 3 -52h187l3 -62h-179q30 -121 127 -121q74 0 131 35l18 -95q-63 -37 -163 -37q-202 0 -239 218h-81l3 62h72q-1 14 -1 45q0 35 1 52z" />
    <glyph glyph-name="degree.lnum" 
d="M414 475q0 -69 -45 -116.5t-120 -47.5q-73 0 -118.5 48t-45.5 116q0 69 45.5 117t118.5 48q75 0 120 -47.5t45 -117.5zM361 475q0 49 -30.5 81.5t-81.5 32.5q-50 0 -80 -32.5t-30 -81.5q0 -47 30 -79.5t80 -32.5q51 0 81.5 32.5t30.5 79.5z" />
    <glyph glyph-name="plus.lnum" 
d="M466 190h-167v-170h-96v170h-169l3 94h166v169h96v-169h164z" />
    <glyph glyph-name="minus.lnum" 
d="M466 190h-432l3 94h426z" />
    <glyph glyph-name="plusminus.lnum" 
d="M466 253h-167v-134h-96v134h-169l3 94h166v134h96v-134h164zM466 0h-432l3 94h426z" />
    <glyph glyph-name="logicalnot.lnum" 
d="M463 341v-230h-93v136h-333l3 94h423z" />
    <glyph glyph-name="equal.lnum" 
d="M451 288h-401l-5 93h411zM456 88h-411l5 93h401z" />
    <glyph glyph-name="notequal.lnum" 
d="M136 -33l31 121h-122l5 93h142l28 107h-170l-5 93h199l29 111h91l-29 -111h121l-5 -93h-140l-28 -107h168l5 -93h-198l-31 -121h-91z" />
    <glyph glyph-name="approxequal.lnum" 
d="M454 398q-10 -57 -45 -95.5t-86 -38.5q-29 0 -81 24.5t-67 24.5q-35 0 -46 -44h-82q10 57 45 95.5t86 38.5q29 0 82.5 -24.5t65.5 -24.5q17 0 28 8.5t19 35.5h81zM454 200q-10 -57 -45 -95.5t-86 -38.5q-29 0 -81 24.5t-67 24.5q-35 0 -46 -44h-82q10 57 45 95.5t86 38.5
q29 0 82.5 -24.5t65.5 -24.5q17 0 28 8.5t19 35.5h81z" />
    <glyph glyph-name="multiply.lnum" 
d="M469 84l-64 -65l-153 154l-152 -154l-65 65l155 152l-155 153l65 64l152 -155l153 155l64 -64l-154 -153z" />
    <glyph glyph-name="divide.lnum" 
d="M325 405q0 -30 -21 -50.5t-54 -20.5q-32 0 -52.5 20.5t-20.5 50.5q0 31 20.5 52t52.5 21q33 0 54 -21t21 -52zM466 190h-432l3 94h426zM325 68q0 -30 -20.5 -51t-52.5 -21q-33 0 -54 21t-21 51q0 31 21 51t54 20q32 0 52.5 -20t20.5 -51z" />
    <glyph glyph-name="less.lnum" 
d="M447 111v-101l-402 186v79l401 186v-101l-271 -120v-10z" />
    <glyph glyph-name="greater.lnum" 
d="M446 196l-401 -186v101l271 119v10l-271 120v101l401 -186v-79z" />
    <glyph glyph-name="lessequal.lnum" 
d="M431 0h-355l3 94h349zM430 202v-93l-361 142v108l361 142v-93l-255 -99v-9z" />
    <glyph glyph-name="greaterequal.lnum" 
d="M424 0h-355l3 94h349zM70 109v93l255 98v9l-255 99v93l361 -142v-108z" />
    <glyph glyph-name="bar.lnum" horiz-adv-x="250" 
d="M75 -199v901h101v-901h-101z" />
    <glyph glyph-name="brokenbar.lnum" horiz-adv-x="250" 
d="M75 307v335h101v-335h-101zM75 -139v335h101v-335h-101z" />
    <glyph glyph-name="bullet.lnum" 
d="M442 232q0 -22 -20 -71.5t-36 -65.5q-15 -15 -65 -35.5t-72 -20.5q-21 0 -71 20.5t-64 35.5q-15 16 -36 66t-21 71q0 22 21 71.5t36 64.5t65 35.5t71 20.5q22 0 71.5 -20.5t64.5 -35.5t35.5 -64.5t20.5 -71.5z" />
    <glyph glyph-name="asciitilde.lnum" 
d="M433 321q-8 -75 -32.5 -107t-70.5 -32q-35 0 -87 31.5t-66 31.5q-26 0 -34 -57v0h-1h-1h-1h-1h-1h-1h-1h-1h-1h-1h-1h-1h-1h-2h-1h-1h-1h-1h-2h-1h-1h-2h-1h-2h-1h-2h-1h-2h-1h-2h-1h-2h-2h-1h-2h-2h-2h-2h-1h-2h-2h-2h-2h-2h-2h-10q8 76 33 108t71 32q34 0 86.5 -32
t65.5 -32q27 0 34 57v0h1h1h1h1h1h1h1h1h1h1h1h1h1h1h2h1h1h1h1h2h1h1h2h1h2h1h2h1h2h1h2h2h1h2h2h1h2h2h2h1h2h2h2h2h2h2h9z" />
    <glyph glyph-name="quotesingle.lnum" horiz-adv-x="250" 
d="M96 398h-67l115 247l105 -36z" />
    <glyph glyph-name="quotedbl.lnum" 
d="M311 398h-67l115 247l104 -36zM131 398h-67l115 247l105 -36z" />
    <glyph glyph-name="parenleft.lnum" 
d="M403 -261q-52 27 -101 71t-92 104.5t-69.5 142t-26.5 170.5t26.5 171t69.5 142.5t92 104.5t100 70l58 -78q-96 -56 -166.5 -164.5t-70.5 -245.5q0 -136 70.5 -245t166.5 -165z" />
    <glyph glyph-name="parenright.lnum" 
d="M98 -261l-58 78q96 56 166.5 165t70.5 245q0 137 -70 245.5t-167 164.5l59 78q51 -26 99.5 -70t92 -104.5t69.5 -142.5t26 -171t-26.5 -170.5t-69.5 -142t-91.5 -104.5t-100.5 -71z" />
    <glyph glyph-name="bracketleft.lnum" 
d="M438 -214h-308v897h308v-89h-203v-718h203v-90z" />
    <glyph glyph-name="bracketright.lnum" 
d="M63 -214v90h203v718h-203v89h307v-897h-307z" />
    <glyph glyph-name="asterisk.lnum" 
d="M240 430l-100 -118l-65 86l145 59v7l-143 60l63 87l100 -121l6 2l15 155l101 -33l-85 -133l4 -5l149 36v-106l-149 37l-4 -5l82 -134l-101 -31l-12 156z" />
    <glyph glyph-name="braceleft.lnum" 
d="M418 -221q-129 5 -192 34t-63 101q0 43 19.5 106t19.5 89q0 38 -28.5 55.5t-93.5 22.5l-3 52l3 52q66 5 94 22t28 56q0 26 -19.5 89.5t-19.5 106.5q0 72 63.5 101t191.5 34v-75q-79 -6 -112 -22t-33 -48q0 -23 18.5 -82t18.5 -102q0 -54 -37.5 -88.5t-102.5 -38.5v-10
q65 -4 102.5 -38.5t37.5 -88.5q0 -43 -18.5 -100.5t-18.5 -80.5q0 -33 33 -50t112 -22v-75z" />
    <glyph glyph-name="braceright.lnum" 
d="M422 239l-3 -52q-66 -5 -94.5 -22.5t-28.5 -55.5q0 -26 20.5 -89t20.5 -106q0 -72 -63 -101t-193 -34v75q79 5 112 22t33 50q0 23 -18 80.5t-18 100.5q0 54 37 88.5t103 38.5v10q-66 4 -103 38.5t-37 88.5q0 43 18 102t18 82q0 32 -33 48t-112 22v75q129 -5 192.5 -34
t63.5 -101q0 -43 -20.5 -107t-20.5 -89q0 -39 28.5 -56t94.5 -22z" />
    <glyph glyph-name="section.lnum" 
d="M478 297q0 -87 -93 -121q50 -37 50 -92q0 -65 -51.5 -107.5t-136.5 -42.5q-101 0 -174 42l25 91q73 -44 152 -44q35 0 56 14t21 39q0 14 -9 24.5t-29.5 19.5t-37 14t-47.5 13t-50.5 14t-46 18t-42 25t-26.5 34.5t-11 47.5q0 42 28 74t72 46q-51 37 -51 92q0 65 49.5 105
t130.5 40q93 0 164 -37l-25 -90q-73 38 -142 38q-33 0 -51.5 -12.5t-18.5 -35.5q0 -22 27 -35t80 -28q11 -2 16 -4q29 -8 49.5 -15t45 -19.5t40 -26.5t26 -35t10.5 -46zM383 272q0 27 -29 44.5t-90.5 36t-88.5 30.5q-53 -35 -53 -72q0 -26 30.5 -43.5t92.5 -36t91 -31.5
q47 29 47 72z" />
    <glyph glyph-name="paragraph.lnum" 
d="M332 230q-24 -4 -45 -4q-124 0 -187.5 53t-63.5 145q0 96 69 148.5t190 52.5h-1v0v0v0v0v0h1v0h1h1v0h1h1h1h1h1h1h1h1h1h1h1h1h1h1h1h1h1h1h1h1h1h1h1h1h1h1h2h1h1h1h1h1h2h1h1h1h2h1h1h1h2h1h1h2h1h1h2h1h2h1h2h1h1h2h1h2h1h2h1h2h1h2h2h1h2h1h2h1h2h2h1h2h2h1h2h2h1h2
h2h1h2h2h2h1h2h2h2h2h1h2h2h2h1h9v-692h-101v297z" />
    <glyph glyph-name="period.lnum" horiz-adv-x="250" 
d="M205 63q0 -33 -22 -55.5t-56 -22.5q-35 0 -57.5 22.5t-22.5 55.5t22.5 55t57.5 22q34 0 56 -22t22 -55z" />
    <glyph glyph-name="comma.lnum" horiz-adv-x="250" 
d="M33 71q4 33 28 54t60 21q42 0 72 -32t30 -78q0 -104 -158 -199l-52 47q101 71 101 116q0 20 -17.5 35.5t-63.5 35.5z" />
    <glyph glyph-name="colon.lnum" horiz-adv-x="250" 
d="M205 358q0 -33 -22 -55.5t-56 -22.5q-35 0 -57.5 22.5t-22.5 55.5t22.5 55t57.5 22q34 0 56 -22t22 -55zM205 63q0 -33 -22 -55.5t-56 -22.5q-35 0 -57.5 22.5t-22.5 55.5t22.5 55t57.5 22q34 0 56 -22t22 -55z" />
    <glyph glyph-name="semicolon.lnum" horiz-adv-x="250" 
d="M205 358q0 -33 -22 -55.5t-56 -22.5q-35 0 -57.5 22.5t-22.5 55.5t22.5 55t57.5 22q34 0 56 -22t22 -55zM33 71q4 33 28 54t60 21q42 0 72 -32t30 -78q0 -104 -158 -199l-52 47q101 71 101 116q0 20 -17.5 35.5t-63.5 35.5z" />
    <glyph glyph-name="guilsinglleft.lnum" horiz-adv-x="353" 
d="M314 97l-17 -79l-269 161v109l269 161l17 -79l-183 -135v-2z" />
    <glyph glyph-name="guilsinglright.lnum" horiz-adv-x="353" 
d="M325 179l-269 -161l-18 79l183 136v2l-183 135l18 79l269 -161v-109z" />
    <glyph glyph-name="guillemotleft.lnum" horiz-adv-x="593" 
d="M569 97l-16 -79l-259 161v109l259 161l16 -79l-167 -135v-2zM285 105l-17 -76l-250 153v104l250 153l17 -76l-161 -128v-2z" />
    <glyph glyph-name="guillemotright.lnum" horiz-adv-x="598" 
d="M580 182l-249 -153l-18 76l161 128v2l-161 128l18 76l249 -153v-104zM305 179l-260 -161l-16 79l167 136v2l-167 135l16 79l260 -161v-109z" />
    <glyph glyph-name="periodcentered.lnum" horiz-adv-x="250" 
d="M206 242q0 -33 -22 -55.5t-56 -22.5q-35 0 -57.5 22.5t-22.5 55.5t22.5 55t57.5 22q34 0 56 -22t22 -55z" />
    <glyph glyph-name="hyphen.lnum" horiz-adv-x="341" 
d="M312 192h-282v101h282v-101z" />
    <glyph glyph-name="endash.lnum" horiz-adv-x="493" 
d="M468 194h-440l3 89h434z" />
    <glyph glyph-name="emdash.lnum" horiz-adv-x="963" 
d="M938 194h-910l3 89h904z" />
    <glyph glyph-name="tribol_north.orn" horiz-adv-x="750" 
d="M88 45l288 539l286 -539h-574zM502 137l-127 261l-127 -261h254z" />
    <glyph glyph-name="tribol_east.orn" horiz-adv-x="750" 
d="M145 600l539 -288l-539 -286v574zM237 186l261 127l-261 127v-254z" />
    <glyph glyph-name="tribol_south.orn" horiz-adv-x="750" 
d="M88 584h574l-286 -539zM502 492h-254l127 -261z" />
    <glyph glyph-name="tribol_west.orn" horiz-adv-x="750" 
d="M604 600v-574l-539 286zM512 186v254l-261 -127z" />
    <glyph glyph-name="trisol_north.orn" horiz-adv-x="750" 
d="M88 45l288 539l286 -539h-574z" />
    <glyph glyph-name="trisol_east.orn" horiz-adv-x="750" 
d="M145 600l539 -288l-539 -286v574z" />
    <glyph glyph-name="trisol_south.orn" horiz-adv-x="750" 
d="M88 584h574l-286 -539z" />
    <glyph glyph-name="trisol_west.orn" horiz-adv-x="750" 
d="M604 600v-574l-539 286z" />
    <glyph glyph-name="arrow_north.orn" horiz-adv-x="750" 
d="M311 -16l17 482l-188 -218l-94 77l324 320h10l324 -320l-94 -77l-188 218l17 -482h-128z" />
    <glyph glyph-name="arrow_east.orn" horiz-adv-x="750" 
d="M388 -17l-77 94l218 187l-482 -16v127l482 -16l-218 188l77 94l321 -324v-11z" />
    <glyph glyph-name="arrow_south.orn" horiz-adv-x="750" 
d="M369 -20l-324 320l93 77l189 -218l-17 482h128l-17 -482l188 218l93 -77l-323 -320h-10z" />
    <glyph glyph-name="arrow_west.orn" horiz-adv-x="750" 
d="M361 -17l-321 323v11l321 324l76 -94l-217 -188l482 16v-127l-482 16l217 -187z" />
    <glyph glyph-name="sqrreg_2.orn" 
d="M41 417h418v-417h-418v417zM406 53v313h-313v-313h313z" />
    <glyph glyph-name="sqrbol_2.orn" 
d="M41 417h418v-417h-418v417zM368 91v236h-236v-236h236z" />
    <glyph glyph-name="sqrshd_2.orn" 
d="M41 417h418v-417h-418v417zM414 373h-37l37 -37v37zM414 307l-65 66h-65l130 -130v64zM414 215l-158 158h-64l222 -222v64zM414 123l-250 250h-64l314 -314v64zM400 46l-314 313v-65l250 -248h64zM307 46l-221 220v-64l157 -156h64zM214 46l-128 127v-64l64 -63h64z
M122 46l-36 36v-36h36z" />
    <glyph glyph-name="sqrsol_2.orn" 
d="M41 0v417h418v-417h-418z" />
    <glyph glyph-name="sqrreg_1.orn" horiz-adv-x="750" 
d="M688 626v-626h-626v626h626zM633 55v516h-516v-516h516z" />
    <glyph glyph-name="sqrbol_1.orn" horiz-adv-x="750" 
d="M688 626v-626h-626v626h626zM177 511v-396h396v396h-396z" />
    <glyph glyph-name="sqrshd_1.orn" horiz-adv-x="750" 
d="M688 626v-626h-626v626h626zM633 493v78h-78zM633 351v116l-104 104h-116zM633 209v116l-246 246h-116zM633 68v116l-387 387h-116zM505 55h116l-504 504v-116zM117 417v-116l246 -246h116zM221 55h116l-220 220v-116zM117 135v-80h80z" />
    <glyph glyph-name="sqrsol_1.orn" horiz-adv-x="750" 
d="M688 626v-626h-626v626h626z" />
    <glyph glyph-name="crcreg_2.orn" 
d="M250 -10q-92 0 -155.5 63.5t-63.5 155.5t63.5 155t155.5 63t155.5 -63t63.5 -155t-63.5 -155.5t-155.5 -63.5zM416 209q0 70 -48 119t-118 49t-118 -49t-48 -119t48 -119t118 -49t118 49t48 119z" />
    <glyph glyph-name="crcbol_2.orn" 
d="M250 -10q-92 0 -155.5 63.5t-63.5 155.5t63.5 155t155.5 63t155.5 -63t63.5 -155t-63.5 -155.5t-155.5 -63.5zM376 209q0 53 -36.5 90.5t-89.5 37.5t-89.5 -37.5t-36.5 -90.5q0 -54 36 -91t90 -37t90 37t36 91z" />
    <glyph glyph-name="crcshd_2.orn" 
d="M250 -10q-92 0 -155.5 63.5t-63.5 155.5t63.5 155t155.5 63t155.5 -63t63.5 -155t-63.5 -155.5t-155.5 -63.5zM376 337q-45 43 -101 50l151 -151q-7 58 -50 101zM428 205l-184 184q-32 -2 -55 -11l228 -229q9 24 11 56zM410 128l-241 242q-18 -7 -38 -27l253 -254
q17 17 26 39zM370 75l-254 254q-17 -17 -26 -40l242 -241q19 8 38 27zM311 39l-229 229q-8 -24 -10 -55l184 -184q31 0 55 10zM74 182q7 -60 53 -104q42 -41 98 -48z" />
    <glyph glyph-name="crcsol_2.orn" 
d="M250 -10q-92 0 -155.5 63.5t-63.5 155.5t63.5 155t155.5 63t155.5 -63t63.5 -155t-63.5 -155.5t-155.5 -63.5z" />
    <glyph glyph-name="crcreg_1.orn" horiz-adv-x="750" 
d="M703 313q0 -138 -95 -233t-233 -95t-233 95t-95 233t95 233t233 95t233 -95t95 -233zM375 37q116 0 194.5 80.5t78.5 195.5t-78.5 195.5t-194.5 80.5t-194.5 -80.5t-78.5 -195.5t78.5 -195.5t194.5 -80.5z" />
    <glyph glyph-name="crcbol_1.orn" horiz-adv-x="750" 
d="M703 313q0 -138 -95 -233t-233 -95t-233 95t-95 233t95 233t233 95t233 -95t95 -233zM375 529q-90 0 -151.5 -63t-61.5 -153t61.5 -153t151.5 -63t151.5 63t61.5 153t-61.5 153t-151.5 63z" />
    <glyph glyph-name="crcshd_1.orn" horiz-adv-x="750" 
d="M703 313q0 -138 -95 -233t-233 -95t-233 95t-95 233t95 234t233 96t233 -96t95 -234zM647 337q-8 102 -78.5 173t-172.5 78zM629 212q17 45 19 98l-279 279q-53 -2 -97 -19l60 -60l115.5 -115.5l130.5 -130.5zM576 125q28 29 46 69l-92 92l-183 184l-92 92
q-38 -18 -68 -48zM496 64q38 18 68 48l-390 390q-27 -28 -46 -70zM120 414q-16 -45 -18 -98l279 -279q49 0 97 19zM103 289q8 -102 78.5 -173t172.5 -78z" />
    <glyph glyph-name="crcsol_1.orn" horiz-adv-x="750" 
d="M703 313q0 -138 -95 -233t-233 -95t-233 95t-95 233t95 233t233 95t233 -95t95 -233z" />
    <glyph glyph-name="apple" horiz-adv-x="758" 
d="M763 233l-180 -85l69 -189l-189 69l-85 -181l-84 180l-187 -68l68 187l-181 86l181 83l-68 189l187 -69l86 181l83 -181l189 69l-69 -189zM663 232l-132 62l50 139l-139 -50l-63 133l-63 -133l-139 50l51 -139l-134 -63l134 -63l-51 -138l139 51l62 -135l64 135l139 -51
l-50 140z" />
    </font>
</defs>
</svg>
