<?xml version="1.0" encoding="utf-8"?>
<!-- Generator: Adobe Illustrator 16.0.0, SVG Export Plug-In . SVG Version: 6.00 Build 0)  -->
<!DOCTYPE svg PUBLIC "-//W3C//DTD SVG 1.1//EN" "http://www.w3.org/Graphics/SVG/1.1/DTD/svg11.dtd" [
	<!ENTITY ns_extend "http://ns.adobe.com/Extensibility/1.0/">
	<!ENTITY ns_ai "http://ns.adobe.com/AdobeIllustrator/10.0/">
	<!ENTITY ns_graphs "http://ns.adobe.com/Graphs/1.0/">
	<!ENTITY ns_vars "http://ns.adobe.com/Variables/1.0/">
	<!ENTITY ns_imrep "http://ns.adobe.com/ImageReplacement/1.0/">
	<!ENTITY ns_sfw "http://ns.adobe.com/SaveForWeb/1.0/">
	<!ENTITY ns_custom "http://ns.adobe.com/GenericCustomNamespace/1.0/">
	<!ENTITY ns_adobe_xpath "http://ns.adobe.com/XPath/1.0/">
]>
<svg version="1.1" id="Layer_1" xmlns:x="&ns_extend;" xmlns:i="&ns_ai;" xmlns:graph="&ns_graphs;"
	 xmlns="http://www.w3.org/2000/svg" xmlns:xlink="http://www.w3.org/1999/xlink" x="0px" y="0px" width="108px" height="77.5px"
	 viewBox="0 0 108 77.5" enable-background="new 0 0 108 77.5" xml:space="preserve">
<metadata>
	<sfw  xmlns="&ns_sfw;">
		<slices></slices>
		<sliceSourceBounds  height="73.597" width="105.294" x="47.096" y="63.77" bottomLeftOrigin="true"></sliceSourceBounds>
	</sfw>
</metadata>
<g>
	<path d="M13.355,56.289c4.484,0,6.851-2.411,6.851-5.456c0-3.724-3.044-5.626-8.036-5.626H7.729v11.082H13.355z M12.17,43.176
		c4.908,0,7.232-2.242,7.232-5.499c0-3.088-2.325-4.991-6.724-4.991H7.729v10.49H12.17z M1.596,56.289h3.723V32.686H1.596v-2.115
		h11.167c6.513,0,9.009,3.426,9.009,6.937c0,3.385-2.157,5.711-5.245,6.643c3.807,0.975,6.048,3.09,6.048,6.728
		c0,4.271-3.469,7.53-9.305,7.53H1.596V56.289z"/>
</g>
<path d="M44.193,46.348l-5.117-13.874l-5.16,13.874H44.193z M24.949,56.289h2.792l8.924-23.603h-3.214v-2.115h11.335v2.115h-3.214
	l8.925,23.603h2.792v2.115h-8.671v-2.115h3.257l-2.919-7.867H33.155l-2.918,7.867h3.384v2.115H24.95L24.949,56.289L24.949,56.289z"
	/>
<polygon points="56.338,56.289 60.061,56.289 60.061,32.686 56.338,32.686 56.338,30.571 66.406,30.571 66.406,32.686 
	62.473,32.686 62.473,56.289 73.004,56.289 73.004,51.891 75.331,51.891 75.331,58.404 56.338,58.404 "/>
<path d="M97.795,46.348l-5.117-13.874l-5.16,13.874H97.795z M78.55,56.289h2.791l8.927-23.603h-3.217v-2.115h11.338v2.115h-3.216
	l8.927,23.603h2.791v2.115h-8.672v-2.115h3.258l-2.92-7.867H86.756l-2.918,7.867h3.383v2.115H78.55V56.289z"/>
<rect x="8.272" y="70.412" width="2.761" height="0.375"/>
<g>
	<polygon points="18.711,65.354 20.203,65.354 20.203,73.992 18.711,73.992 18.711,75.338 23.197,75.338 23.197,73.992 
		21.611,73.992 21.611,70.377 25.332,70.377 25.332,69.031 21.611,69.031 21.611,65.354 25.288,65.354 25.288,67.27 26.682,67.27 
		26.682,64.008 18.711,64.008 	"/>
	<polygon points="34.125,65.354 35.679,65.354 35.679,73.992 34.125,73.992 34.125,75.338 38.673,75.338 38.673,73.992 
		37.104,73.992 37.104,65.354 38.673,65.354 38.673,64.008 34.125,64.008 	"/>
	<polygon points="52.303,73.992 48.86,73.992 48.86,65.354 50.383,65.354 50.383,64.008 45.961,64.008 45.961,65.354 47.453,65.354 
		47.453,73.992 45.961,73.992 45.961,75.338 53.695,75.338 53.695,71.998 52.303,71.998 	"/>
	<polygon points="71.904,65.354 73.41,65.354 73.41,64.008 70.623,64.008 67.275,71.493 63.928,64.008 61.094,64.008 61.094,65.354 
		62.598,65.354 62.287,73.992 60.686,73.992 60.686,75.338 65.027,75.338 65.027,73.992 63.665,73.992 63.911,67.348 66.855,73.924 
		67.661,73.924 70.604,67.377 70.839,73.992 69.475,73.992 69.475,75.338 73.816,75.338 73.816,73.992 72.215,73.992 	"/>
	<path d="M84.992,68.918c-1.454-0.594-2.338-1.027-2.338-2.037c0-0.949,0.865-1.666,2.012-1.666c0.703,0,1.33,0.27,1.645,0.582
		c-0.109,0.162-0.168,0.354-0.168,0.564c0,0.502,0.407,0.91,0.908,0.91c0.526,0,0.924-0.438,0.924-1.02
		c0-1.27-1.539-2.384-3.293-2.384c-1.939,0-3.404,1.308-3.404,3.042c0,2.021,1.873,2.766,3.106,3.256
		c1.345,0.548,2.371,1.052,2.371,2.127c0,1.117-0.875,1.84-2.229,1.84c-0.92,0-1.631-0.328-1.979-0.708
		c0.129-0.171,0.203-0.378,0.203-0.596c0-0.502-0.416-0.927-0.909-0.927c-0.466,0-0.938,0.365-0.938,1.064
		c0,1.21,1.443,2.51,3.591,2.514h0.001c2.15,0,3.652-1.322,3.652-3.217C88.146,70.171,86.113,69.363,84.992,68.918z"/>
</g>
<rect x="96.031" y="70.412" width="2.764" height="0.375"/>
<path d="M100.514,14.693H64.911c6.474-2.765,12.396-6.611,17.64-11.47h17.436l1.865-0.057V1.884H82.02l-0.188,0.182
	c-6.04,5.634-12.997,9.893-20.676,12.665l-3.605,1.3h44.299V3.166l-1.336-0.15V14.693z"/>
</svg>
